{"glyphs":{"0":{"ha":561,"x_min":32,"x_max":560,"o":"m 201 -14 q 74 44 115 -14 q 32 229 32 103 q 41 363 32 285 q 69 528 50 440 q 116 700 88 615 q 184 854 144 785 q 276 965 224 924 q 392 1006 328 1006 q 466 991 435 1006 q 518 947 497 976 q 549 872 539 918 q 560 765 560 826 q 551 625 560 706 q 524 457 542 544 q 476 286 506 369 q 407 135 447 203 q 315 26 367 67 q 201 -14 264 -14 m 214 103 q 277 140 247 103 q 332 238 307 176 q 376 374 357 300 q 409 523 396 447 q 430 663 422 599 q 438 771 438 728 q 424 860 438 831 q 381 889 411 889 q 317 851 347 889 q 263 752 288 814 q 217 616 238 690 q 183 467 197 542 q 162 329 169 393 q 154 225 154 265 q 169 132 154 161 q 214 103 183 103 z "},"1":{"ha":561,"x_min":142,"x_max":518,"o":"m 321 669 q 331 717 326 699 q 342 758 336 735 q 357 821 347 782 q 336 797 347 810 q 311 774 325 785 l 201 676 l 142 758 l 400 992 l 518 992 l 307 0 l 179 0 l 321 669 z "},"2":{"ha":561,"x_min":-44,"x_max":561,"o":"m -44 0 l -26 94 l 214 381 q 294 481 256 432 q 363 581 332 531 q 410 682 393 631 q 428 786 428 733 q 406 863 428 836 q 342 890 385 890 q 290 878 315 890 q 240 849 264 867 q 192 811 217 831 l 146 904 q 248 979 193 953 q 369 1006 303 1006 q 471 981 428 1006 q 538 914 514 957 q 561 808 561 871 q 530 652 561 729 q 445 499 499 575 q 324 347 392 424 l 128 119 l 128 115 l 431 115 l 406 0 l -44 0 z "},"3":{"ha":561,"x_min":-21,"x_max":567,"o":"m 156 -14 q 58 -4 99 -14 q -21 26 18 6 l -21 154 q 63 113 17 126 q 151 99 110 99 q 233 115 199 99 q 293 160 268 131 q 331 228 318 189 q 343 311 343 267 q 327 393 343 361 q 280 440 311 425 q 201 456 249 456 l 154 456 l 178 567 l 224 567 q 311 583 272 567 q 378 630 350 600 q 420 700 406 660 q 435 786 435 740 q 411 865 435 836 q 342 893 388 893 q 264 876 303 893 q 185 829 225 860 l 150 929 q 251 986 199 967 q 367 1006 303 1006 q 472 983 426 1006 q 542 919 517 961 q 567 815 567 878 q 540 685 567 746 q 466 581 514 624 q 353 518 418 538 l 351 514 q 442 449 408 497 q 476 321 476 401 q 455 194 476 254 q 392 87 433 133 q 291 13 350 40 q 156 -14 232 -14 z "},"4":{"ha":561,"x_min":-24,"x_max":571,"o":"m 233 0 l 279 213 l -24 213 l -1 315 l 438 999 l 571 999 l 428 324 l 519 324 l 496 213 l 404 213 l 360 0 l 233 0 m 107 324 l 303 324 l 385 704 q 395 744 390 724 q 406 786 400 765 q 415 826 411 807 l 411 826 q 384 776 396 797 q 363 738 372 754 q 344 706 354 721 l 107 324 z "},"5":{"ha":561,"x_min":-8,"x_max":576,"o":"m 157 -14 q 90 -9 121 -14 q 34 4 58 -4 q -8 22 10 13 l -8 156 q 65 114 22 129 q 158 99 107 99 q 244 119 207 99 q 308 176 282 140 q 347 256 333 211 q 360 350 360 301 q 328 465 360 425 q 236 506 297 506 q 184 499 210 506 q 131 482 158 493 l 90 526 l 215 992 l 576 992 l 550 875 l 304 875 l 228 606 q 267 613 249 611 q 304 615 286 615 q 406 587 364 615 q 472 505 449 558 q 494 375 494 451 q 474 233 494 303 q 413 108 454 164 q 309 19 372 53 q 157 -14 246 -14 z "},"6":{"ha":561,"x_min":36,"x_max":597,"o":"m 226 -14 q 117 18 160 -14 q 56 109 75 50 q 36 244 36 168 q 47 402 36 321 q 81 563 58 483 q 135 713 103 642 q 207 839 167 783 q 277 919 238 882 q 367 981 317 957 q 478 1006 418 1006 q 545 1002 517 1006 q 597 992 574 999 l 569 878 q 525 889 549 885 q 478 893 501 893 q 361 852 414 893 q 267 731 308 811 q 196 531 226 650 l 200 531 q 246 584 221 561 q 302 619 271 607 q 368 632 333 632 q 481 572 444 632 q 517 421 517 513 q 500 277 517 353 q 449 135 483 201 q 358 28 414 69 q 226 -14 303 -14 m 235 100 q 305 133 275 100 q 352 215 335 165 q 378 317 369 264 q 388 408 388 369 q 369 490 388 461 q 317 519 350 519 q 264 506 288 519 q 223 469 240 493 q 194 417 206 446 q 177 367 185 397 q 165 303 169 338 q 161 236 161 269 q 166 177 161 203 q 181 135 171 151 q 204 109 190 118 q 235 100 218 100 z "},"7":{"ha":561,"x_min":42,"x_max":622,"o":"m 42 0 l 471 874 l 132 874 l 157 992 l 622 992 l 606 899 l 175 0 l 42 0 z "},"8":{"ha":561,"x_min":-6,"x_max":578,"o":"m 219 -14 q 98 12 149 -14 q 21 86 47 38 q -6 200 -6 135 q 20 333 -6 275 q 96 437 46 390 q 214 522 146 483 q 167 590 186 556 q 138 661 147 624 q 129 739 129 699 q 160 874 129 814 q 247 970 190 935 q 385 1006 304 1006 q 488 983 444 1006 q 554 917 531 960 q 578 815 578 874 q 554 698 578 753 q 485 598 531 643 q 378 518 440 553 q 441 442 417 481 q 477 362 465 403 q 489 274 489 321 q 456 133 489 199 q 363 26 424 67 q 219 -14 303 -14 m 222 93 q 301 117 269 93 q 348 181 332 142 q 364 267 364 221 q 354 337 364 304 q 326 399 344 369 q 281 456 307 428 q 199 394 235 428 q 141 315 163 360 q 119 210 119 269 q 147 127 119 161 q 222 93 174 93 m 313 585 q 391 645 360 613 q 438 716 422 678 q 453 796 453 754 q 431 872 453 846 q 369 899 408 899 q 307 879 333 899 q 266 825 281 860 q 251 743 251 790 q 268 657 251 696 q 313 585 285 618 z "},"9":{"ha":561,"x_min":1,"x_max":557,"o":"m 124 -14 q 56 -9 85 -14 q 1 1 26 -4 l 1 117 q 54 103 24 108 q 118 99 85 99 q 209 122 167 99 q 285 190 251 144 q 348 304 319 236 q 397 461 376 372 l 393 461 q 347 409 374 432 q 290 373 321 386 q 226 360 260 360 q 142 388 174 360 q 94 464 110 415 q 78 571 78 513 q 94 713 78 638 q 147 854 111 788 q 238 963 182 921 q 372 1006 293 1006 q 473 976 432 1006 q 535 891 514 947 q 557 753 557 835 q 550 625 557 692 q 528 491 543 558 q 494 361 514 424 q 446 243 474 299 q 390 144 421 190 q 319 63 358 99 q 231 6 279 26 q 124 -14 182 -14 m 278 472 q 317 481 299 472 q 349 505 335 490 q 376 539 364 519 q 418 633 404 576 q 432 758 432 690 q 424 832 432 803 q 399 876 415 861 q 360 892 383 892 q 293 861 322 892 q 244 783 264 831 q 215 684 225 736 q 206 589 206 632 q 225 503 206 533 q 278 472 244 472 z "},"\u0000":{"ha":0,"x_min":0,"x_max":0,"o":""},"\r":{"ha":236,"x_min":0,"x_max":0,"o":""}," ":{"ha":236,"x_min":0,"x_max":0,"o":""},"!":{"ha":332,"x_min":10,"x_max":361,"o":"m 83 288 l 215 992 l 361 992 l 188 288 l 83 288 m 76 -12 q 28 4 46 -12 q 10 53 10 21 q 36 136 10 100 q 113 172 63 172 q 157 154 140 172 q 174 107 174 136 q 145 22 174 56 q 76 -12 117 -12 z "},"\"":{"ha":493,"x_min":136,"x_max":553,"o":"m 358 633 l 415 992 l 553 992 l 456 633 l 358 633 m 136 633 l 192 992 l 329 992 l 233 633 l 136 633 z "},"#":{"ha":610,"x_min":1,"x_max":646,"o":"m 10 0 l 101 297 l 1 297 l 18 394 l 132 394 l 203 618 l 94 618 l 111 715 l 233 715 l 319 992 l 417 992 l 329 715 l 447 715 l 533 992 l 629 992 l 543 715 l 646 715 l 628 618 l 513 618 l 442 394 l 551 394 l 535 297 l 413 297 l 319 0 l 222 0 l 317 297 l 197 297 l 106 0 l 10 0 m 229 394 l 347 394 l 417 618 l 299 618 l 229 394 z "},"$":{"ha":561,"x_min":3,"x_max":586,"o":"m 176 64 q 75 80 118 67 q 3 113 32 93 l 22 240 q 99 196 53 215 q 201 172 146 176 l 263 467 q 195 522 228 492 q 141 591 163 551 q 119 685 119 631 q 151 824 119 768 q 239 909 183 879 q 363 943 294 939 l 388 1056 l 444 1056 l 422 943 q 517 926 478 940 q 586 892 556 911 l 529 785 q 468 819 500 806 q 399 836 436 832 l 339 558 q 410 498 378 529 q 463 426 443 467 q 483 328 483 385 q 451 191 483 247 q 363 103 418 135 q 235 64 307 71 l 204 -81 l 146 -81 l 176 64 m 258 178 q 322 201 297 183 q 359 246 347 218 q 371 307 371 274 q 365 351 371 332 q 347 389 360 371 q 311 428 333 407 l 258 178 m 340 835 q 280 812 304 829 q 244 767 256 794 q 232 704 232 739 q 238 667 232 685 q 256 633 243 650 q 290 597 269 617 l 340 835 z "},"%":{"ha":883,"x_min":68,"x_max":840,"o":"m 140 0 l 663 992 l 764 992 l 243 0 l 140 0 m 189 383 q 99 425 131 383 q 68 550 68 467 q 77 654 68 594 q 104 776 86 714 q 151 889 122 838 q 218 973 179 940 q 307 1006 257 1006 q 396 965 364 1006 q 428 839 428 924 q 419 738 428 796 q 393 617 411 679 q 347 501 375 554 q 279 416 318 449 q 189 383 240 383 m 201 476 q 245 505 225 476 q 281 578 265 533 q 308 673 296 622 q 325 768 319 724 q 331 840 331 813 q 322 896 331 878 q 294 914 313 914 q 251 885 271 914 q 216 813 232 857 q 188 718 200 768 q 171 623 176 668 q 165 550 165 578 q 175 493 165 510 q 201 476 185 476 m 601 -14 q 512 28 543 -14 q 481 153 481 69 q 490 265 481 204 q 519 387 500 326 q 567 498 539 447 q 634 578 596 549 q 719 608 672 608 q 808 567 776 608 q 840 443 840 526 q 831 340 840 399 q 804 219 822 281 q 758 104 786 157 q 691 19 729 51 q 601 -14 653 -14 m 614 79 q 656 108 636 79 q 692 181 676 136 q 719 275 708 225 q 737 371 731 325 q 743 444 743 417 q 733 499 743 482 q 706 517 724 517 q 661 488 682 517 q 625 413 640 458 q 599 317 610 367 q 582 222 588 267 q 576 153 576 178 q 586 97 576 115 q 614 79 596 79 z "},"&":{"ha":631,"x_min":-7,"x_max":617,"o":"m 172 -14 q 41 38 89 -14 q -7 179 -7 89 q 19 320 -7 256 q 92 440 44 385 q 206 543 140 496 q 181 631 190 586 q 172 724 172 675 q 198 865 172 801 q 272 967 224 929 q 389 1006 319 1006 q 461 989 428 1006 q 515 940 494 972 q 535 857 535 907 q 512 734 535 793 q 449 622 489 675 q 353 524 408 569 l 424 304 q 460 386 442 340 q 492 483 478 432 l 617 483 q 581 380 603 433 q 532 276 558 326 q 476 183 506 226 l 547 0 l 400 0 l 374 86 q 283 15 329 44 q 172 -14 238 -14 m 199 99 q 251 112 228 99 q 293 145 274 125 q 331 189 313 165 l 243 453 q 177 380 204 419 q 136 297 150 340 q 122 201 122 253 q 131 146 122 169 q 156 110 139 122 q 199 99 174 99 m 313 611 q 353 660 335 633 q 386 715 372 686 q 408 776 400 743 q 415 840 415 808 q 405 888 415 869 q 371 907 394 907 q 326 882 343 907 q 301 819 308 857 q 293 743 293 782 q 298 674 293 707 q 313 611 303 642 z "},"'":{"ha":271,"x_min":140,"x_max":333,"o":"m 140 633 l 197 992 l 333 992 l 239 633 l 140 633 z "},"(":{"ha":363,"x_min":24,"x_max":456,"o":"m 92 -219 q 54 -115 69 -175 q 31 12 39 -54 q 24 136 24 78 q 46 368 24 250 q 110 600 68 486 q 213 816 153 714 q 349 1001 274 918 l 456 1001 q 327 808 385 913 q 228 592 269 704 q 165 365 186 481 q 143 136 143 250 q 149 11 143 74 q 166 -110 154 -51 q 196 -219 178 -168 l 92 -219 z "},")":{"ha":363,"x_min":-103,"x_max":328,"o":"m -103 -219 q 26 -26 -32 -129 q 124 190 83 78 q 187 417 165 301 q 208 646 208 532 q 203 769 208 706 q 186 894 197 833 q 156 1001 175 954 l 261 1001 q 299 894 285 953 q 321 772 314 835 q 328 646 328 710 q 306 409 328 528 q 241 178 283 290 q 139 -36 199 65 q 4 -219 79 -137 l -103 -219 z "},"*":{"ha":518,"x_min":129,"x_max":575,"o":"m 404 569 l 343 740 l 236 592 l 151 672 l 286 801 l 129 847 l 168 957 l 317 879 l 324 1063 l 443 1047 l 401 869 l 565 906 l 575 789 l 410 788 l 508 626 l 404 569 z "},"+":{"ha":615,"x_min":57,"x_max":583,"o":"m 376 544 l 583 544 l 583 435 l 376 435 l 376 164 l 265 164 l 265 436 l 57 436 l 57 546 l 265 546 l 265 819 l 376 819 l 376 544 z "},",":{"ha":293,"x_min":-65,"x_max":193,"o":"m -65 -185 q -22 -74 -46 -135 q 26 50 3 -12 q 61 163 49 113 l 189 163 l 193 149 q 147 33 172 90 q 92 -80 121 -25 q 33 -185 64 -135 l -65 -185 z "},"-":{"ha":371,"x_min":19,"x_max":344,"o":"m 19 314 l 44 435 l 344 435 l 319 314 l 19 314 z "},".":{"ha":293,"x_min":13,"x_max":175,"o":"m 78 -12 q 30 4 47 -12 q 13 53 13 21 q 38 136 13 100 q 113 172 64 172 q 158 154 142 172 q 175 107 175 136 q 147 22 175 56 q 78 -12 118 -12 z "},"/":{"ha":478,"x_min":-69,"x_max":585,"o":"m -69 -6 l 468 997 l 585 997 l 46 -6 l -69 -6 z "},":":{"ha":296,"x_min":1,"x_max":289,"o":"m 193 571 q 144 587 163 571 q 126 635 126 603 q 138 694 126 667 q 173 738 150 721 q 228 754 196 754 q 273 736 257 754 q 289 689 289 718 q 261 604 289 638 q 193 571 233 571 m 68 -12 q 19 4 38 -12 q 1 53 1 21 q 28 136 1 100 q 103 172 54 172 q 149 154 132 172 q 165 107 165 136 q 136 22 165 56 q 68 -12 107 -12 z "},";":{"ha":296,"x_min":-71,"x_max":296,"o":"m -71 -185 q -22 -68 -44 -126 q 21 49 0 -10 q 57 163 42 107 l 183 163 l 189 149 q 140 34 167 92 q 86 -78 114 -24 q 28 -185 58 -133 l -71 -185 m 199 571 q 151 587 168 571 q 133 635 133 603 q 144 694 133 667 q 178 738 156 721 q 233 754 201 754 q 280 736 264 754 q 296 689 296 718 q 268 604 296 638 q 199 571 240 571 z "},"<":{"ha":615,"x_min":54,"x_max":586,"o":"m 586 178 l 54 458 l 54 533 l 586 811 l 586 686 l 207 494 l 586 303 l 586 178 z "},"=":{"ha":615,"x_min":57,"x_max":583,"o":"m 57 583 l 57 693 l 583 693 l 583 583 l 57 583 m 57 285 l 57 394 l 583 394 l 583 285 l 57 285 z "},">":{"ha":615,"x_min":57,"x_max":588,"o":"m 57 303 l 436 494 l 57 686 l 57 811 l 588 533 l 588 457 l 57 178 l 57 303 z "},"?":{"ha":419,"x_min":24,"x_max":479,"o":"m 92 288 q 121 401 106 356 q 159 485 136 447 q 217 563 182 522 q 287 645 256 610 q 335 719 318 681 q 353 810 353 757 q 333 872 353 851 q 276 892 313 892 q 206 875 239 892 q 142 838 172 858 l 117 936 q 210 988 163 971 q 306 1006 258 1006 q 435 961 390 1006 q 479 838 479 917 q 458 723 479 775 q 401 624 436 671 q 322 531 367 578 q 258 452 282 486 q 221 381 235 418 q 196 288 207 344 l 92 288 m 90 -12 q 42 4 60 -12 q 24 53 24 21 q 49 136 24 100 q 125 172 75 172 q 169 154 153 172 q 186 107 186 136 q 158 22 186 56 q 90 -12 131 -12 z "},"@":{"ha":839,"x_min":33,"x_max":826,"o":"m 322 -115 q 197 -92 251 -115 q 106 -24 143 -68 q 51 80 69 19 q 33 214 33 140 q 57 442 33 329 q 126 656 81 554 q 235 834 171 757 q 381 956 300 911 q 560 1001 463 1001 q 703 961 643 1001 q 794 848 763 921 q 826 676 826 775 q 815 543 826 614 q 782 405 804 472 q 729 282 760 338 q 659 193 699 226 q 574 160 619 160 q 501 188 521 160 q 475 264 481 215 l 474 264 q 417 186 450 215 q 349 157 383 157 q 266 193 293 157 q 239 303 239 229 q 249 406 239 349 q 281 520 260 463 q 335 626 303 578 q 411 703 368 674 q 508 733 454 733 q 584 726 550 733 q 644 704 618 718 l 564 374 q 553 326 557 346 q 550 293 550 306 q 558 254 550 267 q 582 242 567 242 q 633 273 610 242 q 676 353 657 304 q 708 460 694 403 q 729 573 722 518 q 736 668 736 628 q 715 806 736 751 q 652 889 693 861 q 550 917 611 917 q 403 876 469 917 q 285 765 338 835 q 198 605 233 694 q 144 417 163 515 q 125 224 125 319 q 145 91 125 149 q 209 1 165 33 q 325 -32 253 -32 q 425 -19 375 -32 q 521 15 475 -7 l 521 -67 q 424 -102 475 -89 q 322 -115 372 -115 m 372 242 q 429 292 403 242 q 483 447 456 343 l 535 644 q 517 649 526 647 q 494 650 507 650 q 428 615 457 650 q 378 524 399 579 q 346 413 357 469 q 335 314 335 356 q 344 259 335 276 q 372 242 354 242 z "},"A":{"ha":588,"x_min":-89,"x_max":499,"o":"m -89 0 l 328 996 l 493 996 l 499 0 l 364 0 l 365 297 l 172 297 l 53 0 l -89 0 m 217 414 l 371 414 l 378 749 q 379 812 378 782 q 383 869 381 842 l 379 869 q 365 814 374 843 q 343 749 356 785 l 217 414 z "},"B":{"ha":615,"x_min":-1,"x_max":626,"o":"m -1 0 l 208 992 l 406 992 q 517 970 467 992 q 597 906 567 949 q 626 796 626 863 q 607 678 626 735 q 547 580 588 621 q 440 521 506 539 l 440 517 q 519 450 492 500 q 547 335 547 400 q 511 168 547 244 q 405 46 475 92 q 232 0 335 0 l -1 0 m 232 114 q 335 144 294 114 q 394 226 375 175 q 414 339 414 278 q 385 431 414 400 q 304 463 356 463 l 226 463 l 153 114 l 232 114 m 322 571 q 413 599 375 571 q 469 675 450 628 q 489 775 489 722 q 463 854 489 828 q 379 881 436 881 l 315 881 l 250 571 l 322 571 z "},"C":{"ha":554,"x_min":50,"x_max":654,"o":"m 276 -14 q 151 23 201 -14 q 76 131 101 60 q 50 306 50 201 q 67 487 50 390 q 119 675 85 583 q 205 842 153 767 q 326 962 257 917 q 482 1007 396 1007 q 576 994 532 1007 q 654 954 619 982 l 589 849 q 538 880 564 869 q 482 890 511 890 q 373 849 421 890 q 290 740 325 807 q 231 594 254 672 q 196 443 207 517 q 185 315 185 369 q 215 153 185 204 q 308 103 244 103 q 376 113 342 103 q 447 139 411 124 l 447 21 q 362 -6 406 3 q 276 -14 318 -14 z "},"D":{"ha":663,"x_min":-1,"x_max":644,"o":"m -1 0 l 208 992 l 381 992 q 577 916 510 992 q 644 696 644 840 q 628 508 644 604 q 578 321 613 411 q 488 158 543 231 q 356 42 433 85 q 176 0 279 0 l -1 0 m 196 118 q 314 154 263 118 q 401 251 365 190 q 461 386 438 311 q 497 538 485 461 q 508 686 508 615 q 473 829 508 783 q 368 875 438 875 l 314 875 l 153 118 l 196 118 z "},"E":{"ha":519,"x_min":-1,"x_max":582,"o":"m -1 0 l 208 992 l 582 992 l 558 876 l 314 876 l 251 575 l 478 575 l 453 460 l 226 460 l 153 115 l 397 115 l 372 0 l -1 0 z "},"F":{"ha":492,"x_min":-1,"x_max":583,"o":"m -1 0 l 208 992 l 583 992 l 558 876 l 314 876 l 243 536 l 469 536 l 446 421 l 218 421 l 129 0 l -1 0 z "},"G":{"ha":694,"x_min":50,"x_max":728,"o":"m 321 -14 q 117 67 183 -14 q 50 303 50 147 q 71 520 50 415 q 133 714 92 625 q 231 868 174 803 q 359 970 288 933 q 514 1007 431 1007 q 633 990 578 1007 q 728 944 689 972 l 665 833 q 587 876 626 863 q 503 890 547 890 q 372 838 431 890 q 271 701 313 786 q 207 513 229 615 q 185 311 185 411 q 201 192 185 239 q 250 124 217 146 q 333 103 283 103 q 385 106 360 103 q 435 118 410 110 l 499 419 l 381 419 l 404 532 l 651 532 l 544 32 q 428 -2 486 10 q 321 -14 371 -14 z "},"H":{"ha":688,"x_min":-1,"x_max":722,"o":"m -1 0 l 208 992 l 339 992 l 251 576 l 504 576 l 593 992 l 722 992 l 511 0 l 382 0 l 479 460 l 226 460 l 129 0 l -1 0 z "},"I":{"ha":385,"x_min":-68,"x_max":485,"o":"m -68 0 l -51 71 l 60 99 l 228 893 l 128 921 l 142 992 l 485 992 l 469 921 l 357 893 l 189 99 l 289 71 l 275 0 l -68 0 z "},"J":{"ha":296,"x_min":-207,"x_max":340,"o":"m -108 -274 q -164 -269 -140 -274 q -207 -257 -187 -265 l -179 -142 q -146 -153 -162 -149 q -112 -158 -129 -158 q -58 -137 -79 -158 q -22 -77 -36 -115 q 3 10 -8 -39 l 210 992 l 340 992 l 128 -11 q 76 -162 108 -104 q -2 -247 43 -219 q -108 -274 -47 -274 z "},"K":{"ha":586,"x_min":-1,"x_max":703,"o":"m -1 0 l 208 992 l 339 992 l 238 513 l 310 628 l 561 992 l 703 992 l 390 536 l 501 0 l 361 0 l 278 439 l 207 369 l 129 0 l -1 0 z "},"L":{"ha":482,"x_min":-1,"x_max":394,"o":"m -1 0 l 208 992 l 339 992 l 153 115 l 394 115 l 372 0 l -1 0 z "},"M":{"ha":918,"x_min":-1,"x_max":953,"o":"m -1 0 l 208 992 l 386 992 l 414 217 l 417 217 l 764 992 l 953 992 l 742 0 l 615 0 l 750 639 q 760 678 756 658 q 770 719 765 699 q 781 763 775 740 l 778 763 l 432 0 l 310 0 l 282 760 l 279 760 q 269 706 274 732 q 261 656 265 681 q 251 610 257 632 l 122 0 l -1 0 z "},"N":{"ha":732,"x_min":-1,"x_max":768,"o":"m -1 0 l 208 992 l 360 992 l 485 236 l 489 236 q 506 330 497 283 q 522 416 514 376 q 535 482 531 456 l 643 992 l 768 992 l 557 0 l 410 0 l 282 769 l 278 769 q 265 691 272 732 q 251 611 258 650 q 237 541 243 572 q 226 490 231 510 l 122 0 l -1 0 z "},"O":{"ha":706,"x_min":49,"x_max":688,"o":"m 276 -14 q 149 18 200 -14 q 74 117 99 50 q 49 285 49 183 q 60 442 49 360 q 94 606 72 525 q 152 758 117 686 q 233 886 188 831 q 337 974 279 942 q 463 1006 394 1006 q 633 934 578 1006 q 688 717 688 863 q 678 573 688 651 q 647 412 668 494 q 592 253 625 329 q 514 117 560 178 q 409 22 468 57 q 276 -14 350 -14 m 286 104 q 368 134 331 104 q 435 215 406 164 q 488 331 465 267 q 525 465 510 396 q 547 600 540 535 q 554 719 554 665 q 529 849 554 807 q 453 890 504 890 q 366 858 404 890 q 297 772 328 826 q 246 652 267 718 q 211 518 225 586 q 190 389 197 450 q 183 283 183 328 q 195 178 183 218 q 230 122 207 139 q 286 104 253 104 z "},"P":{"ha":578,"x_min":-1,"x_max":606,"o":"m -1 0 l 208 992 l 372 992 q 503 965 451 992 q 580 888 554 938 q 606 772 606 839 q 583 619 606 690 q 519 494 561 549 q 414 410 476 440 q 269 379 351 379 l 208 379 l 129 0 l -1 0 m 269 494 q 380 527 335 494 q 448 619 425 560 q 471 756 471 679 q 441 847 471 817 q 351 876 411 876 l 314 876 l 233 494 l 269 494 z "},"Q":{"ha":706,"x_min":49,"x_max":688,"o":"m 269 -11 q 258 -12 264 -12 q 247 -11 253 -12 q 136 27 181 -7 q 70 125 92 61 q 49 285 49 189 q 60 442 49 360 q 94 606 72 525 q 152 758 117 686 q 233 886 188 831 q 337 974 279 942 q 463 1006 394 1006 q 633 934 578 1006 q 688 717 688 863 q 677 569 688 650 q 645 403 667 488 q 590 242 624 319 q 508 105 556 164 q 399 17 460 46 l 481 -236 l 332 -236 l 269 -11 m 286 104 q 368 134 331 104 q 435 215 406 164 q 488 331 465 267 q 525 465 510 396 q 547 600 540 535 q 554 719 554 665 q 529 849 554 807 q 453 890 504 890 q 366 858 404 890 q 297 772 328 826 q 246 652 267 718 q 211 518 225 586 q 190 389 197 450 q 183 283 183 328 q 195 178 183 218 q 230 122 207 139 q 286 104 253 104 z "},"R":{"ha":599,"x_min":-1,"x_max":608,"o":"m -1 0 l 208 992 l 369 992 q 548 935 488 992 q 608 774 608 878 q 583 621 608 692 q 513 501 558 550 q 407 435 468 453 l 499 0 l 357 0 l 283 408 l 215 408 l 129 0 l -1 0 m 293 517 q 374 538 340 517 q 428 592 407 558 q 461 669 450 625 q 472 757 472 713 q 442 848 472 818 q 353 878 411 878 l 314 878 l 239 517 l 293 517 z "},"S":{"ha":535,"x_min":-31,"x_max":589,"o":"m 167 -14 q 53 -1 104 -14 q -31 35 3 11 l -10 169 q 74 126 26 144 q 169 108 121 108 q 231 119 203 108 q 282 151 260 131 q 315 204 304 172 q 326 276 326 236 q 319 340 326 313 q 290 397 311 367 q 226 467 268 426 q 162 540 189 504 q 121 618 135 575 q 107 717 107 661 q 127 835 107 782 q 185 926 147 888 q 276 985 222 964 q 397 1006 331 1006 q 501 990 447 1006 q 589 950 554 975 l 528 833 q 459 871 494 857 q 389 885 424 885 q 332 874 358 885 q 285 844 306 864 q 253 796 264 825 q 242 731 242 767 q 254 665 242 693 q 292 606 267 636 q 356 538 317 576 q 417 466 393 503 q 451 387 440 429 q 463 289 463 344 q 444 169 463 225 q 388 72 425 114 q 294 8 350 31 q 167 -14 239 -14 z "},"T":{"ha":496,"x_min":93,"x_max":603,"o":"m 93 0 l 279 875 l 110 875 l 135 992 l 603 992 l 578 875 l 408 875 l 222 0 l 93 0 z "},"U":{"ha":671,"x_min":46,"x_max":711,"o":"m 254 -14 q 142 11 189 -14 q 71 84 96 36 q 46 200 46 132 q 50 256 46 225 q 60 317 54 286 l 204 992 l 333 992 l 189 311 q 181 262 183 286 q 178 217 178 238 q 201 132 178 160 q 271 104 225 104 q 347 126 315 104 q 399 198 378 149 q 438 324 421 247 l 581 992 l 711 992 l 564 310 q 506 137 543 210 q 408 25 468 64 q 254 -14 347 -14 z "},"V":{"ha":586,"x_min":121,"x_max":701,"o":"m 129 0 l 121 992 l 254 992 l 247 385 q 247 322 247 354 q 244 254 246 290 q 238 175 242 218 l 240 175 q 267 260 251 214 q 304 363 283 307 l 563 992 l 701 992 l 278 0 l 129 0 z "},"W":{"ha":926,"x_min":96,"x_max":1039,"o":"m 96 0 l 122 992 l 249 992 l 229 401 q 224 294 228 342 q 218 211 221 246 l 221 211 q 255 306 236 258 q 292 401 274 353 l 524 992 l 638 992 l 618 417 q 615 340 617 375 q 610 273 613 304 q 606 211 608 242 l 608 211 q 633 281 621 247 q 657 346 644 314 q 681 410 669 378 l 907 992 l 1039 992 l 649 0 l 496 0 l 517 586 q 519 631 518 607 q 523 678 521 654 q 526 728 525 703 l 524 728 q 501 662 513 696 q 478 596 490 628 l 247 0 l 96 0 z "},"X":{"ha":543,"x_min":-82,"x_max":642,"o":"m -82 0 l 219 518 l 147 992 l 282 992 l 322 644 l 504 992 l 642 992 l 368 507 l 444 0 l 306 0 l 267 378 l 56 0 l -82 0 z "},"Y":{"ha":522,"x_min":108,"x_max":644,"o":"m 108 0 l 188 381 l 119 992 l 254 992 l 288 554 l 506 992 l 644 992 l 319 385 l 238 0 l 108 0 z "},"Z":{"ha":488,"x_min":-57,"x_max":575,"o":"m -57 0 l -36 97 l 406 876 l 136 876 l 160 992 l 575 992 l 556 893 l 111 115 l 397 115 l 374 0 l -57 0 z "},"[":{"ha":393,"x_min":-43,"x_max":490,"o":"m -43 -225 l 219 1003 l 490 1003 l 468 901 l 313 901 l 93 -124 l 250 -124 l 228 -225 l -43 -225 z "},"\\":{"ha":485,"x_min":139,"x_max":379,"o":"m 265 -6 l 139 997 l 253 997 l 379 -6 l 265 -6 z "},"]":{"ha":393,"x_min":-94,"x_max":438,"o":"m -94 -225 l -74 -124 l 82 -124 l 300 901 l 144 901 l 167 1003 l 438 1003 l 175 -225 l -94 -225 z "},"^":{"ha":568,"x_min":8,"x_max":567,"o":"m 8 440 l 344 992 l 424 992 l 567 440 l 451 440 l 353 817 l 131 440 l 8 440 z "},"_":{"ha":439,"x_min":-122,"x_max":336,"o":"m -122 -208 l -104 -111 l 336 -111 l 318 -208 l -122 -208 z "},"`":{"ha":363,"x_min":203,"x_max":408,"o":"m 324 842 q 281 905 306 867 q 235 983 257 943 q 203 1051 213 1022 l 203 1063 l 346 1063 q 363 998 354 1032 q 383 929 371 964 q 408 857 394 894 l 407 842 l 324 842 z "},"a":{"ha":600,"x_min":32,"x_max":601,"o":"m 181 -14 q 100 11 133 -14 q 49 83 67 36 q 32 197 32 129 q 43 333 32 258 q 78 484 54 408 q 138 623 101 560 q 222 724 174 686 q 333 763 271 763 q 389 751 364 763 q 432 715 414 739 q 458 654 450 690 l 463 654 l 494 749 l 601 749 l 443 0 l 342 0 l 349 104 l 344 104 q 296 41 321 67 q 242 1 271 15 q 181 -14 214 -14 m 225 94 q 301 131 269 94 q 354 224 332 168 q 392 339 376 281 q 415 455 408 406 q 422 547 422 504 q 403 624 422 597 q 350 651 385 651 q 285 622 315 651 q 233 542 256 592 q 194 433 210 493 q 169 315 178 374 q 161 210 161 257 q 177 123 161 151 q 225 94 193 94 z "},"b":{"ha":594,"x_min":-4,"x_max":567,"o":"m 264 -14 q 205 -1 231 -14 q 162 35 179 11 q 135 90 144 58 l 131 90 l 97 0 l -4 0 l 219 1056 l 344 1056 l 278 740 q 271 715 275 729 q 263 685 267 700 q 254 653 260 669 l 257 653 q 306 714 279 690 q 361 750 332 738 q 422 763 390 763 q 501 738 468 763 q 550 667 533 714 q 567 553 567 621 q 555 415 567 490 q 519 264 543 339 q 460 126 496 189 q 375 24 424 63 q 264 -14 326 -14 m 250 93 q 313 124 283 93 q 365 206 342 156 q 403 315 388 256 q 428 434 419 375 q 438 539 438 493 q 422 625 438 597 q 372 653 406 653 q 313 630 340 653 q 265 569 286 607 q 226 483 243 531 q 199 386 210 436 q 182 288 188 336 q 176 204 176 240 q 194 121 176 149 q 250 93 213 93 z "},"c":{"ha":457,"x_min":33,"x_max":500,"o":"m 218 -14 q 117 13 158 -14 q 54 90 75 39 q 33 215 33 140 q 45 356 33 281 q 82 503 57 431 q 146 633 107 575 q 240 727 185 692 q 365 763 294 763 q 438 753 404 763 q 500 725 471 744 l 449 624 q 408 645 431 638 q 364 653 386 653 q 274 610 313 653 q 211 501 236 568 q 174 363 186 435 q 161 229 161 290 q 171 154 161 183 q 200 110 181 125 q 249 96 219 96 q 304 107 274 96 q 367 139 335 118 l 367 29 q 299 -1 339 11 q 218 -14 260 -14 z "},"d":{"ha":600,"x_min":32,"x_max":665,"o":"m 176 -14 q 98 11 131 -14 q 49 83 65 36 q 32 197 32 129 q 43 332 32 257 q 78 483 54 407 q 136 622 101 558 q 219 724 171 685 q 326 763 267 763 q 385 751 358 763 q 431 717 413 739 q 458 663 450 694 l 463 663 q 470 710 467 686 q 478 756 474 733 q 486 796 482 778 l 540 1056 l 665 1056 l 442 0 l 340 0 l 347 99 l 344 99 q 293 38 318 63 q 240 -1 268 13 q 176 -14 213 -14 m 224 93 q 288 118 260 93 q 337 184 315 143 q 374 274 358 225 q 401 376 390 324 q 417 473 411 428 q 422 549 422 518 q 404 626 422 600 q 350 651 386 651 q 283 619 313 651 q 230 536 253 588 q 192 425 207 485 q 169 308 176 365 q 161 207 161 250 q 176 122 161 150 q 224 93 192 93 z "},"e":{"ha":547,"x_min":32,"x_max":526,"o":"m 235 -14 q 126 13 172 -14 q 56 92 81 40 q 32 218 32 144 q 56 426 32 328 q 124 599 81 524 q 229 718 168 675 q 365 761 290 761 q 483 720 439 761 q 526 601 526 679 q 502 488 526 538 q 433 403 478 438 q 323 350 388 368 q 176 332 258 332 l 167 332 q 158 283 161 307 q 156 232 156 258 q 183 124 156 158 q 265 90 211 90 q 339 101 306 90 q 415 135 372 111 l 415 33 q 331 -3 375 8 q 235 -14 286 -14 m 188 426 q 316 447 268 426 q 387 506 364 468 q 410 593 410 543 q 394 642 410 624 q 347 660 379 660 q 283 630 314 660 q 226 548 251 600 q 183 426 201 496 l 188 426 z "},"f":{"ha":336,"x_min":-168,"x_max":497,"o":"m -92 -333 q -131 -331 -112 -333 q -168 -322 -150 -329 l -168 -212 q -139 -219 -156 -217 q -107 -222 -122 -222 q -41 -182 -58 -222 q -8 -72 -24 -142 l 144 642 l 65 642 l 79 711 l 167 749 l 183 822 q 210 919 196 875 q 247 996 225 964 q 303 1045 269 1028 q 385 1063 336 1063 q 443 1056 415 1063 q 497 1038 471 1050 l 451 939 q 423 950 438 946 q 396 954 408 954 q 340 919 358 954 q 307 821 321 885 l 292 749 l 396 749 l 374 642 l 269 642 l 114 -82 q 76 -210 99 -153 q 15 -301 54 -268 q -92 -333 -25 -333 z "},"g":{"ha":600,"x_min":-32,"x_max":600,"o":"m 135 -333 q 42 -320 86 -333 q -32 -289 -3 -307 l -32 -172 q 14 -197 -14 -185 q 74 -218 42 -210 q 136 -226 106 -226 q 246 -181 206 -226 q 307 -51 286 -136 l 317 -4 q 327 38 321 11 q 342 92 333 64 l 339 92 q 290 32 315 56 q 235 -3 264 8 q 175 -14 207 -14 q 97 10 129 -14 q 48 79 65 33 q 31 192 31 125 q 42 330 31 254 q 78 482 54 406 q 139 622 103 558 q 224 724 175 685 q 335 763 272 763 q 395 750 371 763 q 435 714 419 738 q 461 654 451 690 l 464 654 l 493 749 l 600 749 l 433 -47 q 373 -210 413 -147 q 274 -303 333 -274 q 135 -333 215 -333 m 225 96 q 284 119 257 96 q 333 183 311 143 q 371 273 354 224 q 399 374 388 322 q 416 473 410 425 q 422 556 422 521 q 403 626 422 601 q 349 651 383 651 q 283 619 313 651 q 230 537 253 588 q 192 426 207 486 q 169 309 176 367 q 161 208 161 251 q 176 124 161 153 q 225 96 192 96 z "},"h":{"ha":588,"x_min":-3,"x_max":551,"o":"m -3 0 l 221 1056 l 346 1056 l 289 790 q 278 747 285 769 q 267 701 272 724 q 253 657 261 679 l 256 657 q 300 715 276 692 q 353 750 324 738 q 418 763 383 763 q 489 745 460 763 q 535 695 518 728 q 551 614 551 663 q 545 547 551 586 q 532 472 539 507 l 431 0 l 307 0 l 401 450 q 415 520 410 485 q 421 585 421 556 q 407 631 421 615 q 364 647 393 647 q 301 624 329 647 q 250 549 272 600 q 210 414 228 497 l 122 0 l -3 0 z "},"i":{"ha":279,"x_min":-3,"x_max":335,"o":"m -3 0 l 156 749 l 281 749 l 121 0 l -3 0 m 247 865 q 202 881 217 865 q 188 925 188 896 q 197 975 188 950 q 226 1016 207 1000 q 275 1032 246 1032 q 319 1018 304 1032 q 335 975 335 1004 q 311 897 335 929 q 247 865 288 865 z "},"j":{"ha":281,"x_min":-178,"x_max":336,"o":"m -103 -333 q -142 -331 -122 -333 q -178 -322 -161 -329 l -178 -211 q -149 -219 -167 -217 q -118 -221 -132 -221 q -69 -206 -87 -221 q -39 -156 -51 -192 q -14 -58 -26 -119 l 157 749 l 281 749 l 107 -68 q 69 -207 92 -147 q 6 -300 46 -267 q -103 -333 -35 -333 m 249 865 q 203 881 218 865 q 189 925 189 896 q 199 975 189 950 q 228 1016 208 1000 q 276 1032 247 1032 q 321 1018 306 1032 q 336 975 336 1004 q 313 897 336 929 q 249 865 289 865 z "},"k":{"ha":528,"x_min":-3,"x_max":592,"o":"m -3 0 l 222 1056 l 347 1056 l 240 561 q 225 494 235 532 q 203 411 215 457 l 206 411 l 456 749 l 592 749 l 363 442 l 446 0 l 313 0 l 254 339 l 174 254 l 122 0 l -3 0 z "},"l":{"ha":276,"x_min":-3,"x_max":347,"o":"m -3 0 l 222 1056 l 347 1056 l 122 0 l -3 0 z "},"m":{"ha":875,"x_min":-4,"x_max":840,"o":"m -4 0 l 156 749 l 257 749 l 244 653 l 249 653 q 294 713 269 688 q 349 750 319 738 q 413 763 379 763 q 499 739 467 763 q 542 667 531 715 l 544 667 q 591 718 565 697 q 647 751 617 739 q 710 763 676 763 q 806 725 771 763 q 840 617 840 688 q 837 569 840 594 q 828 515 833 543 l 718 0 l 593 0 l 697 489 q 706 539 703 514 q 710 579 710 564 q 696 631 710 614 q 654 649 682 649 q 606 633 626 649 q 569 592 585 618 q 542 534 553 565 q 524 471 531 503 l 422 0 l 299 0 l 404 499 q 413 544 410 522 q 415 581 415 565 q 401 632 415 615 q 361 649 388 649 q 303 628 328 649 q 260 574 279 608 q 229 495 242 539 q 208 406 217 451 l 122 0 l -4 0 z "},"n":{"ha":588,"x_min":-4,"x_max":551,"o":"m -4 0 l 156 749 l 257 749 l 244 650 l 249 650 q 294 711 269 686 q 349 749 319 736 q 413 763 379 763 q 483 747 451 763 q 533 700 514 732 q 551 615 551 668 q 545 551 551 588 q 532 479 539 515 l 431 0 l 306 0 l 403 457 q 415 525 410 490 q 421 585 421 560 q 408 631 421 615 q 365 647 394 647 q 297 618 326 647 q 246 534 268 589 q 207 400 224 479 l 122 0 l -4 0 z "},"o":{"ha":581,"x_min":33,"x_max":547,"o":"m 221 -14 q 120 13 163 -14 q 56 91 78 39 q 33 217 33 143 q 44 347 33 275 q 78 491 54 418 q 141 625 103 564 q 234 724 179 686 q 361 763 289 763 q 461 735 419 763 q 525 655 503 707 q 547 529 547 603 q 535 386 547 461 q 497 240 522 311 q 433 112 472 169 q 342 20 394 54 q 221 -14 289 -14 m 235 94 q 299 124 269 94 q 350 201 328 153 q 388 308 372 250 q 413 424 404 365 q 421 531 421 482 q 413 598 421 569 q 388 640 404 626 q 346 654 371 654 q 277 623 307 654 q 225 541 247 592 q 188 431 203 490 q 167 315 174 372 q 160 215 160 258 q 178 126 160 157 q 235 94 197 94 z "},"p":{"ha":594,"x_min":-69,"x_max":567,"o":"m -69 -325 l 157 749 l 260 749 l 247 643 l 251 643 q 303 710 276 683 q 359 749 329 736 q 421 763 389 763 q 499 739 467 763 q 549 669 532 715 q 567 551 567 622 q 555 410 567 486 q 519 260 543 335 q 459 123 496 185 q 374 24 422 61 q 265 -14 326 -14 q 209 -1 235 -14 q 167 35 183 11 q 140 89 150 58 l 136 89 q 125 19 131 54 q 114 -44 119 -17 l 53 -325 l -69 -325 m 249 96 q 314 126 285 96 q 367 205 343 156 q 406 314 390 254 q 430 433 421 374 q 439 540 439 493 q 423 627 439 599 q 374 656 407 656 q 316 632 343 656 q 267 569 289 608 q 228 483 244 531 q 200 383 211 435 q 183 285 189 332 q 178 203 178 239 q 195 123 178 150 q 249 96 213 96 z "},"q":{"ha":600,"x_min":31,"x_max":600,"o":"m 314 -15 q 321 14 317 -3 q 331 51 325 31 q 343 92 336 72 l 339 92 q 290 33 315 57 q 235 -2 264 10 q 175 -14 207 -14 q 97 10 129 -14 q 48 79 65 33 q 31 192 31 125 q 42 328 31 253 q 78 479 54 403 q 138 619 101 556 q 222 723 174 683 q 333 763 271 763 q 394 750 369 763 q 435 714 419 738 q 461 654 451 690 l 464 654 l 493 749 l 600 749 l 372 -332 l 247 -332 l 314 -15 m 225 96 q 284 119 257 96 q 333 181 311 142 q 371 267 354 219 q 399 367 388 315 q 416 467 410 418 q 422 553 422 515 q 403 626 422 600 q 349 651 383 651 q 283 622 313 651 q 231 541 254 592 q 192 431 208 490 q 169 314 176 372 q 161 208 161 256 q 176 124 161 151 q 225 96 192 96 z "},"r":{"ha":400,"x_min":-3,"x_max":464,"o":"m -3 0 l 156 749 l 253 749 l 239 628 l 243 628 q 290 703 265 674 q 344 748 314 733 q 411 763 374 763 q 438 760 425 763 q 464 753 450 758 l 428 619 q 403 627 415 625 q 374 629 390 629 q 311 608 339 629 q 263 552 283 588 q 227 474 242 517 q 204 389 213 431 l 122 0 l -3 0 z "},"s":{"ha":454,"x_min":-14,"x_max":474,"o":"m 149 -14 q 54 -3 96 -14 q -14 22 13 7 l -14 147 q 56 112 14 126 q 135 97 97 97 q 194 110 169 97 q 233 147 219 122 q 246 208 246 172 q 240 253 246 232 q 218 297 235 274 q 169 351 201 321 q 117 412 138 382 q 86 474 96 442 q 76 544 76 507 q 102 654 76 606 q 177 733 128 703 q 294 763 226 763 q 394 748 349 763 q 474 711 440 733 l 419 613 q 360 646 392 635 q 299 657 329 657 q 230 631 256 657 q 204 563 204 606 q 210 519 204 539 q 231 479 215 500 q 274 432 246 458 q 333 366 310 396 q 367 303 356 336 q 378 221 378 269 q 351 99 378 151 q 274 16 325 46 q 149 -14 222 -14 z "},"t":{"ha":353,"x_min":36,"x_max":396,"o":"m 153 -14 q 64 22 92 -14 q 36 119 36 58 q 40 166 36 140 q 50 222 43 192 l 139 642 l 72 642 l 86 711 l 169 746 l 232 915 l 322 915 l 286 749 l 396 749 l 372 642 l 264 642 l 172 211 q 165 174 168 192 q 161 143 161 156 q 171 108 161 119 q 203 97 181 97 q 233 101 215 97 q 268 111 251 104 l 268 10 q 211 -8 243 -1 q 153 -14 179 -14 z "},"u":{"ha":590,"x_min":33,"x_max":588,"o":"m 172 -14 q 96 3 126 -14 q 49 55 65 21 q 33 136 33 89 q 38 194 33 161 q 49 256 43 226 l 154 749 l 278 749 l 179 279 q 168 219 172 249 q 164 165 164 190 q 177 117 164 135 q 218 99 190 99 q 287 128 257 99 q 340 215 317 158 q 378 349 363 271 l 463 749 l 588 749 l 429 0 l 329 0 l 338 93 l 333 93 q 287 35 313 60 q 232 -1 261 11 q 172 -14 203 -14 z "},"v":{"ha":493,"x_min":82,"x_max":564,"o":"m 97 0 l 82 749 l 207 749 l 204 353 q 203 297 204 331 q 201 233 203 264 q 197 182 200 201 l 203 182 q 217 226 210 204 q 233 267 225 247 q 249 307 242 288 l 435 749 l 564 749 l 233 0 l 97 0 z "},"w":{"ha":783,"x_min":74,"x_max":851,"o":"m 74 0 l 88 749 l 210 749 l 197 351 q 192 271 194 310 q 186 196 189 232 l 189 196 q 204 243 196 218 q 222 292 213 268 q 238 336 231 315 l 399 749 l 539 749 l 525 351 q 520 272 524 314 q 514 189 517 229 l 517 189 q 538 249 528 218 q 558 308 547 279 q 581 368 569 338 l 725 749 l 851 749 l 551 0 l 406 0 l 425 443 q 427 488 426 465 q 430 533 428 511 q 433 578 432 556 l 431 578 q 419 542 425 560 q 406 506 413 524 q 393 469 400 488 l 214 0 l 74 0 z "},"x":{"ha":503,"x_min":-65,"x_max":558,"o":"m -65 0 l 176 389 l 103 749 l 235 749 l 275 496 l 419 749 l 558 749 l 326 379 l 407 0 l 275 0 l 228 272 l 71 0 l -65 0 z "},"y":{"ha":497,"x_min":-124,"x_max":571,"o":"m -44 -335 q -87 -331 -68 -335 q -124 -321 -107 -326 l -106 -208 q -76 -217 -90 -214 q -47 -221 -62 -221 q 14 -192 -10 -221 q 60 -111 38 -162 l 111 4 l 89 749 l 214 749 l 215 351 q 215 298 215 325 q 213 244 214 271 q 210 189 213 217 l 214 189 q 233 244 224 217 q 251 295 242 271 q 268 338 261 319 l 440 749 l 571 749 l 179 -135 q 122 -240 151 -194 q 53 -310 92 -285 q -44 -335 14 -335 z "},"z":{"ha":417,"x_min":-51,"x_max":458,"o":"m -51 0 l -33 81 l 296 642 l 99 642 l 121 749 l 458 749 l 440 661 l 115 107 l 332 107 l 308 0 l -51 0 z "},"{":{"ha":458,"x_min":28,"x_max":549,"o":"m 297 -219 q 138 -176 188 -218 q 89 -53 89 -133 q 92 -16 89 -35 q 97 22 94 3 l 133 197 q 138 222 136 208 q 140 249 140 235 q 116 315 140 293 q 28 336 92 336 l 50 440 q 161 472 122 440 q 214 574 200 504 l 261 794 q 314 917 279 875 q 406 976 349 960 q 544 992 463 992 l 549 992 l 524 886 q 425 859 457 885 q 379 767 393 833 l 335 553 q 279 441 321 483 q 161 388 238 399 l 161 383 q 240 339 215 369 q 265 261 265 308 q 263 228 265 246 q 257 192 261 211 l 221 22 q 217 -7 218 6 q 215 -29 215 -19 q 236 -93 215 -74 q 307 -114 257 -112 l 304 -219 l 297 -219 z "},"|":{"ha":514,"x_min":199,"x_max":310,"o":"m 199 -328 l 199 1063 l 310 1063 l 310 -328 l 199 -328 z "},"}":{"ha":458,"x_min":-83,"x_max":426,"o":"m -82 -114 q -3 -102 -33 -114 q 47 -64 28 -90 q 75 6 65 -37 l 119 219 q 176 331 135 289 q 293 385 217 374 l 293 389 q 215 433 240 403 q 189 511 189 464 q 191 545 189 528 q 197 581 193 563 l 233 750 q 238 778 236 765 q 239 801 239 792 q 216 865 239 844 q 142 886 193 885 l 164 992 l 172 992 q 285 974 243 992 q 347 920 328 956 q 365 831 365 885 q 363 792 365 814 q 357 750 361 769 l 321 575 q 316 550 318 563 q 314 524 314 538 q 338 458 314 479 q 426 436 363 436 l 404 332 q 294 299 332 332 q 240 199 256 265 l 193 -22 q 144 -143 176 -100 q 57 -203 111 -186 q -79 -219 3 -219 l -83 -219 l -82 -114 z "},"~":{"ha":615,"x_min":54,"x_max":589,"o":"m 306 436 q 242 465 274 456 q 185 474 211 474 q 121 453 154 474 q 54 392 88 432 l 54 514 q 117 568 82 550 q 193 586 151 586 q 267 574 233 586 q 336 543 300 563 q 402 515 374 525 q 458 506 431 506 q 526 528 490 506 q 589 588 561 551 l 589 465 q 527 414 563 432 q 450 396 492 396 q 377 406 408 396 q 306 436 346 417 z "}," ":{"ha":236,"x_min":0,"x_max":0,"o":""},"¡":{"ha":332,"x_min":-37,"x_max":315,"o":"m -37 -256 l 138 458 l 240 458 l 108 -256 l -37 -256 m 214 574 q 169 591 186 574 q 153 639 153 608 q 181 724 153 690 q 249 757 210 757 q 298 740 281 757 q 315 692 315 724 q 290 610 315 646 q 214 574 264 574 z "},"¢":{"ha":561,"x_min":88,"x_max":553,"o":"m 214 126 q 118 197 149 142 q 88 353 88 253 q 98 481 88 413 q 131 617 108 550 q 187 743 153 685 q 268 841 221 801 q 376 892 315 881 l 400 1006 l 482 1006 l 458 893 q 511 881 488 889 q 553 860 535 872 l 503 756 q 462 776 485 768 q 421 785 439 785 q 333 744 371 785 q 269 638 296 703 q 228 499 242 572 q 215 360 215 425 q 237 260 215 290 q 299 229 258 229 q 353 239 326 229 q 404 264 379 249 l 435 169 q 366 137 406 149 q 294 122 326 125 l 265 -14 l 183 -14 l 214 126 z "},"£":{"ha":561,"x_min":-31,"x_max":618,"o":"m -7 107 q 49 149 25 124 q 91 211 74 174 q 119 300 108 249 l 150 449 l 60 449 l 82 550 l 171 550 l 217 767 q 263 894 233 840 q 339 976 292 947 q 454 1006 386 1006 q 542 992 501 1006 q 618 950 583 978 l 560 846 q 510 878 536 867 q 454 889 483 889 q 380 853 406 889 q 339 746 354 818 l 297 550 l 453 550 l 432 449 l 276 449 l 244 301 q 201 187 231 232 q 131 115 172 142 l 450 115 l 426 0 l -31 0 l -7 107 z "},"¤":{"ha":697,"x_min":67,"x_max":664,"o":"m 514 279 q 442 244 481 257 q 365 232 404 232 q 285 244 324 232 q 214 281 247 257 l 126 193 l 68 254 l 156 342 q 119 413 131 375 q 107 490 107 450 q 119 567 107 529 q 156 639 131 604 l 67 728 l 126 789 l 215 700 q 288 737 250 725 q 365 749 326 749 q 442 737 404 749 q 514 700 481 725 l 603 789 l 664 729 l 575 640 q 611 569 599 607 q 624 490 624 532 q 612 411 624 449 q 575 339 600 374 l 663 251 l 604 192 l 514 279 m 364 319 q 452 343 414 319 q 514 406 490 367 q 538 490 538 444 q 515 576 539 538 q 451 638 490 614 q 365 663 413 663 q 279 639 318 663 q 217 577 240 615 q 193 490 193 539 q 217 404 193 443 q 278 342 240 365 q 364 319 317 319 z "},"¥":{"ha":557,"x_min":22,"x_max":635,"o":"m 124 0 l 163 178 l 22 178 l 40 267 l 181 267 l 204 381 l 65 381 l 85 469 l 204 469 l 160 992 l 289 992 l 307 565 l 503 992 l 635 992 l 371 469 l 493 469 l 474 381 l 332 381 l 307 267 l 450 267 l 432 178 l 289 178 l 250 0 l 124 0 z "},"¦":{"ha":514,"x_min":199,"x_max":310,"o":"m 199 532 l 199 1061 l 310 1061 l 310 532 l 199 532 m 199 -328 l 199 201 l 310 201 l 310 -328 l 199 -328 z "},"§":{"ha":500,"x_min":1,"x_max":546,"o":"m 165 32 q 72 43 115 32 q 1 72 29 54 l 1 181 q 80 138 38 151 q 158 125 122 125 q 245 158 211 125 q 279 243 279 190 q 269 285 279 267 q 240 322 258 304 q 196 357 221 339 q 136 405 164 379 q 92 463 108 431 q 76 535 76 494 q 92 613 76 579 q 138 674 108 647 q 210 722 168 701 q 167 784 181 751 q 154 858 154 817 q 180 955 154 911 q 254 1026 206 999 q 368 1056 303 1054 q 465 1043 421 1056 q 546 1006 510 1031 l 496 919 q 436 953 468 942 q 372 964 404 964 q 319 952 343 964 q 281 917 296 940 q 267 863 267 894 q 289 802 267 826 q 347 751 311 778 q 417 695 390 722 q 455 641 443 668 q 467 582 467 614 q 452 503 467 539 q 410 438 438 467 q 343 381 383 408 q 379 326 365 357 q 393 253 393 294 q 365 140 393 190 q 285 61 336 90 q 165 32 233 32 m 288 429 q 337 485 319 453 q 354 556 354 518 q 347 599 354 581 q 320 636 339 618 q 269 678 301 654 q 224 648 243 665 q 197 608 206 631 q 188 558 188 585 q 199 514 188 535 q 232 472 210 493 q 288 429 254 451 z "},"¨":{"ha":644,"x_min":232,"x_max":581,"o":"m 501 872 q 461 886 475 872 q 447 928 447 900 q 469 996 447 967 q 529 1025 490 1025 q 567 1012 554 1025 q 581 972 581 999 q 558 901 581 929 q 501 872 535 872 m 285 872 q 246 886 260 872 q 232 928 232 900 q 253 996 232 967 q 314 1025 275 1025 q 340 1019 329 1025 q 358 1001 351 1013 q 364 972 364 990 q 342 901 364 929 q 285 872 319 872 z "},"©":{"ha":1151,"x_min":64,"x_max":1088,"o":"m 574 -14 q 363 26 457 -14 q 203 136 269 65 q 100 299 136 207 q 64 496 64 390 q 103 703 64 610 q 213 864 143 796 q 376 969 283 932 q 576 1006 469 1006 q 783 967 689 1006 q 944 858 876 928 q 1050 696 1013 789 q 1088 494 1088 603 q 1049 290 1088 383 q 940 129 1010 197 q 778 24 871 61 q 574 -14 685 -14 m 596 185 q 390 265 464 185 q 317 493 317 346 q 351 660 317 590 q 449 767 385 729 q 600 806 513 806 q 693 795 647 806 q 782 764 739 785 l 742 678 q 672 703 707 696 q 606 711 638 711 q 478 656 525 711 q 431 496 431 601 q 474 332 431 385 q 604 279 518 279 q 678 288 640 279 q 756 315 717 297 l 756 219 q 678 194 718 203 q 596 185 638 185 m 576 65 q 749 98 671 65 q 883 189 826 131 q 969 325 939 247 q 1000 494 1000 403 q 968 669 1000 589 q 878 806 936 749 q 744 894 821 863 q 575 926 667 926 q 402 894 481 926 q 267 802 324 861 q 181 665 211 743 q 150 494 150 586 q 182 319 150 399 q 272 183 214 240 q 408 96 331 126 q 576 65 486 65 z "},"ª":{"ha":388,"x_min":90,"x_max":483,"o":"m 208 528 q 153 542 181 528 q 108 592 126 557 q 90 689 90 628 q 104 799 90 744 q 144 900 118 854 q 210 974 171 946 q 300 1001 249 1001 q 360 982 340 1001 q 392 935 381 963 l 396 935 l 419 993 l 483 993 l 388 536 l 318 536 l 326 600 l 322 600 q 276 548 303 568 q 208 528 249 528 m 232 606 q 275 621 256 606 q 308 661 294 636 q 331 717 322 686 q 345 776 340 747 q 350 829 350 806 q 337 900 350 876 q 294 924 324 924 q 249 903 269 924 q 215 850 229 883 q 192 776 200 817 q 183 696 183 736 q 197 627 183 649 q 232 606 210 606 z "},"«":{"ha":607,"x_min":35,"x_max":611,"o":"m 168 78 l 35 361 l 38 379 l 271 657 l 356 603 l 168 367 l 265 121 l 168 78 m 424 78 l 289 361 l 292 379 l 525 657 l 611 603 l 424 367 l 521 121 l 424 78 z "},"¬":{"ha":615,"x_min":57,"x_max":575,"o":"m 575 546 l 575 165 l 463 165 l 463 435 l 57 435 l 57 546 l 575 546 z "},"­":{"ha":371,"x_min":19,"x_max":344,"o":"m 19 314 l 44 435 l 344 435 l 319 314 l 19 314 z "},"®":{"ha":1151,"x_min":64,"x_max":1088,"o":"m 385 203 l 385 799 l 554 799 q 720 755 663 799 q 778 622 778 711 q 753 523 778 563 q 679 460 729 483 l 813 203 l 690 203 l 579 436 l 496 436 l 496 203 l 385 203 m 549 519 q 631 543 601 519 q 661 618 661 567 q 634 687 661 665 q 549 708 607 708 l 496 708 l 496 519 l 549 519 m 574 -14 q 363 26 457 -14 q 203 136 269 65 q 100 299 136 207 q 64 496 64 390 q 103 703 64 610 q 213 864 143 796 q 376 969 283 932 q 576 1006 469 1006 q 783 967 689 1006 q 944 858 876 928 q 1050 696 1013 789 q 1088 494 1088 603 q 1049 290 1088 383 q 940 129 1010 197 q 778 24 871 61 q 574 -14 685 -14 m 576 65 q 749 98 671 65 q 883 189 826 131 q 969 325 939 247 q 1000 494 1000 403 q 968 669 1000 589 q 878 806 936 749 q 744 894 821 863 q 575 926 667 926 q 402 894 481 926 q 267 802 324 861 q 181 665 211 743 q 150 494 150 586 q 182 319 150 399 q 272 183 214 240 q 408 96 331 126 q 576 65 486 65 z "},"¯":{"ha":563,"x_min":129,"x_max":721,"o":"m 129 1056 l 151 1153 l 721 1153 l 700 1056 l 129 1056 z "},"°":{"ha":506,"x_min":57,"x_max":449,"o":"m 251 622 q 151 646 196 622 q 82 713 107 669 q 57 814 57 756 q 83 915 57 872 q 153 981 108 958 q 251 1004 197 1004 q 353 981 310 1004 q 423 914 397 957 q 449 814 449 871 q 423 712 449 756 q 353 645 397 668 q 251 622 308 622 m 253 706 q 330 735 301 706 q 358 814 358 764 q 331 892 358 863 q 253 922 303 922 q 174 891 201 922 q 147 814 147 860 q 176 735 147 764 q 253 706 206 706 z "},"±":{"ha":615,"x_min":57,"x_max":585,"o":"m 57 0 l 57 110 l 585 110 l 585 0 l 57 0 m 376 581 l 583 581 l 583 471 l 376 471 l 376 199 l 265 199 l 265 471 l 57 471 l 57 581 l 265 581 l 265 854 l 376 854 l 376 581 z "},"²":{"ha":396,"x_min":57,"x_max":458,"o":"m 57 578 l 72 661 l 236 840 q 299 913 272 879 q 340 978 325 946 q 356 1042 356 1010 q 340 1087 356 1071 q 299 1103 325 1103 q 246 1087 272 1103 q 196 1050 219 1071 l 161 1119 q 237 1170 194 1153 q 325 1188 279 1188 q 398 1172 368 1188 q 443 1126 428 1156 q 458 1057 458 1096 q 437 963 458 1007 q 381 877 415 918 q 308 799 346 836 l 181 665 l 389 665 l 369 578 l 57 578 z "},"³":{"ha":396,"x_min":68,"x_max":457,"o":"m 197 567 q 124 576 156 567 q 68 600 92 585 l 68 696 q 125 665 93 676 q 199 653 157 653 q 280 684 250 653 q 310 764 310 715 q 288 824 310 804 q 229 844 267 844 l 182 844 l 197 924 l 240 924 q 305 939 279 924 q 344 980 331 954 q 357 1038 357 1006 q 342 1085 357 1068 q 297 1101 326 1101 q 245 1090 269 1101 q 194 1060 221 1079 l 157 1128 q 232 1172 192 1157 q 317 1188 272 1188 q 396 1170 365 1188 q 442 1123 426 1153 q 457 1054 457 1093 q 426 953 457 996 q 336 890 394 911 l 335 885 q 387 842 367 871 q 407 764 407 813 q 381 660 407 704 q 308 591 356 615 q 197 567 261 567 z "},"´":{"ha":367,"x_min":156,"x_max":456,"o":"m 158 854 q 216 928 189 892 q 267 998 243 964 q 308 1064 290 1032 l 456 1064 l 454 1053 q 413 1003 440 1033 q 352 943 385 974 q 290 885 319 913 q 242 842 261 857 l 156 842 l 158 854 z "},"μ":{"ha":624,"x_min":-71,"x_max":590,"o":"m -71 -325 l 158 749 l 282 749 l 183 282 q 168 183 171 225 q 177 120 165 142 q 219 99 189 99 q 290 128 260 99 q 342 213 319 157 q 382 353 365 269 l 467 749 l 590 749 l 474 194 q 472 124 464 147 q 504 100 481 100 q 526 102 515 100 q 546 107 536 104 l 524 0 q 506 -6 518 -3 q 479 -12 493 -10 q 456 -14 465 -14 q 389 -4 413 -14 q 354 29 365 6 q 340 93 343 53 l 336 93 q 308 47 322 67 q 278 14 293 28 q 247 -7 264 0 q 211 -14 231 -14 q 159 2 178 -14 q 132 53 140 18 l 128 53 q 121 4 125 28 q 112 -42 117 -19 q 103 -87 107 -65 l 51 -325 l -71 -325 z "},"¶":{"ha":651,"x_min":111,"x_max":582,"o":"m 328 421 q 308 415 319 417 q 282 413 297 413 q 199 440 232 413 q 147 513 167 467 q 119 617 128 560 q 111 735 111 675 q 124 862 111 803 q 162 964 136 921 q 226 1031 188 1007 q 319 1056 265 1056 l 582 1056 l 582 -176 l 500 -176 l 500 978 l 411 978 l 411 -176 l 329 -176 l 328 421 z "},"·":{"ha":297,"x_min":86,"x_max":249,"o":"m 151 397 q 103 414 121 397 q 86 463 86 431 q 112 546 86 510 q 186 582 138 582 q 232 564 215 582 q 249 517 249 546 q 220 431 249 465 q 151 397 192 397 z "},"¸":{"ha":251,"x_min":-115,"x_max":153,"o":"m -24 -333 q -71 -331 -47 -333 q -115 -322 -94 -329 l -115 -244 q -83 -251 -103 -249 q -39 -254 -64 -254 q 9 -245 -11 -254 q 40 -219 29 -236 q 51 -179 51 -201 q 28 -133 51 -150 q -40 -111 6 -117 l 29 0 l 103 0 l 57 -67 q 127 -103 101 -76 q 153 -174 153 -131 q 130 -262 153 -226 q 67 -315 107 -297 q -24 -333 26 -333 z "},"¹":{"ha":396,"x_min":153,"x_max":432,"o":"m 294 986 q 303 1022 299 1007 q 313 1054 307 1038 q 291 1035 300 1043 q 275 1022 282 1028 l 193 964 l 153 1028 l 344 1172 l 432 1172 l 304 578 l 206 578 l 294 986 z "},"º":{"ha":394,"x_min":94,"x_max":443,"o":"m 229 526 q 128 570 161 526 q 94 692 94 614 q 108 801 94 746 q 148 901 121 856 q 215 975 175 947 q 308 1003 256 1003 q 405 964 367 1003 q 443 840 443 925 q 429 731 443 786 q 389 628 415 675 q 322 554 363 582 q 229 526 282 526 m 242 607 q 291 628 271 607 q 324 683 311 650 q 344 756 338 717 q 350 832 350 794 q 338 899 350 875 q 296 922 325 922 q 248 901 268 922 q 215 847 228 881 q 194 774 201 814 q 188 697 188 735 q 201 628 188 650 q 242 607 214 607 z "},"»":{"ha":608,"x_min":-10,"x_max":567,"o":"m 332 78 l 246 133 l 433 369 l 335 614 l 433 657 l 567 374 l 564 357 l 332 78 m 75 78 l -10 133 l 176 369 l 81 614 l 178 657 l 310 374 l 308 357 l 75 78 z "},"¼":{"ha":933,"x_min":74,"x_max":897,"o":"m 74 0 l 793 992 l 897 992 l 179 0 l 74 0 m 265 806 q 274 842 269 826 q 283 874 278 857 q 262 855 271 863 q 246 842 253 847 l 164 783 l 124 847 l 315 992 l 403 992 l 275 397 l 176 397 l 265 806 m 664 0 l 690 125 l 489 125 l 501 197 l 785 599 l 888 599 l 803 207 l 868 207 l 850 125 l 788 125 l 760 0 l 664 0 m 592 207 l 707 207 l 743 376 q 755 425 750 403 q 765 467 760 447 q 749 440 757 453 q 733 413 740 426 q 714 383 725 399 l 592 207 z "},"½":{"ha":985,"x_min":65,"x_max":932,"o":"m 64 0 l 783 992 l 888 992 l 169 0 l 64 0 m 265 806 q 274 842 269 826 q 283 874 278 857 q 262 855 271 863 q 246 842 253 847 l 164 783 l 124 847 l 315 992 l 403 992 l 275 397 l 176 397 l 265 806 m 529 0 l 544 83 l 708 263 q 771 335 744 301 q 813 400 797 368 q 828 464 828 432 q 813 509 828 493 q 771 525 797 525 q 718 509 744 525 q 668 472 692 493 l 633 542 q 709 592 667 575 q 797 610 751 610 q 870 594 840 610 q 915 548 900 578 q 931 479 931 518 q 909 385 931 429 q 853 299 888 340 q 781 221 818 258 l 653 88 l 861 88 l 842 0 l 529 0 z "},"¾":{"ha":940,"x_min":39,"x_max":914,"o":"m 167 386 q 93 395 125 386 q 38 419 61 404 l 38 515 q 94 484 63 496 q 168 472 126 472 q 249 503 219 472 q 279 583 279 535 q 258 644 279 624 q 199 664 236 664 l 151 664 l 167 743 l 210 743 q 274 758 249 743 q 313 799 300 774 q 326 857 326 825 q 311 904 326 888 q 267 921 296 921 q 215 910 239 921 q 164 879 190 899 l 126 947 q 201 992 161 976 q 286 1007 242 1007 q 365 990 335 1007 q 411 942 396 972 q 426 874 426 913 q 395 773 426 815 q 306 710 364 731 l 304 704 q 356 661 336 690 q 376 583 376 632 q 351 479 376 524 q 278 410 325 435 q 167 386 231 386 m 90 0 l 810 992 l 914 992 l 196 0 l 90 0 m 672 0 l 699 125 l 497 125 l 510 197 l 793 599 l 896 599 l 811 207 l 876 207 l 858 125 l 796 125 l 768 0 l 672 0 m 600 207 l 715 207 l 751 376 q 763 425 758 403 q 774 467 768 447 q 757 440 765 453 q 741 413 749 426 q 722 383 733 399 l 600 207 z "},"¿":{"ha":418,"x_min":-65,"x_max":392,"o":"m 322 454 q 293 341 308 388 q 256 258 278 294 q 199 179 233 221 q 128 97 160 133 q 78 23 96 61 q 61 -68 61 -15 q 81 -130 61 -110 q 138 -150 101 -150 q 208 -133 175 -150 q 272 -96 242 -117 l 297 -194 q 203 -247 251 -229 q 108 -264 156 -264 q -20 -219 25 -264 q -65 -96 -65 -175 q -44 19 -65 -33 q 13 118 -22 71 q 92 211 49 165 q 157 289 133 256 q 195 360 181 322 q 219 454 210 399 l 322 454 m 324 754 q 374 738 356 754 q 392 689 392 721 q 365 606 392 642 q 289 569 339 569 q 244 588 261 569 q 228 635 228 606 q 256 720 228 686 q 324 754 285 754 z "},"À":{"ha":588,"x_min":-89,"x_max":503,"o":"m -89 0 l 328 996 l 493 996 l 499 0 l 364 0 l 365 297 l 172 297 l 53 0 l -89 0 m 217 414 l 371 414 l 378 749 q 379 812 378 782 q 383 869 381 842 l 379 869 q 365 814 374 843 q 343 749 356 785 l 217 414 m 418 1100 q 376 1163 400 1125 q 329 1241 351 1201 q 297 1310 307 1281 l 297 1321 l 440 1321 q 457 1256 449 1290 q 477 1188 465 1222 q 503 1115 489 1153 l 501 1100 l 418 1100 z "},"Á":{"ha":588,"x_min":-89,"x_max":649,"o":"m -89 0 l 328 996 l 493 996 l 499 0 l 364 0 l 365 297 l 172 297 l 53 0 l -89 0 m 217 414 l 371 414 l 378 749 q 379 812 378 782 q 383 869 381 842 l 379 869 q 365 814 374 843 q 343 749 356 785 l 217 414 m 351 1111 q 409 1185 382 1149 q 460 1255 436 1221 q 501 1321 483 1289 l 649 1321 l 647 1310 q 606 1260 633 1290 q 545 1200 578 1231 q 483 1142 513 1169 q 435 1099 454 1114 l 349 1099 l 351 1111 z "},"Â":{"ha":588,"x_min":-89,"x_max":599,"o":"m -89 0 l 328 996 l 493 996 l 499 0 l 364 0 l 365 297 l 172 297 l 53 0 l -89 0 m 217 414 l 371 414 l 378 749 q 379 812 378 782 q 383 869 381 842 l 379 869 q 365 814 374 843 q 343 749 356 785 l 217 414 m 247 1113 q 308 1182 278 1147 q 363 1252 338 1217 q 411 1321 389 1288 l 524 1321 q 542 1256 529 1296 q 572 1178 556 1217 q 599 1114 588 1139 l 596 1099 l 524 1099 q 499 1135 511 1115 q 473 1176 486 1154 q 447 1222 460 1199 q 380 1153 413 1185 q 319 1099 347 1121 l 244 1099 l 247 1113 z "},"Ã":{"ha":588,"x_min":-89,"x_max":657,"o":"m -89 0 l 328 996 l 493 996 l 499 0 l 364 0 l 365 297 l 172 297 l 53 0 l -89 0 m 217 414 l 371 414 l 378 749 q 379 812 378 782 q 383 869 381 842 l 379 869 q 365 814 374 843 q 343 749 356 785 l 217 414 m 229 1100 q 259 1198 242 1157 q 303 1261 276 1239 q 369 1283 331 1283 q 420 1271 399 1283 q 458 1243 442 1258 q 491 1216 475 1228 q 524 1204 507 1204 q 557 1222 544 1204 q 581 1285 569 1239 l 657 1285 q 625 1177 646 1217 q 578 1119 604 1138 q 522 1101 551 1101 q 473 1114 494 1101 q 434 1142 451 1126 q 401 1170 417 1158 q 367 1182 385 1182 q 330 1162 344 1182 q 306 1100 315 1142 l 229 1100 z "},"Ä":{"ha":588,"x_min":-89,"x_max":615,"o":"m -89 0 l 328 996 l 493 996 l 499 0 l 364 0 l 365 297 l 172 297 l 53 0 l -89 0 m 217 414 l 371 414 l 378 749 q 379 812 378 782 q 383 869 381 842 l 379 869 q 365 814 374 843 q 343 749 356 785 l 217 414 m 536 1129 q 496 1143 510 1129 q 482 1185 482 1157 q 503 1253 482 1224 q 564 1282 525 1282 q 602 1269 589 1282 q 615 1229 615 1256 q 592 1158 615 1186 q 536 1129 569 1129 m 319 1129 q 281 1143 294 1129 q 267 1185 267 1157 q 288 1253 267 1224 q 349 1282 310 1282 q 375 1276 364 1282 q 392 1258 386 1269 q 399 1229 399 1247 q 376 1158 399 1186 q 319 1129 354 1129 z "},"Å":{"ha":588,"x_min":-89,"x_max":585,"o":"m -89 0 l 328 996 l 493 996 l 499 0 l 364 0 l 365 297 l 172 297 l 53 0 l -89 0 m 217 414 l 371 414 l 378 749 q 379 812 378 782 q 383 869 381 842 l 379 869 q 365 814 374 843 q 343 749 356 785 l 217 414 m 439 1081 q 331 1119 369 1081 q 293 1225 293 1158 q 333 1328 293 1289 q 439 1367 372 1367 q 544 1328 504 1367 q 583 1228 583 1289 q 545 1122 583 1163 q 439 1081 507 1081 m 440 1150 q 493 1171 474 1150 q 513 1225 513 1192 q 494 1278 513 1257 q 440 1299 475 1299 q 385 1278 406 1299 q 365 1225 365 1257 q 384 1171 365 1192 q 440 1150 403 1150 z "},"Æ":{"ha":799,"x_min":-92,"x_max":863,"o":"m -92 0 l 382 992 l 863 992 l 838 876 l 593 876 l 531 575 l 758 575 l 733 460 l 506 460 l 432 115 l 676 115 l 653 0 l 279 0 l 343 297 l 185 297 l 46 0 l -92 0 m 238 415 l 368 415 l 465 875 l 449 875 l 238 415 z "},"Ç":{"ha":554,"x_min":50,"x_max":654,"o":"m 276 -14 q 151 23 201 -14 q 76 131 101 60 q 50 306 50 201 q 67 487 50 390 q 119 675 85 583 q 205 842 153 767 q 326 962 257 917 q 482 1007 396 1007 q 576 994 532 1007 q 654 954 619 982 l 589 849 q 538 880 564 869 q 482 890 511 890 q 373 849 421 890 q 290 740 325 807 q 231 594 254 672 q 196 443 207 517 q 185 315 185 369 q 215 153 185 204 q 308 103 244 103 q 376 113 342 103 q 447 139 411 124 l 447 21 q 362 -6 406 3 q 276 -14 318 -14 m 174 -333 q 126 -331 150 -333 q 82 -322 103 -329 l 82 -244 q 114 -251 94 -249 q 158 -254 133 -254 q 206 -245 186 -254 q 238 -219 226 -236 q 249 -179 249 -201 q 226 -133 249 -150 q 157 -111 203 -117 l 226 0 l 300 0 l 254 -67 q 324 -103 299 -76 q 350 -174 350 -131 q 327 -262 350 -226 q 264 -315 304 -297 q 174 -333 224 -333 z "},"È":{"ha":519,"x_min":-1,"x_max":582,"o":"m -1 0 l 208 992 l 582 992 l 558 876 l 314 876 l 251 575 l 478 575 l 453 460 l 226 460 l 153 115 l 397 115 l 372 0 l -1 0 m 389 1090 q 347 1153 371 1115 q 300 1231 322 1192 q 268 1300 278 1271 l 268 1311 l 411 1311 q 428 1247 419 1281 q 448 1178 436 1213 q 474 1106 460 1143 l 472 1090 l 389 1090 z "},"É":{"ha":519,"x_min":-1,"x_max":622,"o":"m -1 0 l 208 992 l 582 992 l 558 876 l 314 876 l 251 575 l 478 575 l 453 460 l 226 460 l 153 115 l 397 115 l 372 0 l -1 0 m 324 1101 q 381 1175 354 1139 q 432 1245 408 1211 q 474 1311 456 1279 l 621 1311 l 619 1300 q 578 1251 606 1281 q 517 1190 550 1221 q 456 1132 485 1160 q 407 1089 426 1104 l 321 1089 l 324 1101 z "},"Ê":{"ha":519,"x_min":-1,"x_max":585,"o":"m -1 0 l 208 992 l 582 992 l 558 876 l 314 876 l 251 575 l 478 575 l 453 460 l 226 460 l 153 115 l 397 115 l 372 0 l -1 0 m 233 1085 q 294 1154 264 1119 q 349 1224 324 1189 q 397 1293 375 1260 l 510 1293 q 528 1228 515 1268 q 558 1150 542 1189 q 585 1086 574 1111 l 582 1071 l 510 1071 q 485 1107 497 1088 q 459 1149 472 1126 q 433 1194 446 1171 q 366 1125 399 1157 q 306 1071 333 1093 l 231 1071 l 233 1085 z "},"Ë":{"ha":519,"x_min":-1,"x_max":593,"o":"m -1 0 l 208 992 l 582 992 l 558 876 l 314 876 l 251 575 l 478 575 l 453 460 l 226 460 l 153 115 l 397 115 l 372 0 l -1 0 m 514 1101 q 474 1115 488 1101 q 460 1157 460 1129 q 481 1225 460 1196 q 542 1254 503 1254 q 580 1241 567 1254 q 593 1201 593 1228 q 570 1130 593 1158 q 514 1101 547 1101 m 297 1101 q 258 1115 272 1101 q 244 1157 244 1129 q 266 1225 244 1196 q 326 1254 288 1254 q 353 1248 342 1254 q 370 1231 364 1242 q 376 1201 376 1219 q 354 1130 376 1158 q 297 1101 332 1101 z "},"Ì":{"ha":385,"x_min":-68,"x_max":485,"o":"m -68 0 l -51 71 l 60 99 l 228 893 l 128 921 l 142 992 l 485 992 l 469 921 l 357 893 l 189 99 l 289 71 l 275 0 l -68 0 m 319 1099 q 277 1162 301 1124 q 231 1240 253 1200 q 199 1308 208 1279 l 199 1319 l 342 1319 q 358 1255 350 1289 q 378 1186 367 1221 q 404 1114 390 1151 l 403 1099 l 319 1099 z "},"Í":{"ha":385,"x_min":-68,"x_max":550,"o":"m -68 0 l -51 71 l 60 99 l 228 893 l 128 921 l 142 992 l 485 992 l 469 921 l 357 893 l 189 99 l 289 71 l 275 0 l -68 0 m 253 1110 q 310 1183 283 1147 q 361 1253 338 1219 q 403 1319 385 1288 l 550 1319 l 549 1308 q 507 1259 535 1289 q 447 1199 479 1229 q 385 1140 414 1168 q 336 1097 356 1113 l 250 1097 l 253 1110 z "},"Î":{"ha":385,"x_min":-68,"x_max":510,"o":"m -68 0 l -51 71 l 60 99 l 228 893 l 128 921 l 142 992 l 485 992 l 469 921 l 357 893 l 189 99 l 289 71 l 275 0 l -68 0 m 158 1114 q 219 1183 189 1149 q 274 1253 249 1218 q 322 1322 300 1289 l 435 1322 q 453 1258 440 1297 q 483 1179 467 1218 q 510 1115 499 1140 l 507 1100 l 435 1100 q 410 1136 422 1117 q 384 1178 397 1156 q 358 1224 371 1200 q 291 1154 324 1186 q 231 1100 258 1122 l 156 1100 l 158 1114 z "},"Ï":{"ha":385,"x_min":-68,"x_max":525,"o":"m -68 0 l -51 71 l 60 99 l 228 893 l 128 921 l 142 992 l 485 992 l 469 921 l 357 893 l 189 99 l 289 71 l 275 0 l -68 0 m 446 1131 q 406 1144 419 1131 q 392 1186 392 1158 q 413 1254 392 1225 q 474 1283 435 1283 q 512 1270 499 1283 q 525 1231 525 1257 q 502 1159 525 1188 q 446 1131 479 1131 m 229 1131 q 190 1144 204 1131 q 176 1186 176 1158 q 198 1254 176 1225 q 258 1283 219 1283 q 285 1277 274 1283 q 302 1260 296 1271 q 308 1231 308 1249 q 286 1159 308 1188 q 229 1131 264 1131 z "},"Ð":{"ha":663,"x_min":-1,"x_max":644,"o":"m 29 464 l 50 567 l 361 567 l 339 464 l 29 464 m -1 0 l 208 992 l 381 992 q 577 916 510 992 q 644 696 644 840 q 628 508 644 604 q 578 321 613 411 q 488 158 543 231 q 356 42 433 85 q 176 0 279 0 l -1 0 m 196 118 q 314 154 263 118 q 401 251 365 190 q 461 386 438 311 q 497 538 485 461 q 508 686 508 615 q 473 829 508 783 q 368 875 438 875 l 314 875 l 153 118 l 196 118 z "},"Ñ":{"ha":732,"x_min":-1,"x_max":768,"o":"m -1 0 l 208 992 l 360 992 l 485 236 l 489 236 q 506 330 497 283 q 522 416 514 376 q 535 482 531 456 l 643 992 l 768 992 l 557 0 l 410 0 l 282 769 l 278 769 q 265 691 272 732 q 251 611 258 650 q 237 541 243 572 q 226 490 231 510 l 122 0 l -1 0 m 296 1072 q 326 1170 308 1129 q 370 1233 343 1211 q 436 1256 397 1256 q 487 1243 465 1256 q 525 1215 508 1231 q 558 1188 542 1200 q 590 1176 574 1176 q 624 1194 611 1176 q 647 1257 636 1211 l 724 1257 q 692 1149 713 1189 q 644 1092 671 1110 q 589 1074 618 1074 q 540 1086 561 1074 q 501 1115 518 1099 q 467 1142 483 1131 q 433 1154 451 1154 q 397 1134 411 1154 q 372 1072 382 1114 l 296 1072 z "},"Ò":{"ha":706,"x_min":49,"x_max":688,"o":"m 276 -14 q 149 18 200 -14 q 74 117 99 50 q 49 285 49 183 q 60 442 49 360 q 94 606 72 525 q 152 758 117 686 q 233 886 188 831 q 337 974 279 942 q 463 1006 394 1006 q 633 934 578 1006 q 688 717 688 863 q 678 573 688 651 q 647 412 668 494 q 592 253 625 329 q 514 117 560 178 q 409 22 468 57 q 276 -14 350 -14 m 286 104 q 368 134 331 104 q 435 215 406 164 q 488 331 465 267 q 525 465 510 396 q 547 600 540 535 q 554 719 554 665 q 529 849 554 807 q 453 890 504 890 q 366 858 404 890 q 297 772 328 826 q 246 652 267 718 q 211 518 225 586 q 190 389 197 450 q 183 283 183 328 q 195 178 183 218 q 230 122 207 139 q 286 104 253 104 m 478 1090 q 435 1153 460 1115 q 389 1231 411 1192 q 357 1300 367 1271 l 357 1311 l 500 1311 q 517 1247 508 1281 q 537 1178 525 1213 q 563 1106 549 1143 l 561 1090 l 478 1090 z "},"Ó":{"ha":706,"x_min":49,"x_max":711,"o":"m 276 -14 q 149 18 200 -14 q 74 117 99 50 q 49 285 49 183 q 60 442 49 360 q 94 606 72 525 q 152 758 117 686 q 233 886 188 831 q 337 974 279 942 q 463 1006 394 1006 q 633 934 578 1006 q 688 717 688 863 q 678 573 688 651 q 647 412 668 494 q 592 253 625 329 q 514 117 560 178 q 409 22 468 57 q 276 -14 350 -14 m 286 104 q 368 134 331 104 q 435 215 406 164 q 488 331 465 267 q 525 465 510 396 q 547 600 540 535 q 554 719 554 665 q 529 849 554 807 q 453 890 504 890 q 366 858 404 890 q 297 772 328 826 q 246 652 267 718 q 211 518 225 586 q 190 389 197 450 q 183 283 183 328 q 195 178 183 218 q 230 122 207 139 q 286 104 253 104 m 414 1101 q 472 1175 444 1139 q 522 1245 499 1211 q 564 1311 546 1279 l 711 1311 l 710 1300 q 668 1251 696 1281 q 608 1190 640 1221 q 546 1132 575 1160 q 497 1089 517 1104 l 411 1089 l 414 1101 z "},"Ô":{"ha":706,"x_min":49,"x_max":688,"o":"m 276 -14 q 149 18 200 -14 q 74 117 99 50 q 49 285 49 183 q 60 442 49 360 q 94 606 72 525 q 152 758 117 686 q 233 886 188 831 q 337 974 279 942 q 463 1006 394 1006 q 633 934 578 1006 q 688 717 688 863 q 678 573 688 651 q 647 412 668 494 q 592 253 625 329 q 514 117 560 178 q 409 22 468 57 q 276 -14 350 -14 m 286 104 q 368 134 331 104 q 435 215 406 164 q 488 331 465 267 q 525 465 510 396 q 547 600 540 535 q 554 719 554 665 q 529 849 554 807 q 453 890 504 890 q 366 858 404 890 q 297 772 328 826 q 246 652 267 718 q 211 518 225 586 q 190 389 197 450 q 183 283 183 328 q 195 178 183 218 q 230 122 207 139 q 286 104 253 104 m 296 1085 q 356 1154 326 1119 q 412 1224 386 1189 q 460 1293 438 1260 l 572 1293 q 591 1228 578 1268 q 620 1150 604 1189 q 647 1086 636 1111 l 644 1071 l 572 1071 q 547 1107 560 1088 q 522 1149 535 1126 q 496 1194 508 1171 q 428 1125 461 1157 q 368 1071 396 1093 l 293 1071 l 296 1085 z "},"Õ":{"ha":706,"x_min":49,"x_max":710,"o":"m 276 -14 q 149 18 200 -14 q 74 117 99 50 q 49 285 49 183 q 60 442 49 360 q 94 606 72 525 q 152 758 117 686 q 233 886 188 831 q 337 974 279 942 q 463 1006 394 1006 q 633 934 578 1006 q 688 717 688 863 q 678 573 688 651 q 647 412 668 494 q 592 253 625 329 q 514 117 560 178 q 409 22 468 57 q 276 -14 350 -14 m 286 104 q 368 134 331 104 q 435 215 406 164 q 488 331 465 267 q 525 465 510 396 q 547 600 540 535 q 554 719 554 665 q 529 849 554 807 q 453 890 504 890 q 366 858 404 890 q 297 772 328 826 q 246 652 267 718 q 211 518 225 586 q 190 389 197 450 q 183 283 183 328 q 195 178 183 218 q 230 122 207 139 q 286 104 253 104 m 282 1072 q 312 1170 294 1129 q 356 1233 329 1211 q 422 1256 383 1256 q 473 1243 451 1256 q 511 1215 494 1231 q 544 1188 528 1200 q 576 1176 560 1176 q 610 1194 597 1176 q 633 1257 622 1211 l 710 1257 q 678 1149 699 1189 q 631 1092 657 1110 q 575 1074 604 1074 q 526 1086 547 1074 q 487 1115 504 1099 q 453 1142 469 1131 q 419 1154 438 1154 q 383 1134 397 1154 q 358 1072 368 1114 l 282 1072 z "},"Ö":{"ha":706,"x_min":49,"x_max":703,"o":"m 276 -14 q 149 18 200 -14 q 74 117 99 50 q 49 285 49 183 q 60 442 49 360 q 94 606 72 525 q 152 758 117 686 q 233 886 188 831 q 337 974 279 942 q 463 1006 394 1006 q 633 934 578 1006 q 688 717 688 863 q 678 573 688 651 q 647 412 668 494 q 592 253 625 329 q 514 117 560 178 q 409 22 468 57 q 276 -14 350 -14 m 286 104 q 368 134 331 104 q 435 215 406 164 q 488 331 465 267 q 525 465 510 396 q 547 600 540 535 q 554 719 554 665 q 529 849 554 807 q 453 890 504 890 q 366 858 404 890 q 297 772 328 826 q 246 652 267 718 q 211 518 225 586 q 190 389 197 450 q 183 283 183 328 q 195 178 183 218 q 230 122 207 139 q 286 104 253 104 m 625 1129 q 585 1143 599 1129 q 571 1185 571 1157 q 592 1253 571 1224 q 653 1282 614 1282 q 691 1269 678 1282 q 704 1229 704 1256 q 681 1158 704 1186 q 625 1129 658 1129 m 408 1129 q 369 1143 383 1129 q 356 1185 356 1157 q 377 1253 356 1224 q 438 1282 399 1282 q 464 1276 453 1282 q 481 1258 475 1269 q 488 1229 488 1247 q 465 1158 488 1186 q 408 1129 443 1129 z "},"×":{"ha":615,"x_min":60,"x_max":585,"o":"m 507 753 l 585 678 l 397 490 l 581 304 l 506 229 l 319 414 l 133 229 l 60 306 l 243 490 l 60 675 l 135 751 l 319 567 l 507 753 z "},"Ø":{"ha":706,"x_min":-8,"x_max":747,"o":"m 57 -68 l -8 -31 l 79 110 q 56 186 64 142 q 49 285 49 231 q 60 442 49 360 q 94 606 72 525 q 152 758 117 686 q 233 886 188 831 q 337 974 279 942 q 464 1006 394 1006 q 550 991 513 1006 q 614 946 588 976 l 681 1051 l 747 1011 l 663 878 q 681 806 675 846 q 688 717 688 765 q 678 573 688 651 q 647 412 668 494 q 592 253 625 329 q 514 117 560 178 q 409 22 468 57 q 276 -14 350 -14 q 192 1 229 -14 q 129 43 154 15 l 57 -68 m 286 104 q 363 131 328 104 q 427 202 399 157 q 477 306 456 247 q 514 427 499 364 q 538 552 529 490 q 549 667 547 614 q 551 692 551 681 q 550 714 551 704 l 201 161 q 235 118 214 132 q 286 104 257 104 m 540 826 q 506 875 526 860 q 451 890 485 890 q 370 862 407 890 q 305 785 333 833 q 256 678 276 738 q 220 556 235 618 q 197 435 206 493 q 188 333 189 378 q 185 300 186 315 q 186 269 185 285 l 540 826 z "},"Ù":{"ha":671,"x_min":46,"x_max":711,"o":"m 254 -14 q 142 11 189 -14 q 71 84 96 36 q 46 200 46 132 q 50 256 46 225 q 60 317 54 286 l 204 992 l 333 992 l 189 311 q 181 262 183 286 q 178 217 178 238 q 201 132 178 160 q 271 104 225 104 q 347 126 315 104 q 399 198 378 149 q 438 324 421 247 l 581 992 l 711 992 l 564 310 q 506 137 543 210 q 408 25 468 64 q 254 -14 347 -14 m 460 1090 q 417 1153 442 1115 q 371 1231 393 1192 q 339 1300 349 1271 l 339 1311 l 482 1311 q 499 1247 490 1281 q 519 1178 507 1213 q 544 1106 531 1143 l 543 1090 l 460 1090 z "},"Ú":{"ha":671,"x_min":46,"x_max":711,"o":"m 254 -14 q 142 11 189 -14 q 71 84 96 36 q 46 200 46 132 q 50 256 46 225 q 60 317 54 286 l 204 992 l 333 992 l 189 311 q 181 262 183 286 q 178 217 178 238 q 201 132 178 160 q 271 104 225 104 q 347 126 315 104 q 399 198 378 149 q 438 324 421 247 l 581 992 l 711 992 l 564 310 q 506 137 543 210 q 408 25 468 64 q 254 -14 347 -14 m 399 1101 q 456 1175 429 1139 q 507 1245 483 1211 q 549 1311 531 1279 l 696 1311 l 694 1300 q 653 1251 681 1281 q 592 1190 625 1221 q 531 1132 560 1160 q 482 1089 501 1104 l 396 1089 l 399 1101 z "},"Û":{"ha":671,"x_min":46,"x_max":711,"o":"m 254 -14 q 142 11 189 -14 q 71 84 96 36 q 46 200 46 132 q 50 256 46 225 q 60 317 54 286 l 204 992 l 333 992 l 189 311 q 181 262 183 286 q 178 217 178 238 q 201 132 178 160 q 271 104 225 104 q 347 126 315 104 q 399 198 378 149 q 438 324 421 247 l 581 992 l 711 992 l 564 310 q 506 137 543 210 q 408 25 468 64 q 254 -14 347 -14 m 293 1085 q 353 1154 324 1119 q 409 1224 383 1189 q 457 1293 435 1260 l 569 1293 q 588 1228 575 1268 q 617 1150 601 1189 q 644 1086 633 1111 l 642 1071 l 569 1071 q 544 1107 557 1088 q 519 1149 532 1126 q 493 1194 506 1171 q 426 1125 458 1157 q 365 1071 393 1093 l 290 1071 l 293 1085 z "},"Ü":{"ha":671,"x_min":46,"x_max":711,"o":"m 254 -14 q 142 11 189 -14 q 71 84 96 36 q 46 200 46 132 q 50 256 46 225 q 60 317 54 286 l 204 992 l 333 992 l 189 311 q 181 262 183 286 q 178 217 178 238 q 201 132 178 160 q 271 104 225 104 q 347 126 315 104 q 399 198 378 149 q 438 324 421 247 l 581 992 l 711 992 l 564 310 q 506 137 543 210 q 408 25 468 64 q 254 -14 347 -14 m 607 1129 q 567 1143 581 1129 q 553 1185 553 1157 q 574 1253 553 1224 q 635 1282 596 1282 q 673 1269 660 1282 q 686 1229 686 1256 q 663 1158 686 1186 q 607 1129 640 1129 m 390 1129 q 351 1143 365 1129 q 338 1185 338 1157 q 359 1253 338 1224 q 419 1282 381 1282 q 446 1276 435 1282 q 463 1258 457 1269 q 469 1229 469 1247 q 447 1158 469 1186 q 390 1129 425 1129 z "},"Ý":{"ha":522,"x_min":108,"x_max":644,"o":"m 108 0 l 188 381 l 119 992 l 254 992 l 288 554 l 506 992 l 644 992 l 319 385 l 238 0 l 108 0 m 325 1101 q 383 1175 356 1139 q 433 1245 410 1211 q 475 1311 457 1279 l 622 1311 l 621 1300 q 579 1251 607 1281 q 519 1190 551 1221 q 457 1132 486 1160 q 408 1089 428 1104 l 322 1089 l 325 1101 z "},"Þ":{"ha":574,"x_min":-1,"x_max":569,"o":"m -1 0 l 208 992 l 339 992 l 303 824 l 336 824 q 465 797 414 824 q 543 721 517 769 q 569 606 569 672 q 547 454 569 525 q 482 329 525 383 q 376 243 439 275 q 233 211 314 211 l 172 211 l 129 0 l -1 0 m 235 326 q 345 360 300 326 q 413 451 390 393 q 436 588 436 510 q 406 678 436 649 q 315 708 376 708 l 279 708 l 197 326 l 235 326 z "},"ß":{"ha":601,"x_min":-186,"x_max":606,"o":"m -108 -333 q -149 -331 -131 -333 q -186 -322 -167 -329 l -186 -211 q -156 -218 -174 -215 q -125 -221 -139 -221 q -62 -185 -82 -221 q -25 -71 -42 -149 l 158 794 q 210 940 176 881 q 296 1031 244 1000 q 418 1063 347 1063 q 557 1016 508 1063 q 606 896 606 969 q 595 819 606 854 q 563 751 585 783 q 508 685 540 718 q 445 611 469 644 q 421 533 421 578 q 427 496 421 515 q 444 456 433 476 q 468 411 456 435 q 512 331 494 374 q 529 231 529 289 q 501 103 529 158 q 419 17 472 49 q 293 -14 367 -14 q 220 -5 254 -14 q 161 21 186 4 l 179 140 q 238 107 207 117 q 296 97 268 97 q 373 131 346 97 q 400 218 400 164 q 394 263 400 242 q 376 309 388 285 q 346 363 364 333 q 304 442 318 407 q 290 517 290 478 q 301 581 290 550 q 332 642 311 613 q 382 701 353 672 q 433 758 411 732 q 466 815 454 785 q 478 881 478 844 q 460 934 478 915 q 410 953 442 953 q 353 934 378 953 q 311 878 328 915 q 282 785 294 842 l 96 -81 q 59 -210 81 -153 q -1 -301 38 -268 q -108 -333 -40 -333 z "},"à":{"ha":600,"x_min":32,"x_max":601,"o":"m 181 -14 q 100 11 133 -14 q 49 83 67 36 q 32 197 32 129 q 43 333 32 258 q 78 484 54 408 q 138 623 101 560 q 222 724 174 686 q 333 763 271 763 q 389 751 364 763 q 432 715 414 739 q 458 654 450 690 l 463 654 l 494 749 l 601 749 l 443 0 l 342 0 l 349 104 l 344 104 q 296 41 321 67 q 242 1 271 15 q 181 -14 214 -14 m 225 94 q 301 131 269 94 q 354 224 332 168 q 392 339 376 281 q 415 455 408 406 q 422 547 422 504 q 403 624 422 597 q 350 651 385 651 q 285 622 315 651 q 233 542 256 592 q 194 433 210 493 q 169 315 178 374 q 161 210 161 257 q 177 123 161 151 q 225 94 193 94 m 376 850 q 334 913 358 875 q 288 991 310 951 q 256 1060 265 1031 l 256 1071 l 399 1071 q 415 1006 407 1040 q 435 938 424 972 q 461 865 447 903 l 460 850 l 376 850 z "},"á":{"ha":600,"x_min":32,"x_max":607,"o":"m 181 -14 q 100 11 133 -14 q 49 83 67 36 q 32 197 32 129 q 43 333 32 258 q 78 484 54 408 q 138 623 101 560 q 222 724 174 686 q 333 763 271 763 q 389 751 364 763 q 432 715 414 739 q 458 654 450 690 l 463 654 l 494 749 l 601 749 l 443 0 l 342 0 l 349 104 l 344 104 q 296 41 321 67 q 242 1 271 15 q 181 -14 214 -14 m 225 94 q 301 131 269 94 q 354 224 332 168 q 392 339 376 281 q 415 455 408 406 q 422 547 422 504 q 403 624 422 597 q 350 651 385 651 q 285 622 315 651 q 233 542 256 592 q 194 433 210 493 q 169 315 178 374 q 161 210 161 257 q 177 123 161 151 q 225 94 193 94 m 310 861 q 367 935 340 899 q 418 1005 394 971 q 460 1071 442 1039 l 607 1071 l 606 1060 q 564 1010 592 1040 q 503 950 536 981 q 442 892 471 919 q 393 849 413 864 l 307 849 l 310 861 z "},"â":{"ha":600,"x_min":32,"x_max":601,"o":"m 181 -14 q 100 11 133 -14 q 49 83 67 36 q 32 197 32 129 q 43 333 32 258 q 78 484 54 408 q 138 623 101 560 q 222 724 174 686 q 333 763 271 763 q 389 751 364 763 q 432 715 414 739 q 458 654 450 690 l 463 654 l 494 749 l 601 749 l 443 0 l 342 0 l 349 104 l 344 104 q 296 41 321 67 q 242 1 271 15 q 181 -14 214 -14 m 225 94 q 301 131 269 94 q 354 224 332 168 q 392 339 376 281 q 415 455 408 406 q 422 547 422 504 q 403 624 422 597 q 350 651 385 651 q 285 622 315 651 q 233 542 256 592 q 194 433 210 493 q 169 315 178 374 q 161 210 161 257 q 177 123 161 151 q 225 94 193 94 m 221 860 q 281 929 251 894 q 337 999 311 964 q 385 1068 363 1035 l 497 1068 q 516 1003 503 1043 q 545 925 529 964 q 572 861 561 886 l 569 846 l 497 846 q 472 882 485 863 q 447 924 460 901 q 421 969 433 946 q 353 900 386 932 q 293 846 321 868 l 218 846 l 221 860 z "},"ã":{"ha":600,"x_min":32,"x_max":631,"o":"m 181 -14 q 100 11 133 -14 q 49 83 67 36 q 32 197 32 129 q 43 333 32 258 q 78 484 54 408 q 138 623 101 560 q 222 724 174 686 q 333 763 271 763 q 389 751 364 763 q 432 715 414 739 q 458 654 450 690 l 463 654 l 494 749 l 601 749 l 443 0 l 342 0 l 349 104 l 344 104 q 296 41 321 67 q 242 1 271 15 q 181 -14 214 -14 m 225 94 q 301 131 269 94 q 354 224 332 168 q 392 339 376 281 q 415 455 408 406 q 422 547 422 504 q 403 624 422 597 q 350 651 385 651 q 285 622 315 651 q 233 542 256 592 q 194 433 210 493 q 169 315 178 374 q 161 210 161 257 q 177 123 161 151 q 225 94 193 94 m 203 847 q 233 945 215 904 q 277 1008 250 986 q 343 1031 304 1031 q 394 1018 372 1031 q 432 990 415 1006 q 465 963 449 975 q 497 951 481 951 q 531 969 518 951 q 554 1032 543 986 l 631 1032 q 599 924 619 964 q 551 867 578 885 q 496 849 525 849 q 447 861 468 849 q 408 890 425 874 q 374 917 390 906 q 340 929 358 929 q 303 909 318 929 q 279 847 289 889 l 203 847 z "},"ä":{"ha":600,"x_min":32,"x_max":601,"o":"m 181 -14 q 100 11 133 -14 q 49 83 67 36 q 32 197 32 129 q 43 333 32 258 q 78 484 54 408 q 138 623 101 560 q 222 724 174 686 q 333 763 271 763 q 389 751 364 763 q 432 715 414 739 q 458 654 450 690 l 463 654 l 494 749 l 601 749 l 443 0 l 342 0 l 349 104 l 344 104 q 296 41 321 67 q 242 1 271 15 q 181 -14 214 -14 m 225 94 q 301 131 269 94 q 354 224 332 168 q 392 339 376 281 q 415 455 408 406 q 422 547 422 504 q 403 624 422 597 q 350 651 385 651 q 285 622 315 651 q 233 542 256 592 q 194 433 210 493 q 169 315 178 374 q 161 210 161 257 q 177 123 161 151 q 225 94 193 94 m 510 876 q 469 890 483 876 q 456 932 456 904 q 477 1000 456 971 q 538 1029 499 1029 q 576 1016 563 1029 q 589 976 589 1003 q 566 905 589 933 q 510 876 543 876 m 293 876 q 254 890 268 876 q 240 932 240 904 q 262 1000 240 971 q 322 1029 283 1029 q 349 1023 338 1029 q 366 1006 360 1017 q 372 976 372 994 q 350 905 372 933 q 293 876 328 876 z "},"å":{"ha":600,"x_min":32,"x_max":601,"o":"m 181 -14 q 100 11 133 -14 q 49 83 67 36 q 32 197 32 129 q 43 333 32 258 q 78 484 54 408 q 138 623 101 560 q 222 724 174 686 q 333 763 271 763 q 389 751 364 763 q 432 715 414 739 q 458 654 450 690 l 463 654 l 494 749 l 601 749 l 443 0 l 342 0 l 349 104 l 344 104 q 296 41 321 67 q 242 1 271 15 q 181 -14 214 -14 m 225 94 q 301 131 269 94 q 354 224 332 168 q 392 339 376 281 q 415 455 408 406 q 422 547 422 504 q 403 624 422 597 q 350 651 385 651 q 285 622 315 651 q 233 542 256 592 q 194 433 210 493 q 169 315 178 374 q 161 210 161 257 q 177 123 161 151 q 225 94 193 94 m 417 844 q 309 883 347 844 q 271 989 271 922 q 310 1092 271 1053 q 417 1131 350 1131 q 522 1092 482 1131 q 561 992 561 1053 q 523 885 561 926 q 417 844 485 844 m 418 914 q 471 935 451 914 q 490 989 490 956 q 472 1042 490 1021 q 418 1063 453 1063 q 363 1042 383 1063 q 343 989 343 1021 q 362 935 343 956 q 418 914 381 914 z "},"æ":{"ha":875,"x_min":32,"x_max":860,"o":"m 171 -14 q 97 11 128 -14 q 49 83 65 36 q 32 197 32 129 q 45 355 32 275 q 85 508 58 435 q 148 638 111 581 q 231 729 185 696 q 332 763 278 763 q 383 752 360 763 q 424 720 407 742 q 451 665 442 699 l 454 665 l 478 749 l 568 749 l 551 671 q 618 734 579 707 q 708 761 657 761 q 819 719 779 761 q 860 601 860 676 q 835 486 860 536 q 766 401 811 436 q 656 349 721 367 q 510 332 592 332 l 500 332 q 492 283 494 307 q 490 232 490 258 q 515 128 490 167 q 600 90 540 90 q 678 103 639 90 q 761 140 717 115 l 743 32 q 663 -3 701 8 q 576 -14 625 -14 q 484 12 519 -14 q 436 82 449 38 l 419 0 l 329 0 l 344 99 l 342 99 q 293 38 319 64 q 237 -1 267 13 q 171 -14 207 -14 m 224 93 q 279 113 254 93 q 324 167 304 133 q 358 244 343 201 q 383 335 372 288 q 406 453 399 401 q 413 550 413 506 q 396 626 413 600 q 350 651 379 651 q 290 624 318 651 q 238 551 261 597 q 197 446 214 504 q 170 326 179 388 q 161 207 161 264 q 176 122 161 150 q 224 93 192 93 m 522 426 q 650 447 601 426 q 721 506 699 468 q 743 593 743 544 q 728 642 743 624 q 681 660 713 660 q 613 628 644 660 q 558 544 582 597 q 518 426 535 492 l 522 426 z "},"ç":{"ha":457,"x_min":17,"x_max":500,"o":"m 218 -14 q 117 13 158 -14 q 54 90 75 39 q 33 215 33 140 q 45 356 33 281 q 82 503 57 431 q 146 633 107 575 q 240 727 185 692 q 365 763 294 763 q 438 753 404 763 q 500 725 471 744 l 449 624 q 408 645 431 638 q 364 653 386 653 q 274 610 313 653 q 211 501 236 568 q 174 363 186 435 q 161 229 161 290 q 171 154 161 183 q 200 110 181 125 q 249 96 219 96 q 304 107 274 96 q 367 139 335 118 l 367 29 q 299 -1 339 11 q 218 -14 260 -14 m 108 -333 q 61 -331 85 -333 q 17 -322 38 -329 l 17 -244 q 49 -251 29 -249 q 93 -254 68 -254 q 141 -245 121 -254 q 172 -219 161 -236 q 183 -179 183 -201 q 160 -133 183 -150 q 92 -111 138 -117 l 161 0 l 235 0 l 189 -67 q 259 -103 233 -76 q 285 -174 285 -131 q 262 -262 285 -226 q 199 -315 239 -297 q 108 -333 158 -333 z "},"è":{"ha":547,"x_min":32,"x_max":526,"o":"m 235 -14 q 126 13 172 -14 q 56 92 81 40 q 32 218 32 144 q 56 426 32 328 q 124 599 81 524 q 229 718 168 675 q 365 761 290 761 q 483 720 439 761 q 526 601 526 679 q 502 488 526 538 q 433 403 478 438 q 323 350 388 368 q 176 332 258 332 l 167 332 q 158 283 161 307 q 156 232 156 258 q 183 124 156 158 q 265 90 211 90 q 339 101 306 90 q 415 135 372 111 l 415 33 q 331 -3 375 8 q 235 -14 286 -14 m 188 426 q 316 447 268 426 q 387 506 364 468 q 410 593 410 543 q 394 642 410 624 q 347 660 379 660 q 283 630 314 660 q 226 548 251 600 q 183 426 201 496 l 188 426 m 353 842 q 310 905 335 867 q 264 983 286 943 q 232 1051 242 1022 l 232 1063 l 375 1063 q 392 998 383 1032 q 412 929 400 964 q 438 857 424 894 l 436 842 l 353 842 z "},"é":{"ha":547,"x_min":32,"x_max":581,"o":"m 235 -14 q 126 13 172 -14 q 56 92 81 40 q 32 218 32 144 q 56 426 32 328 q 124 599 81 524 q 229 718 168 675 q 365 761 290 761 q 483 720 439 761 q 526 601 526 679 q 502 488 526 538 q 433 403 478 438 q 323 350 388 368 q 176 332 258 332 l 167 332 q 158 283 161 307 q 156 232 156 258 q 183 124 156 158 q 265 90 211 90 q 339 101 306 90 q 415 135 372 111 l 415 33 q 331 -3 375 8 q 235 -14 286 -14 m 188 426 q 316 447 268 426 q 387 506 364 468 q 410 593 410 543 q 394 642 410 624 q 347 660 379 660 q 283 630 314 660 q 226 548 251 600 q 183 426 201 496 l 188 426 m 282 853 q 340 926 313 890 q 390 997 367 963 q 432 1063 414 1031 l 579 1063 l 578 1051 q 536 1002 564 1032 q 476 942 508 972 q 414 883 443 911 q 365 840 385 856 l 279 840 l 282 853 z "},"ê":{"ha":547,"x_min":32,"x_max":554,"o":"m 235 -14 q 126 13 172 -14 q 56 92 81 40 q 32 218 32 144 q 56 426 32 328 q 124 599 81 524 q 229 718 168 675 q 365 761 290 761 q 483 720 439 761 q 526 601 526 679 q 502 488 526 538 q 433 403 478 438 q 323 350 388 368 q 176 332 258 332 l 167 332 q 158 283 161 307 q 156 232 156 258 q 183 124 156 158 q 265 90 211 90 q 339 101 306 90 q 415 135 372 111 l 415 33 q 331 -3 375 8 q 235 -14 286 -14 m 188 426 q 316 447 268 426 q 387 506 364 468 q 410 593 410 543 q 394 642 410 624 q 347 660 379 660 q 283 630 314 660 q 226 548 251 600 q 183 426 201 496 l 188 426 m 203 856 q 263 925 233 890 q 319 995 293 960 q 367 1064 344 1031 l 479 1064 q 498 999 485 1039 q 527 921 511 960 q 554 857 543 882 l 551 842 l 479 842 q 454 878 467 858 q 428 919 442 897 q 403 965 415 942 q 335 896 368 928 q 275 842 303 864 l 200 842 l 203 856 z "},"ë":{"ha":547,"x_min":32,"x_max":572,"o":"m 235 -14 q 126 13 172 -14 q 56 92 81 40 q 32 218 32 144 q 56 426 32 328 q 124 599 81 524 q 229 718 168 675 q 365 761 290 761 q 483 720 439 761 q 526 601 526 679 q 502 488 526 538 q 433 403 478 438 q 323 350 388 368 q 176 332 258 332 l 167 332 q 158 283 161 307 q 156 232 156 258 q 183 124 156 158 q 265 90 211 90 q 339 101 306 90 q 415 135 372 111 l 415 33 q 331 -3 375 8 q 235 -14 286 -14 m 188 426 q 316 447 268 426 q 387 506 364 468 q 410 593 410 543 q 394 642 410 624 q 347 660 379 660 q 283 630 314 660 q 226 548 251 600 q 183 426 201 496 l 188 426 m 493 872 q 453 886 467 872 q 439 928 439 900 q 460 996 439 967 q 521 1025 482 1025 q 559 1012 546 1025 q 572 972 572 999 q 549 901 572 929 q 493 872 526 872 m 276 872 q 238 886 251 872 q 224 928 224 900 q 245 996 224 967 q 306 1025 267 1025 q 332 1019 321 1025 q 349 1001 343 1013 q 356 972 356 990 q 333 901 356 929 q 276 872 311 872 z "},"ì":{"ha":279,"x_min":-3,"x_max":301,"o":"m -3 0 l 156 749 l 281 749 l 121 0 l -3 0 m 217 849 q 174 912 199 874 q 128 990 150 950 q 96 1058 106 1029 l 96 1069 l 239 1069 q 256 1005 247 1039 q 276 936 264 971 q 301 864 288 901 l 300 849 l 217 849 z "},"í":{"ha":279,"x_min":-3,"x_max":449,"o":"m -3 0 l 156 749 l 281 749 l 121 0 l -3 0 m 151 860 q 209 933 182 897 q 260 1003 236 969 q 301 1069 283 1038 l 449 1069 l 447 1058 q 406 1009 433 1039 q 345 949 378 979 q 283 890 313 918 q 235 847 254 863 l 149 847 l 151 860 z "},"î":{"ha":279,"x_min":-3,"x_max":406,"o":"m -3 0 l 156 749 l 281 749 l 121 0 l -3 0 m 54 856 q 115 925 85 890 q 170 995 144 960 q 218 1064 196 1031 l 331 1064 q 349 999 336 1039 q 378 921 363 960 q 406 857 394 882 l 403 842 l 331 842 q 306 878 318 858 q 280 919 293 897 q 254 965 267 942 q 187 896 219 928 q 126 842 154 864 l 51 842 l 54 856 z "},"ï":{"ha":279,"x_min":-3,"x_max":422,"o":"m -3 0 l 156 749 l 281 749 l 121 0 l -3 0 m 344 872 q 304 886 318 872 q 290 928 290 900 q 312 996 290 967 q 372 1025 333 1025 q 410 1012 397 1025 q 424 972 424 999 q 401 901 424 929 q 344 872 378 872 m 128 872 q 89 886 103 872 q 75 928 75 900 q 97 996 75 967 q 157 1025 118 1025 q 183 1019 172 1025 q 201 1001 194 1013 q 207 972 207 990 q 185 901 207 929 q 128 872 163 872 z "},"ð":{"ha":578,"x_min":15,"x_max":574,"o":"m 207 -14 q 103 13 146 -14 q 38 90 60 39 q 15 213 15 140 q 33 358 15 279 q 87 506 50 436 q 180 619 124 575 q 313 663 236 663 q 384 633 360 663 q 419 564 408 603 l 421 564 q 407 724 421 654 q 351 851 393 794 l 224 771 l 182 832 l 313 915 q 275 953 299 932 q 222 994 251 974 l 286 1067 q 346 1025 317 1049 q 403 974 375 1001 l 531 1057 l 574 996 l 447 915 q 499 817 479 869 q 528 708 518 765 q 538 589 538 651 q 528 439 538 521 q 496 277 518 357 q 435 131 474 197 q 341 26 397 65 q 207 -14 285 -14 m 219 93 q 278 115 251 93 q 328 172 306 136 q 364 252 350 208 q 385 342 378 296 q 393 429 393 388 q 388 482 393 458 q 374 522 383 506 q 349 546 364 538 q 315 554 335 554 q 242 522 275 554 q 188 440 210 490 q 153 330 165 389 q 142 218 142 271 q 162 124 142 156 q 219 93 182 93 z "},"ñ":{"ha":588,"x_min":-4,"x_max":621,"o":"m -4 0 l 156 749 l 257 749 l 244 650 l 249 650 q 294 711 269 686 q 349 749 319 736 q 413 763 379 763 q 483 747 451 763 q 533 700 514 732 q 551 615 551 668 q 545 551 551 588 q 532 479 539 515 l 431 0 l 306 0 l 403 457 q 415 525 410 490 q 421 585 421 560 q 408 631 421 615 q 365 647 394 647 q 297 618 326 647 q 246 534 268 589 q 207 400 224 479 l 122 0 l -4 0 m 193 847 q 223 945 206 904 q 267 1008 240 986 q 333 1031 294 1031 q 384 1018 363 1031 q 422 990 406 1006 q 455 963 439 975 q 488 951 471 951 q 521 969 508 951 q 544 1032 533 986 l 621 1032 q 589 924 610 964 q 542 867 568 885 q 486 849 515 849 q 437 861 458 849 q 398 890 415 874 q 365 917 381 906 q 331 929 349 929 q 294 909 308 929 q 269 847 279 889 l 193 847 z "},"ò":{"ha":581,"x_min":33,"x_max":547,"o":"m 221 -14 q 120 13 163 -14 q 56 91 78 39 q 33 217 33 143 q 44 347 33 275 q 78 491 54 418 q 141 625 103 564 q 234 724 179 686 q 361 763 289 763 q 461 735 419 763 q 525 655 503 707 q 547 529 547 603 q 535 386 547 461 q 497 240 522 311 q 433 112 472 169 q 342 20 394 54 q 221 -14 289 -14 m 235 94 q 299 124 269 94 q 350 201 328 153 q 388 308 372 250 q 413 424 404 365 q 421 531 421 482 q 413 598 421 569 q 388 640 404 626 q 346 654 371 654 q 277 623 307 654 q 225 541 247 592 q 188 431 203 490 q 167 315 174 372 q 160 215 160 258 q 178 126 160 157 q 235 94 197 94 m 363 842 q 320 905 344 867 q 274 983 296 943 q 242 1051 251 1022 l 242 1063 l 385 1063 q 401 998 393 1032 q 422 929 410 964 q 447 857 433 894 l 446 842 l 363 842 z "},"ó":{"ha":581,"x_min":33,"x_max":599,"o":"m 221 -14 q 120 13 163 -14 q 56 91 78 39 q 33 217 33 143 q 44 347 33 275 q 78 491 54 418 q 141 625 103 564 q 234 724 179 686 q 361 763 289 763 q 461 735 419 763 q 525 655 503 707 q 547 529 547 603 q 535 386 547 461 q 497 240 522 311 q 433 112 472 169 q 342 20 394 54 q 221 -14 289 -14 m 235 94 q 299 124 269 94 q 350 201 328 153 q 388 308 372 250 q 413 424 404 365 q 421 531 421 482 q 413 598 421 569 q 388 640 404 626 q 346 654 371 654 q 277 623 307 654 q 225 541 247 592 q 188 431 203 490 q 167 315 174 372 q 160 215 160 258 q 178 126 160 157 q 235 94 197 94 m 301 853 q 359 926 332 890 q 410 997 386 963 q 451 1063 433 1031 l 599 1063 l 597 1051 q 556 1002 583 1032 q 495 942 528 972 q 433 883 463 911 q 385 840 404 856 l 299 840 l 301 853 z "},"ô":{"ha":581,"x_min":33,"x_max":551,"o":"m 221 -14 q 120 13 163 -14 q 56 91 78 39 q 33 217 33 143 q 44 347 33 275 q 78 491 54 418 q 141 625 103 564 q 234 724 179 686 q 361 763 289 763 q 461 735 419 763 q 525 655 503 707 q 547 529 547 603 q 535 386 547 461 q 497 240 522 311 q 433 112 472 169 q 342 20 394 54 q 221 -14 289 -14 m 235 94 q 299 124 269 94 q 350 201 328 153 q 388 308 372 250 q 413 424 404 365 q 421 531 421 482 q 413 598 421 569 q 388 640 404 626 q 346 654 371 654 q 277 623 307 654 q 225 541 247 592 q 188 431 203 490 q 167 315 174 372 q 160 215 160 258 q 178 126 160 157 q 235 94 197 94 m 200 856 q 260 925 231 890 q 316 995 290 960 q 364 1064 342 1031 l 476 1064 q 495 999 482 1039 q 524 921 508 960 q 551 857 540 882 l 549 842 l 476 842 q 451 878 464 858 q 426 919 439 897 q 400 965 413 942 q 333 896 365 928 q 272 842 300 864 l 197 842 l 200 856 z "},"õ":{"ha":581,"x_min":33,"x_max":604,"o":"m 221 -14 q 120 13 163 -14 q 56 91 78 39 q 33 217 33 143 q 44 347 33 275 q 78 491 54 418 q 141 625 103 564 q 234 724 179 686 q 361 763 289 763 q 461 735 419 763 q 525 655 503 707 q 547 529 547 603 q 535 386 547 461 q 497 240 522 311 q 433 112 472 169 q 342 20 394 54 q 221 -14 289 -14 m 235 94 q 299 124 269 94 q 350 201 328 153 q 388 308 372 250 q 413 424 404 365 q 421 531 421 482 q 413 598 421 569 q 388 640 404 626 q 346 654 371 654 q 277 623 307 654 q 225 541 247 592 q 188 431 203 490 q 167 315 174 372 q 160 215 160 258 q 178 126 160 157 q 235 94 197 94 m 176 843 q 206 941 189 900 q 251 1004 224 982 q 317 1026 278 1026 q 367 1014 346 1026 q 406 986 389 1001 q 438 959 422 971 q 471 947 454 947 q 504 965 492 947 q 528 1028 517 982 l 604 1028 q 572 920 593 960 q 525 863 551 881 q 469 844 499 844 q 420 857 442 844 q 381 885 399 869 q 348 913 364 901 q 314 925 332 925 q 277 905 292 925 q 253 843 263 885 l 176 843 z "},"ö":{"ha":581,"x_min":33,"x_max":565,"o":"m 221 -14 q 120 13 163 -14 q 56 91 78 39 q 33 217 33 143 q 44 347 33 275 q 78 491 54 418 q 141 625 103 564 q 234 724 179 686 q 361 763 289 763 q 461 735 419 763 q 525 655 503 707 q 547 529 547 603 q 535 386 547 461 q 497 240 522 311 q 433 112 472 169 q 342 20 394 54 q 221 -14 289 -14 m 235 94 q 299 124 269 94 q 350 201 328 153 q 388 308 372 250 q 413 424 404 365 q 421 531 421 482 q 413 598 421 569 q 388 640 404 626 q 346 654 371 654 q 277 623 307 654 q 225 541 247 592 q 188 431 203 490 q 167 315 174 372 q 160 215 160 258 q 178 126 160 157 q 235 94 197 94 m 486 872 q 446 886 460 872 q 432 928 432 900 q 453 996 432 967 q 514 1025 475 1025 q 552 1012 539 1025 q 565 972 565 999 q 542 901 565 929 q 486 872 519 872 m 269 872 q 231 886 244 872 q 217 928 217 900 q 238 996 217 967 q 299 1025 260 1025 q 325 1019 314 1025 q 342 1001 336 1013 q 349 972 349 990 q 326 901 349 929 q 269 872 304 872 z "},"÷":{"ha":615,"x_min":57,"x_max":583,"o":"m 57 435 l 57 546 l 583 546 l 583 435 l 57 435 m 322 144 q 265 168 285 144 q 244 238 244 192 q 265 306 244 283 q 322 329 285 329 q 378 306 360 329 q 397 238 397 283 q 377 168 397 192 q 322 144 357 144 m 322 650 q 265 674 285 650 q 244 742 244 697 q 265 811 244 788 q 322 835 285 835 q 378 811 360 835 q 397 742 397 788 q 377 674 397 697 q 322 650 357 650 z "},"ø":{"ha":581,"x_min":-17,"x_max":597,"o":"m 46 -85 l -17 -44 l 63 79 q 41 140 49 106 q 33 217 33 175 q 44 342 33 271 q 79 487 56 414 q 140 623 103 560 q 233 724 178 686 q 363 763 288 763 q 424 752 396 763 q 472 719 451 742 l 532 815 l 597 775 l 521 658 q 540 599 533 632 q 547 529 547 567 q 536 399 547 471 q 501 254 525 326 q 439 121 478 182 q 346 23 400 60 q 221 -14 292 -14 q 162 -5 189 -14 q 114 21 135 4 l 46 -85 m 233 90 q 296 115 268 90 q 345 180 324 139 q 383 272 367 221 q 410 377 400 324 q 422 479 419 431 q 424 500 424 490 q 422 519 424 510 l 174 125 q 200 99 185 108 q 233 90 215 90 m 411 617 q 385 648 401 638 q 347 658 369 658 q 285 633 314 658 q 235 563 257 607 q 196 467 213 519 q 170 359 179 414 q 158 256 161 304 q 157 234 157 244 q 158 215 157 224 l 411 617 z "},"ù":{"ha":590,"x_min":33,"x_max":588,"o":"m 172 -14 q 96 3 126 -14 q 49 55 65 21 q 33 136 33 89 q 38 194 33 161 q 49 256 43 226 l 154 749 l 278 749 l 179 279 q 168 219 172 249 q 164 165 164 190 q 177 117 164 135 q 218 99 190 99 q 287 128 257 99 q 340 215 317 158 q 378 349 363 271 l 463 749 l 588 749 l 429 0 l 329 0 l 338 93 l 333 93 q 287 35 313 60 q 232 -1 261 11 q 172 -14 203 -14 m 365 842 q 323 905 347 867 q 276 983 299 943 q 244 1051 254 1022 l 244 1063 l 388 1063 q 404 998 396 1032 q 424 929 413 964 q 450 857 436 894 l 449 842 l 365 842 z "},"ú":{"ha":590,"x_min":33,"x_max":606,"o":"m 172 -14 q 96 3 126 -14 q 49 55 65 21 q 33 136 33 89 q 38 194 33 161 q 49 256 43 226 l 154 749 l 278 749 l 179 279 q 168 219 172 249 q 164 165 164 190 q 177 117 164 135 q 218 99 190 99 q 287 128 257 99 q 340 215 317 158 q 378 349 363 271 l 463 749 l 588 749 l 429 0 l 329 0 l 338 93 l 333 93 q 287 35 313 60 q 232 -1 261 11 q 172 -14 203 -14 m 308 853 q 366 926 339 890 q 417 997 393 963 q 458 1063 440 1031 l 606 1063 l 604 1051 q 563 1002 590 1032 q 502 942 535 972 q 440 883 469 911 q 392 840 411 856 l 306 840 l 308 853 z "},"û":{"ha":590,"x_min":33,"x_max":588,"o":"m 172 -14 q 96 3 126 -14 q 49 55 65 21 q 33 136 33 89 q 38 194 33 161 q 49 256 43 226 l 154 749 l 278 749 l 179 279 q 168 219 172 249 q 164 165 164 190 q 177 117 164 135 q 218 99 190 99 q 287 128 257 99 q 340 215 317 158 q 378 349 363 271 l 463 749 l 588 749 l 429 0 l 329 0 l 338 93 l 333 93 q 287 35 313 60 q 232 -1 261 11 q 172 -14 203 -14 m 210 856 q 270 925 240 890 q 326 995 300 960 q 374 1064 351 1031 l 486 1064 q 505 999 492 1039 q 534 921 518 960 q 561 857 550 882 l 558 842 l 486 842 q 461 878 474 858 q 435 919 449 897 q 410 965 422 942 q 342 896 375 928 q 282 842 310 864 l 207 842 l 210 856 z "},"ü":{"ha":590,"x_min":33,"x_max":588,"o":"m 172 -14 q 96 3 126 -14 q 49 55 65 21 q 33 136 33 89 q 38 194 33 161 q 49 256 43 226 l 154 749 l 278 749 l 179 279 q 168 219 172 249 q 164 165 164 190 q 177 117 164 135 q 218 99 190 99 q 287 128 257 99 q 340 215 317 158 q 378 349 363 271 l 463 749 l 588 749 l 429 0 l 329 0 l 338 93 l 333 93 q 287 35 313 60 q 232 -1 261 11 q 172 -14 203 -14 m 489 872 q 449 886 463 872 q 435 928 435 900 q 456 996 435 967 q 517 1025 478 1025 q 555 1012 542 1025 q 568 972 568 999 q 545 901 568 929 q 489 872 522 872 m 272 872 q 233 886 247 872 q 219 928 219 900 q 241 996 219 967 q 301 1025 263 1025 q 328 1019 317 1025 q 345 1001 339 1013 q 351 972 351 990 q 329 901 351 929 q 272 872 307 872 z "},"ý":{"ha":497,"x_min":-124,"x_max":571,"o":"m -44 -335 q -87 -331 -68 -335 q -124 -321 -107 -326 l -106 -208 q -76 -217 -90 -214 q -47 -221 -62 -221 q 14 -192 -10 -221 q 60 -111 38 -162 l 111 4 l 89 749 l 214 749 l 215 351 q 215 298 215 325 q 213 244 214 271 q 210 189 213 217 l 214 189 q 233 244 224 217 q 251 295 242 271 q 268 338 261 319 l 440 749 l 571 749 l 179 -135 q 122 -240 151 -194 q 53 -310 92 -285 q -44 -335 14 -335 m 265 853 q 323 926 296 890 q 374 997 350 963 q 415 1063 397 1031 l 563 1063 l 561 1051 q 519 1002 547 1032 q 459 942 492 972 q 397 883 426 911 q 349 840 368 856 l 263 840 l 265 853 z "},"þ":{"ha":594,"x_min":-69,"x_max":567,"o":"m -69 -325 l 222 1056 l 346 1056 l 272 714 q 265 685 268 699 q 258 660 261 672 l 263 660 q 308 715 283 692 q 360 750 332 738 q 421 763 389 763 q 528 710 490 763 q 567 551 567 657 q 555 410 567 486 q 519 260 543 335 q 459 123 496 185 q 374 24 422 61 q 265 -14 326 -14 q 209 -1 235 -14 q 166 35 183 13 q 140 90 149 58 l 136 90 q 128 38 133 64 q 119 -8 124 11 l 53 -325 l -69 -325 m 249 96 q 317 128 286 96 q 370 213 347 161 q 408 324 393 264 q 431 442 424 385 q 439 540 439 500 q 423 627 439 599 q 374 656 407 656 q 301 620 333 656 q 246 528 269 585 q 207 413 222 472 q 190 335 197 374 q 181 263 183 297 q 178 203 178 229 q 195 123 178 150 q 249 96 213 96 z "},"ÿ":{"ha":497,"x_min":-124,"x_max":571,"o":"m -44 -335 q -87 -331 -68 -335 q -124 -321 -107 -326 l -106 -208 q -76 -217 -90 -214 q -47 -221 -62 -221 q 14 -192 -10 -221 q 60 -111 38 -162 l 111 4 l 89 749 l 214 749 l 215 351 q 215 298 215 325 q 213 244 214 271 q 210 189 213 217 l 214 189 q 233 244 224 217 q 251 295 242 271 q 268 338 261 319 l 440 749 l 571 749 l 179 -135 q 122 -240 151 -194 q 53 -310 92 -285 q -44 -335 14 -335 m 443 872 q 403 886 417 872 q 389 928 389 900 q 410 996 389 967 q 471 1025 432 1025 q 509 1012 496 1025 q 522 972 522 999 q 499 901 522 929 q 443 872 476 872 m 226 872 q 188 886 201 872 q 174 928 174 900 q 195 996 174 967 q 256 1025 217 1025 q 282 1019 271 1025 q 299 1001 293 1013 q 306 972 306 990 q 283 901 306 929 q 226 872 261 872 z "},"Ā":{"ha":588,"x_min":-89,"x_max":613,"o":"m -89 0 l 328 996 l 493 996 l 499 0 l 364 0 l 365 297 l 172 297 l 53 0 l -89 0 m 217 414 l 371 414 l 378 749 q 379 812 378 782 q 383 869 381 842 l 379 869 q 365 814 374 843 q 343 749 356 785 l 217 414 m 251 1103 l 269 1199 l 613 1199 l 592 1103 l 251 1103 z "},"ā":{"ha":600,"x_min":32,"x_max":601,"o":"m 181 -14 q 100 11 133 -14 q 49 83 67 36 q 32 197 32 129 q 43 333 32 258 q 78 484 54 408 q 138 623 101 560 q 222 724 174 686 q 333 763 271 763 q 389 751 364 763 q 432 715 414 739 q 458 654 450 690 l 463 654 l 494 749 l 601 749 l 443 0 l 342 0 l 349 104 l 344 104 q 296 41 321 67 q 242 1 271 15 q 181 -14 214 -14 m 225 94 q 301 131 269 94 q 354 224 332 168 q 392 339 376 281 q 415 455 408 406 q 422 547 422 504 q 403 624 422 597 q 350 651 385 651 q 285 622 315 651 q 233 542 256 592 q 194 433 210 493 q 169 315 178 374 q 161 210 161 257 q 177 123 161 151 q 225 94 193 94 m 225 850 l 243 946 l 586 946 l 565 850 l 225 850 z "},"Ă":{"ha":588,"x_min":-89,"x_max":617,"o":"m -89 0 l 328 996 l 493 996 l 499 0 l 364 0 l 365 297 l 172 297 l 53 0 l -89 0 m 217 414 l 371 414 l 378 749 q 379 812 378 782 q 383 869 381 842 l 379 869 q 365 814 374 843 q 343 749 356 785 l 217 414 m 429 1099 q 345 1116 378 1099 q 298 1165 313 1133 q 283 1239 283 1197 q 285 1268 283 1254 q 288 1293 286 1282 l 367 1293 q 374 1238 367 1260 q 396 1205 381 1215 q 435 1194 411 1194 q 499 1217 475 1194 q 536 1293 522 1239 l 618 1293 q 553 1149 601 1200 q 429 1099 506 1099 z "},"ă":{"ha":600,"x_min":32,"x_max":601,"o":"m 181 -14 q 100 11 133 -14 q 49 83 67 36 q 32 197 32 129 q 43 333 32 258 q 78 484 54 408 q 138 623 101 560 q 222 724 174 686 q 333 763 271 763 q 389 751 364 763 q 432 715 414 739 q 458 654 450 690 l 463 654 l 494 749 l 601 749 l 443 0 l 342 0 l 349 104 l 344 104 q 296 41 321 67 q 242 1 271 15 q 181 -14 214 -14 m 225 94 q 301 131 269 94 q 354 224 332 168 q 392 339 376 281 q 415 455 408 406 q 422 547 422 504 q 403 624 422 597 q 350 651 385 651 q 285 622 315 651 q 233 542 256 592 q 194 433 210 493 q 169 315 178 374 q 161 210 161 257 q 177 123 161 151 q 225 94 193 94 m 401 846 q 317 863 350 846 q 270 913 285 881 q 256 986 256 944 q 257 1015 256 1001 q 260 1040 258 1029 l 339 1040 q 346 985 339 1007 q 368 952 353 963 q 407 942 383 942 q 471 964 447 942 q 508 1040 494 986 l 590 1040 q 526 897 574 947 q 401 846 478 846 z "},"Ą":{"ha":588,"x_min":-89,"x_max":499,"o":"m -89 0 l 328 996 l 493 996 l 499 0 l 364 0 l 365 297 l 172 297 l 53 0 l -89 0 m 217 414 l 371 414 l 378 749 q 379 812 378 782 q 383 869 381 842 l 379 869 q 365 814 374 843 q 343 749 356 785 l 217 414 m 360 -314 q 278 -285 306 -314 q 251 -212 251 -256 q 267 -137 251 -172 q 315 -67 283 -101 q 392 0 346 -33 l 472 0 q 409 -67 433 -36 q 374 -125 385 -97 q 363 -181 363 -153 q 373 -212 363 -201 q 403 -224 383 -224 q 428 -221 414 -224 q 457 -215 442 -218 l 438 -301 q 400 -312 419 -310 q 360 -314 381 -314 z "},"ą":{"ha":600,"x_min":32,"x_max":601,"o":"m 181 -14 q 100 11 133 -14 q 49 83 67 36 q 32 197 32 129 q 43 333 32 258 q 78 484 54 408 q 138 623 101 560 q 222 724 174 686 q 333 763 271 763 q 389 751 364 763 q 432 715 414 739 q 458 654 450 690 l 463 654 l 494 749 l 601 749 l 443 0 l 342 0 l 349 104 l 344 104 q 296 41 321 67 q 242 1 271 15 q 181 -14 214 -14 m 225 94 q 301 131 269 94 q 354 224 332 168 q 392 339 376 281 q 415 455 408 406 q 422 547 422 504 q 403 624 422 597 q 350 651 385 651 q 285 622 315 651 q 233 542 256 592 q 194 433 210 493 q 169 315 178 374 q 161 210 161 257 q 177 123 161 151 q 225 94 193 94 m 315 -314 q 234 -285 261 -314 q 207 -212 207 -256 q 223 -137 207 -172 q 270 -67 239 -101 q 347 0 301 -33 l 428 0 q 365 -67 389 -36 q 329 -125 340 -97 q 318 -181 318 -153 q 328 -212 318 -201 q 358 -224 339 -224 q 383 -221 369 -224 q 413 -215 397 -218 l 393 -301 q 356 -312 375 -310 q 315 -314 336 -314 z "},"Ć":{"ha":554,"x_min":50,"x_max":664,"o":"m 276 -14 q 151 23 201 -14 q 76 131 101 60 q 50 306 50 201 q 67 487 50 390 q 119 675 85 583 q 205 842 153 767 q 326 962 257 917 q 482 1007 396 1007 q 576 994 532 1007 q 654 954 619 982 l 589 849 q 538 880 564 869 q 482 890 511 890 q 373 849 421 890 q 290 740 325 807 q 231 594 254 672 q 196 443 207 517 q 185 315 185 369 q 215 153 185 204 q 308 103 244 103 q 376 113 342 103 q 447 139 411 124 l 447 21 q 362 -6 406 3 q 276 -14 318 -14 m 367 1101 q 424 1175 397 1139 q 475 1245 451 1211 q 517 1311 499 1279 l 664 1311 l 663 1300 q 621 1251 649 1281 q 560 1190 593 1221 q 499 1132 528 1160 q 450 1089 469 1104 l 364 1089 l 367 1101 z "},"ć":{"ha":457,"x_min":33,"x_max":556,"o":"m 218 -14 q 117 13 158 -14 q 54 90 75 39 q 33 215 33 140 q 45 356 33 281 q 82 503 57 431 q 146 633 107 575 q 240 727 185 692 q 365 763 294 763 q 438 753 404 763 q 500 725 471 744 l 449 624 q 408 645 431 638 q 364 653 386 653 q 274 610 313 653 q 211 501 236 568 q 174 363 186 435 q 161 229 161 290 q 171 154 161 183 q 200 110 181 125 q 249 96 219 96 q 304 107 274 96 q 367 139 335 118 l 367 29 q 299 -1 339 11 q 218 -14 260 -14 m 258 860 q 316 933 289 897 q 367 1003 343 969 q 408 1069 390 1038 l 556 1069 l 554 1058 q 513 1009 540 1039 q 452 949 485 979 q 390 890 419 918 q 342 847 361 863 l 256 847 l 258 860 z "},"Ĉ":{"ha":554,"x_min":50,"x_max":654,"o":"m 276 -14 q 151 23 201 -14 q 76 131 101 60 q 50 306 50 201 q 67 487 50 390 q 119 675 85 583 q 205 842 153 767 q 326 962 257 917 q 482 1007 396 1007 q 576 994 532 1007 q 654 954 619 982 l 589 849 q 538 880 564 869 q 482 890 511 890 q 373 849 421 890 q 290 740 325 807 q 231 594 254 672 q 196 443 207 517 q 185 315 185 369 q 215 153 185 204 q 308 103 244 103 q 376 113 342 103 q 447 139 411 124 l 447 21 q 362 -6 406 3 q 276 -14 318 -14 m 303 1085 q 363 1154 333 1119 q 419 1224 393 1189 q 467 1293 444 1260 l 579 1293 q 598 1228 585 1268 q 627 1150 611 1189 q 654 1086 643 1111 l 651 1071 l 579 1071 q 554 1107 567 1088 q 528 1149 542 1126 q 503 1194 515 1171 q 435 1125 468 1157 q 375 1071 403 1093 l 300 1071 l 303 1085 z "},"ĉ":{"ha":457,"x_min":33,"x_max":535,"o":"m 218 -14 q 117 13 158 -14 q 54 90 75 39 q 33 215 33 140 q 45 356 33 281 q 82 503 57 431 q 146 633 107 575 q 240 727 185 692 q 365 763 294 763 q 438 753 404 763 q 500 725 471 744 l 449 624 q 408 645 431 638 q 364 653 386 653 q 274 610 313 653 q 211 501 236 568 q 174 363 186 435 q 161 229 161 290 q 171 154 161 183 q 200 110 181 125 q 249 96 219 96 q 304 107 274 96 q 367 139 335 118 l 367 29 q 299 -1 339 11 q 218 -14 260 -14 m 183 856 q 244 925 214 890 q 299 995 274 960 q 347 1064 325 1031 l 460 1064 q 478 999 465 1039 q 508 921 492 960 q 535 857 524 882 l 532 842 l 460 842 q 435 878 447 858 q 409 919 422 897 q 383 965 396 942 q 316 896 349 928 q 256 842 283 864 l 181 842 l 183 856 z "},"Ċ":{"ha":554,"x_min":50,"x_max":654,"o":"m 276 -14 q 151 23 201 -14 q 76 131 101 60 q 50 306 50 201 q 67 487 50 390 q 119 675 85 583 q 205 842 153 767 q 326 962 257 917 q 482 1007 396 1007 q 576 994 532 1007 q 654 954 619 982 l 589 849 q 538 880 564 869 q 482 890 511 890 q 373 849 421 890 q 290 740 325 807 q 231 594 254 672 q 196 443 207 517 q 185 315 185 369 q 215 153 185 204 q 308 103 244 103 q 376 113 342 103 q 447 139 411 124 l 447 21 q 362 -6 406 3 q 276 -14 318 -14 m 507 1099 q 460 1116 476 1099 q 444 1161 444 1133 q 467 1233 444 1201 q 532 1265 489 1265 q 567 1258 553 1265 q 587 1238 581 1251 q 593 1203 593 1225 q 570 1130 593 1161 q 507 1099 547 1099 z "},"ċ":{"ha":457,"x_min":33,"x_max":500,"o":"m 218 -14 q 117 13 158 -14 q 54 90 75 39 q 33 215 33 140 q 45 356 33 281 q 82 503 57 431 q 146 633 107 575 q 240 727 185 692 q 365 763 294 763 q 438 753 404 763 q 500 725 471 744 l 449 624 q 408 645 431 638 q 364 653 386 653 q 274 610 313 653 q 211 501 236 568 q 174 363 186 435 q 161 229 161 290 q 171 154 161 183 q 200 110 181 125 q 249 96 219 96 q 304 107 274 96 q 367 139 335 118 l 367 29 q 299 -1 339 11 q 218 -14 260 -14 m 389 865 q 342 883 358 865 q 326 928 326 900 q 349 1000 326 968 q 414 1032 371 1032 q 449 1025 435 1032 q 469 1005 463 1018 q 475 969 475 992 q 452 897 475 928 q 389 865 429 865 z "},"Č":{"ha":554,"x_min":50,"x_max":715,"o":"m 276 -14 q 151 23 201 -14 q 76 131 101 60 q 50 306 50 201 q 67 487 50 390 q 119 675 85 583 q 205 842 153 767 q 326 962 257 917 q 482 1007 396 1007 q 576 994 532 1007 q 654 954 619 982 l 589 849 q 538 880 564 869 q 482 890 511 890 q 373 849 421 890 q 290 740 325 807 q 231 594 254 672 q 196 443 207 517 q 185 315 185 369 q 215 153 185 204 q 308 103 244 103 q 376 113 342 103 q 447 139 411 124 l 447 21 q 362 -6 406 3 q 276 -14 318 -14 m 436 1071 q 417 1135 431 1096 q 388 1215 403 1175 q 360 1278 374 1254 l 364 1293 l 436 1293 q 458 1262 446 1281 q 483 1220 469 1243 q 511 1169 497 1197 q 580 1240 547 1208 q 640 1293 613 1271 l 715 1293 l 713 1279 q 658 1217 692 1257 q 594 1138 625 1178 q 549 1071 564 1097 l 436 1071 z "},"č":{"ha":457,"x_min":33,"x_max":592,"o":"m 218 -14 q 117 13 158 -14 q 54 90 75 39 q 33 215 33 140 q 45 356 33 281 q 82 503 57 431 q 146 633 107 575 q 240 727 185 692 q 365 763 294 763 q 438 753 404 763 q 500 725 471 744 l 449 624 q 408 645 431 638 q 364 653 386 653 q 274 610 313 653 q 211 501 236 568 q 174 363 186 435 q 161 229 161 290 q 171 154 161 183 q 200 110 181 125 q 249 96 219 96 q 304 107 274 96 q 367 139 335 118 l 367 29 q 299 -1 339 11 q 218 -14 260 -14 m 313 842 q 293 906 307 867 q 265 985 279 946 q 236 1049 250 1025 l 240 1064 l 313 1064 q 334 1033 322 1051 q 360 991 346 1014 q 388 940 374 968 q 456 1010 424 979 q 517 1064 489 1042 l 592 1064 l 589 1050 q 535 988 568 1028 q 471 908 501 949 q 425 842 440 868 l 313 842 z "},"Ď":{"ha":663,"x_min":-1,"x_max":644,"o":"m -1 0 l 208 992 l 381 992 q 577 916 510 992 q 644 696 644 840 q 628 508 644 604 q 578 321 613 411 q 488 158 543 231 q 356 42 433 85 q 176 0 279 0 l -1 0 m 196 118 q 314 154 263 118 q 401 251 365 190 q 461 386 438 311 q 497 538 485 461 q 508 686 508 615 q 473 829 508 783 q 368 875 438 875 l 314 875 l 153 118 l 196 118 m 360 1071 q 340 1135 354 1096 q 312 1215 326 1175 q 283 1278 297 1254 l 288 1293 l 360 1293 q 381 1262 369 1281 q 407 1220 393 1243 q 435 1169 421 1197 q 503 1240 471 1208 q 564 1293 536 1271 l 639 1293 l 636 1279 q 582 1217 615 1257 q 518 1138 549 1178 q 472 1071 488 1097 l 360 1071 z "},"ď":{"ha":714,"x_min":32,"x_max":878,"o":"m 681 846 q 711 921 697 885 q 736 991 725 957 q 754 1056 747 1025 l 878 1056 l 878 1042 q 844 974 865 1013 q 801 898 824 935 q 757 833 778 861 l 681 833 l 681 846 m 176 -14 q 98 11 131 -14 q 49 83 65 36 q 32 197 32 129 q 43 332 32 257 q 78 483 54 407 q 136 622 101 558 q 219 724 171 685 q 326 763 267 763 q 385 751 358 763 q 431 717 413 739 q 458 663 450 694 l 463 663 q 470 710 467 686 q 478 756 474 733 q 486 796 482 778 l 540 1056 l 665 1056 l 442 0 l 340 0 l 347 99 l 344 99 q 293 38 318 63 q 240 -1 268 13 q 176 -14 213 -14 m 224 93 q 288 118 260 93 q 337 184 315 143 q 374 274 358 225 q 401 376 390 324 q 417 473 411 428 q 422 549 422 518 q 404 626 422 600 q 350 651 386 651 q 283 619 313 651 q 230 536 253 588 q 192 425 207 485 q 169 308 176 365 q 161 207 161 250 q 176 122 161 150 q 224 93 192 93 z "},"Đ":{"ha":663,"x_min":-1,"x_max":644,"o":"m 29 464 l 50 567 l 361 567 l 339 464 l 29 464 m -1 0 l 208 992 l 381 992 q 577 916 510 992 q 644 696 644 840 q 628 508 644 604 q 578 321 613 411 q 488 158 543 231 q 356 42 433 85 q 176 0 279 0 l -1 0 m 196 118 q 314 154 263 118 q 401 251 365 190 q 461 386 438 311 q 497 538 485 461 q 508 686 508 615 q 473 829 508 783 q 368 875 438 875 l 314 875 l 153 118 l 196 118 z "},"đ":{"ha":600,"x_min":32,"x_max":721,"o":"m 176 -14 q 98 11 131 -14 q 49 83 65 36 q 32 197 32 129 q 43 332 32 257 q 78 483 54 407 q 136 622 101 558 q 219 724 171 685 q 326 763 267 763 q 385 751 358 763 q 431 717 413 739 q 458 663 450 694 l 463 663 q 469 706 465 685 q 477 747 474 726 q 483 785 481 767 l 496 840 l 369 840 l 390 936 l 517 936 l 540 1056 l 665 1056 l 640 936 l 721 936 l 700 840 l 621 840 l 442 0 l 340 0 l 347 99 l 344 99 q 293 38 318 63 q 240 -1 268 13 q 176 -14 213 -14 m 224 93 q 288 118 260 93 q 337 184 315 143 q 374 274 358 225 q 401 376 390 324 q 417 473 411 428 q 422 549 422 518 q 404 626 422 600 q 350 651 386 651 q 283 619 313 651 q 230 536 253 588 q 192 425 207 485 q 169 308 176 365 q 161 207 161 250 q 176 122 161 150 q 224 93 192 93 z "},"Ē":{"ha":519,"x_min":-1,"x_max":597,"o":"m -1 0 l 208 992 l 582 992 l 558 876 l 314 876 l 251 575 l 478 575 l 453 460 l 226 460 l 153 115 l 397 115 l 372 0 l -1 0 m 236 1075 l 254 1171 l 597 1171 l 576 1075 l 236 1075 z "},"ē":{"ha":547,"x_min":32,"x_max":574,"o":"m 235 -14 q 126 13 172 -14 q 56 92 81 40 q 32 218 32 144 q 56 426 32 328 q 124 599 81 524 q 229 718 168 675 q 365 761 290 761 q 483 720 439 761 q 526 601 526 679 q 502 488 526 538 q 433 403 478 438 q 323 350 388 368 q 176 332 258 332 l 167 332 q 158 283 161 307 q 156 232 156 258 q 183 124 156 158 q 265 90 211 90 q 339 101 306 90 q 415 135 372 111 l 415 33 q 331 -3 375 8 q 235 -14 286 -14 m 188 426 q 316 447 268 426 q 387 506 364 468 q 410 593 410 543 q 394 642 410 624 q 347 660 379 660 q 283 630 314 660 q 226 548 251 600 q 183 426 201 496 l 188 426 m 213 846 l 231 942 l 574 942 l 553 846 l 213 846 z "},"Ĕ":{"ha":519,"x_min":-1,"x_max":603,"o":"m -1 0 l 208 992 l 582 992 l 558 876 l 314 876 l 251 575 l 478 575 l 453 460 l 226 460 l 153 115 l 397 115 l 372 0 l -1 0 m 414 1071 q 330 1088 363 1071 q 283 1138 297 1106 q 268 1211 268 1169 q 269 1240 268 1226 q 272 1265 271 1254 l 351 1265 q 358 1210 351 1232 q 381 1177 365 1188 q 419 1167 396 1167 q 483 1189 460 1167 q 521 1265 507 1211 l 603 1265 q 538 1122 586 1172 q 414 1071 490 1071 z "},"ĕ":{"ha":547,"x_min":32,"x_max":593,"o":"m 235 -14 q 126 13 172 -14 q 56 92 81 40 q 32 218 32 144 q 56 426 32 328 q 124 599 81 524 q 229 718 168 675 q 365 761 290 761 q 483 720 439 761 q 526 601 526 679 q 502 488 526 538 q 433 403 478 438 q 323 350 388 368 q 176 332 258 332 l 167 332 q 158 283 161 307 q 156 232 156 258 q 183 124 156 158 q 265 90 211 90 q 339 101 306 90 q 415 135 372 111 l 415 33 q 331 -3 375 8 q 235 -14 286 -14 m 188 426 q 316 447 268 426 q 387 506 364 468 q 410 593 410 543 q 394 642 410 624 q 347 660 379 660 q 283 630 314 660 q 226 548 251 600 q 183 426 201 496 l 188 426 m 404 842 q 320 859 353 842 q 273 908 288 876 q 258 982 258 940 q 260 1011 258 997 q 263 1036 261 1025 l 342 1036 q 349 981 342 1003 q 371 948 356 958 q 410 938 386 938 q 474 960 450 938 q 511 1036 497 982 l 593 1036 q 528 892 576 943 q 404 842 481 842 z "},"Ė":{"ha":519,"x_min":-1,"x_max":582,"o":"m -1 0 l 208 992 l 582 992 l 558 876 l 314 876 l 251 575 l 478 575 l 453 460 l 226 460 l 153 115 l 397 115 l 372 0 l -1 0 m 419 1075 q 373 1092 389 1075 q 357 1138 357 1110 q 379 1210 357 1178 q 444 1242 401 1242 q 479 1235 465 1242 q 499 1215 493 1228 q 506 1179 506 1201 q 483 1106 506 1138 q 419 1075 460 1075 z "},"ė":{"ha":547,"x_min":32,"x_max":526,"o":"m 235 -14 q 126 13 172 -14 q 56 92 81 40 q 32 218 32 144 q 56 426 32 328 q 124 599 81 524 q 229 718 168 675 q 365 761 290 761 q 483 720 439 761 q 526 601 526 679 q 502 488 526 538 q 433 403 478 438 q 323 350 388 368 q 176 332 258 332 l 167 332 q 158 283 161 307 q 156 232 156 258 q 183 124 156 158 q 265 90 211 90 q 339 101 306 90 q 415 135 372 111 l 415 33 q 331 -3 375 8 q 235 -14 286 -14 m 188 426 q 316 447 268 426 q 387 506 364 468 q 410 593 410 543 q 394 642 410 624 q 347 660 379 660 q 283 630 314 660 q 226 548 251 600 q 183 426 201 496 l 188 426 m 408 865 q 362 883 378 865 q 346 928 346 900 q 368 1000 346 968 q 433 1032 390 1032 q 468 1025 454 1032 q 488 1005 482 1018 q 494 969 494 992 q 472 897 494 928 q 408 865 449 865 z "},"Ę":{"ha":519,"x_min":-1,"x_max":582,"o":"m -1 0 l 208 992 l 582 992 l 558 876 l 314 876 l 251 575 l 478 575 l 453 460 l 226 460 l 153 115 l 397 115 l 372 0 l -1 0 m 217 -314 q 135 -285 163 -314 q 108 -212 108 -256 q 124 -137 108 -172 q 172 -67 140 -101 q 249 0 203 -33 l 329 0 q 266 -67 290 -36 q 231 -125 242 -97 q 219 -181 219 -153 q 230 -212 219 -201 q 260 -224 240 -224 q 285 -221 271 -224 q 314 -215 299 -218 l 294 -301 q 257 -312 276 -310 q 217 -314 238 -314 z "},"ę":{"ha":547,"x_min":32,"x_max":526,"o":"m 260 -297 q 182 -267 208 -297 q 156 -193 156 -237 q 171 -118 156 -153 q 217 -49 186 -83 q 293 18 247 -15 l 397 26 q 322 -40 351 -7 q 280 -103 293 -72 q 265 -162 267 -135 q 276 -194 265 -183 q 306 -206 288 -206 q 330 -203 317 -206 q 358 -199 343 -201 l 339 -283 q 301 -294 321 -292 q 260 -297 282 -297 m 235 -14 q 126 13 172 -14 q 56 92 81 40 q 32 218 32 144 q 56 426 32 328 q 124 599 81 524 q 229 718 168 675 q 365 761 290 761 q 483 720 439 761 q 526 601 526 679 q 502 488 526 538 q 433 403 478 438 q 323 350 388 368 q 176 332 258 332 l 167 332 q 158 283 161 307 q 156 232 156 258 q 183 124 156 158 q 265 90 211 90 q 339 101 306 90 q 415 135 372 111 l 415 33 q 331 -3 375 8 q 235 -14 286 -14 m 188 426 q 316 447 268 426 q 387 506 364 468 q 410 593 410 543 q 394 642 410 624 q 347 660 379 660 q 283 630 314 660 q 226 548 251 600 q 183 426 201 496 l 188 426 z "},"Ě":{"ha":519,"x_min":-1,"x_max":624,"o":"m -1 0 l 208 992 l 582 992 l 558 876 l 314 876 l 251 575 l 478 575 l 453 460 l 226 460 l 153 115 l 397 115 l 372 0 l -1 0 m 344 1071 q 325 1135 339 1096 q 297 1215 311 1175 q 268 1278 282 1254 l 272 1293 l 344 1293 q 366 1262 354 1281 q 392 1220 378 1243 q 419 1169 406 1197 q 488 1240 456 1208 q 549 1293 521 1271 l 624 1293 l 621 1279 q 567 1217 600 1257 q 503 1138 533 1178 q 457 1071 472 1097 l 344 1071 z "},"ě":{"ha":547,"x_min":32,"x_max":600,"o":"m 235 -14 q 126 13 172 -14 q 56 92 81 40 q 32 218 32 144 q 56 426 32 328 q 124 599 81 524 q 229 718 168 675 q 365 761 290 761 q 483 720 439 761 q 526 601 526 679 q 502 488 526 538 q 433 403 478 438 q 323 350 388 368 q 176 332 258 332 l 167 332 q 158 283 161 307 q 156 232 156 258 q 183 124 156 158 q 265 90 211 90 q 339 101 306 90 q 415 135 372 111 l 415 33 q 331 -3 375 8 q 235 -14 286 -14 m 188 426 q 316 447 268 426 q 387 506 364 468 q 410 593 410 543 q 394 642 410 624 q 347 660 379 660 q 283 630 314 660 q 226 548 251 600 q 183 426 201 496 l 188 426 m 321 842 q 301 906 315 867 q 273 985 288 946 q 244 1049 258 1025 l 249 1064 l 321 1064 q 342 1033 331 1051 q 368 991 354 1014 q 396 940 382 968 q 465 1010 432 979 q 525 1064 497 1042 l 600 1064 l 597 1050 q 543 988 576 1028 q 479 908 510 949 q 433 842 449 868 l 321 842 z "},"Ĝ":{"ha":694,"x_min":50,"x_max":728,"o":"m 321 -14 q 117 67 183 -14 q 50 303 50 147 q 71 520 50 415 q 133 714 92 625 q 231 868 174 803 q 359 970 288 933 q 514 1007 431 1007 q 633 990 578 1007 q 728 944 689 972 l 665 833 q 587 876 626 863 q 503 890 547 890 q 372 838 431 890 q 271 701 313 786 q 207 513 229 615 q 185 311 185 411 q 201 192 185 239 q 250 124 217 146 q 333 103 283 103 q 385 106 360 103 q 435 118 410 110 l 499 419 l 381 419 l 404 532 l 651 532 l 544 32 q 428 -2 486 10 q 321 -14 371 -14 m 339 1085 q 399 1154 369 1119 q 455 1224 429 1189 q 503 1293 481 1260 l 615 1293 q 634 1228 621 1268 q 663 1150 647 1189 q 690 1086 679 1111 l 688 1071 l 615 1071 q 590 1107 603 1088 q 565 1149 578 1126 q 539 1194 551 1171 q 472 1125 504 1157 q 411 1071 439 1093 l 336 1071 l 339 1085 z "},"ĝ":{"ha":600,"x_min":-32,"x_max":600,"o":"m 135 -333 q 42 -320 86 -333 q -32 -289 -3 -307 l -32 -172 q 14 -197 -14 -185 q 74 -218 42 -210 q 136 -226 106 -226 q 246 -181 206 -226 q 307 -51 286 -136 l 317 -4 q 327 38 321 11 q 342 92 333 64 l 339 92 q 290 32 315 56 q 235 -3 264 8 q 175 -14 207 -14 q 97 10 129 -14 q 48 79 65 33 q 31 192 31 125 q 42 330 31 254 q 78 482 54 406 q 139 622 103 558 q 224 724 175 685 q 335 763 272 763 q 395 750 371 763 q 435 714 419 738 q 461 654 451 690 l 464 654 l 493 749 l 600 749 l 433 -47 q 373 -210 413 -147 q 274 -303 333 -274 q 135 -333 215 -333 m 225 96 q 284 119 257 96 q 333 183 311 143 q 371 273 354 224 q 399 374 388 322 q 416 473 410 425 q 422 556 422 521 q 403 626 422 601 q 349 651 383 651 q 283 619 313 651 q 230 537 253 588 q 192 426 207 486 q 169 309 176 367 q 161 208 161 251 q 176 124 161 153 q 225 96 192 96 m 196 860 q 256 929 226 894 q 312 999 286 964 q 360 1068 338 1035 l 472 1068 q 491 1003 478 1043 q 520 925 504 964 q 547 861 536 886 l 544 846 l 472 846 q 447 882 460 863 q 422 924 435 901 q 396 969 408 946 q 328 900 361 932 q 268 846 296 868 l 193 846 l 196 860 z "},"Ğ":{"ha":694,"x_min":50,"x_max":728,"o":"m 321 -14 q 117 67 183 -14 q 50 303 50 147 q 71 520 50 415 q 133 714 92 625 q 231 868 174 803 q 359 970 288 933 q 514 1007 431 1007 q 633 990 578 1007 q 728 944 689 972 l 665 833 q 587 876 626 863 q 503 890 547 890 q 372 838 431 890 q 271 701 313 786 q 207 513 229 615 q 185 311 185 411 q 201 192 185 239 q 250 124 217 146 q 333 103 283 103 q 385 106 360 103 q 435 118 410 110 l 499 419 l 381 419 l 404 532 l 651 532 l 544 32 q 428 -2 486 10 q 321 -14 371 -14 m 532 1071 q 448 1088 481 1071 q 401 1138 415 1106 q 386 1211 386 1169 q 388 1240 386 1226 q 390 1265 389 1254 l 469 1265 q 476 1210 469 1232 q 499 1177 483 1188 q 538 1167 514 1167 q 601 1189 578 1167 q 639 1265 625 1211 l 721 1265 q 656 1122 704 1172 q 532 1071 608 1071 z "},"ğ":{"ha":600,"x_min":-32,"x_max":600,"o":"m 135 -333 q 42 -320 86 -333 q -32 -289 -3 -307 l -32 -172 q 14 -197 -14 -185 q 74 -218 42 -210 q 136 -226 106 -226 q 246 -181 206 -226 q 307 -51 286 -136 l 317 -4 q 327 38 321 11 q 342 92 333 64 l 339 92 q 290 32 315 56 q 235 -3 264 8 q 175 -14 207 -14 q 97 10 129 -14 q 48 79 65 33 q 31 192 31 125 q 42 330 31 254 q 78 482 54 406 q 139 622 103 558 q 224 724 175 685 q 335 763 272 763 q 395 750 371 763 q 435 714 419 738 q 461 654 451 690 l 464 654 l 493 749 l 600 749 l 433 -47 q 373 -210 413 -147 q 274 -303 333 -274 q 135 -333 215 -333 m 225 96 q 284 119 257 96 q 333 183 311 143 q 371 273 354 224 q 399 374 388 322 q 416 473 410 425 q 422 556 422 521 q 403 626 422 601 q 349 651 383 651 q 283 619 313 651 q 230 537 253 588 q 192 426 207 486 q 169 309 176 367 q 161 208 161 251 q 176 124 161 153 q 225 96 192 96 m 375 846 q 291 863 324 846 q 244 913 258 881 q 229 986 229 944 q 231 1015 229 1001 q 233 1040 232 1029 l 313 1040 q 319 985 313 1007 q 342 952 326 963 q 381 942 357 942 q 444 964 421 942 q 482 1040 468 986 l 564 1040 q 499 897 547 947 q 375 846 451 846 z "},"Ġ":{"ha":694,"x_min":50,"x_max":728,"o":"m 321 -14 q 117 67 183 -14 q 50 303 50 147 q 71 520 50 415 q 133 714 92 625 q 231 868 174 803 q 359 970 288 933 q 514 1007 431 1007 q 633 990 578 1007 q 728 944 689 972 l 665 833 q 587 876 626 863 q 503 890 547 890 q 372 838 431 890 q 271 701 313 786 q 207 513 229 615 q 185 311 185 411 q 201 192 185 239 q 250 124 217 146 q 333 103 283 103 q 385 106 360 103 q 435 118 410 110 l 499 419 l 381 419 l 404 532 l 651 532 l 544 32 q 428 -2 486 10 q 321 -14 371 -14 m 542 1094 q 495 1112 511 1094 q 479 1157 479 1129 q 501 1229 479 1197 q 567 1261 524 1261 q 601 1254 588 1261 q 622 1234 615 1247 q 628 1199 628 1221 q 605 1126 628 1157 q 542 1094 582 1094 z "},"ġ":{"ha":600,"x_min":-32,"x_max":600,"o":"m 135 -333 q 42 -320 86 -333 q -32 -289 -3 -307 l -32 -172 q 14 -197 -14 -185 q 74 -218 42 -210 q 136 -226 106 -226 q 246 -181 206 -226 q 307 -51 286 -136 l 317 -4 q 327 38 321 11 q 342 92 333 64 l 339 92 q 290 32 315 56 q 235 -3 264 8 q 175 -14 207 -14 q 97 10 129 -14 q 48 79 65 33 q 31 192 31 125 q 42 330 31 254 q 78 482 54 406 q 139 622 103 558 q 224 724 175 685 q 335 763 272 763 q 395 750 371 763 q 435 714 419 738 q 461 654 451 690 l 464 654 l 493 749 l 600 749 l 433 -47 q 373 -210 413 -147 q 274 -303 333 -274 q 135 -333 215 -333 m 225 96 q 284 119 257 96 q 333 183 311 143 q 371 273 354 224 q 399 374 388 322 q 416 473 410 425 q 422 556 422 521 q 403 626 422 601 q 349 651 383 651 q 283 619 313 651 q 230 537 253 588 q 192 426 207 486 q 169 309 176 367 q 161 208 161 251 q 176 124 161 153 q 225 96 192 96 m 388 865 q 341 883 357 865 q 325 928 325 900 q 347 1000 325 968 q 413 1032 369 1032 q 447 1025 433 1032 q 467 1005 461 1018 q 474 969 474 992 q 451 897 474 928 q 388 865 428 865 z "},"Ģ":{"ha":694,"x_min":50,"x_max":728,"o":"m 321 -14 q 117 67 183 -14 q 50 303 50 147 q 71 520 50 415 q 133 714 92 625 q 231 868 174 803 q 359 970 288 933 q 514 1007 431 1007 q 633 990 578 1007 q 728 944 689 972 l 665 833 q 587 876 626 863 q 503 890 547 890 q 372 838 431 890 q 271 701 313 786 q 207 513 229 615 q 185 311 185 411 q 201 192 185 239 q 250 124 217 146 q 333 103 283 103 q 385 106 360 103 q 435 118 410 110 l 499 419 l 381 419 l 404 532 l 651 532 l 544 32 q 428 -2 486 10 q 321 -14 371 -14 m 139 -287 q 172 -228 154 -264 q 207 -153 190 -192 q 232 -85 224 -114 l 353 -85 l 353 -99 q 319 -167 343 -128 q 267 -244 294 -207 q 217 -307 240 -282 l 139 -307 l 139 -287 z "},"ģ":{"ha":600,"x_min":-32,"x_max":600,"o":"m 310 856 q 346 926 324 888 q 394 1001 368 965 q 446 1064 421 1038 l 522 1064 l 524 1049 q 491 988 510 1028 q 455 908 472 949 q 429 842 438 868 l 310 842 l 310 856 m 135 -333 q 42 -320 86 -333 q -32 -289 -3 -307 l -32 -172 q 14 -197 -14 -185 q 74 -218 42 -210 q 136 -226 106 -226 q 246 -181 206 -226 q 307 -51 286 -136 l 317 -4 q 327 38 321 11 q 342 92 333 64 l 339 92 q 290 32 315 56 q 235 -3 264 8 q 175 -14 207 -14 q 97 10 129 -14 q 48 79 65 33 q 31 192 31 125 q 42 330 31 254 q 78 482 54 406 q 139 622 103 558 q 224 724 175 685 q 335 763 272 763 q 395 750 371 763 q 435 714 419 738 q 461 654 451 690 l 464 654 l 493 749 l 600 749 l 433 -47 q 373 -210 413 -147 q 274 -303 333 -274 q 135 -333 215 -333 m 225 96 q 284 119 257 96 q 333 183 311 143 q 371 273 354 224 q 399 374 388 322 q 416 473 410 425 q 422 556 422 521 q 403 626 422 601 q 349 651 383 651 q 283 619 313 651 q 230 537 253 588 q 192 426 207 486 q 169 309 176 367 q 161 208 161 251 q 176 124 161 153 q 225 96 192 96 z "},"Ĥ":{"ha":688,"x_min":-1,"x_max":722,"o":"m -1 0 l 208 992 l 339 992 l 251 576 l 504 576 l 593 992 l 722 992 l 511 0 l 382 0 l 479 460 l 226 460 l 129 0 l -1 0 m 300 1085 q 360 1154 331 1119 q 416 1224 390 1189 q 464 1293 442 1260 l 576 1293 q 595 1228 582 1268 q 624 1150 608 1189 q 651 1086 640 1111 l 649 1071 l 576 1071 q 551 1107 564 1088 q 526 1149 539 1126 q 500 1194 513 1171 q 433 1125 465 1157 q 372 1071 400 1093 l 297 1071 l 300 1085 z "},"ĥ":{"ha":588,"x_min":-3,"x_max":551,"o":"m -3 0 l 221 1056 l 346 1056 l 289 790 q 278 747 285 769 q 267 701 272 724 q 253 657 261 679 l 256 657 q 300 715 276 692 q 353 750 324 738 q 418 763 383 763 q 489 745 460 763 q 535 695 518 728 q 551 614 551 663 q 545 547 551 586 q 532 472 539 507 l 431 0 l 307 0 l 401 450 q 415 520 410 485 q 421 585 421 556 q 407 631 421 615 q 364 647 393 647 q 301 624 329 647 q 250 549 272 600 q 210 414 228 497 l 122 0 l -3 0 m 117 1167 q 177 1236 147 1201 q 233 1306 207 1271 q 281 1375 258 1342 l 393 1375 q 412 1310 399 1350 q 441 1232 425 1271 q 468 1168 457 1193 l 465 1153 l 393 1153 q 368 1189 381 1169 q 342 1231 356 1208 q 317 1276 329 1253 q 249 1207 282 1239 q 189 1153 217 1175 l 114 1153 l 117 1167 z "},"Ħ":{"ha":685,"x_min":-1,"x_max":772,"o":"m -1 0 l 154 735 l 67 735 l 88 832 l 175 832 l 208 992 l 339 992 l 304 832 l 558 832 l 592 992 l 722 992 l 689 832 l 772 832 l 753 735 l 668 735 l 511 0 l 382 0 l 479 460 l 226 460 l 129 0 l -1 0 m 250 571 l 503 571 l 538 735 l 283 735 l 250 571 z "},"ħ":{"ha":589,"x_min":-3,"x_max":549,"o":"m -3 0 l 176 840 l 94 840 l 114 936 l 196 936 l 221 1056 l 346 1056 l 321 936 l 446 936 l 428 840 l 300 840 q 278 745 288 782 q 263 685 269 708 q 250 644 256 663 l 253 644 q 298 702 274 679 q 351 737 322 725 q 414 749 381 749 q 487 732 457 749 q 533 682 517 715 q 549 601 549 649 q 542 533 549 572 q 528 460 535 494 l 431 0 l 307 0 l 399 438 q 413 507 407 472 q 419 572 419 542 q 403 619 419 603 q 361 635 388 635 q 297 609 325 635 q 247 532 268 583 q 208 401 225 481 l 122 0 l -3 0 z "},"Ĩ":{"ha":385,"x_min":-68,"x_max":568,"o":"m -68 0 l -51 71 l 60 99 l 228 893 l 128 921 l 142 992 l 485 992 l 469 921 l 357 893 l 189 99 l 289 71 l 275 0 l -68 0 m 140 1101 q 170 1199 153 1158 q 215 1263 188 1240 q 281 1285 242 1285 q 331 1272 310 1285 q 369 1244 353 1260 q 402 1217 386 1229 q 435 1206 418 1206 q 468 1223 456 1206 q 492 1286 481 1240 l 568 1286 q 536 1178 557 1218 q 489 1121 515 1139 q 433 1103 463 1103 q 384 1115 406 1103 q 345 1144 363 1128 q 312 1172 328 1160 q 278 1183 296 1183 q 241 1163 256 1183 q 217 1101 226 1143 l 140 1101 z "},"ĩ":{"ha":279,"x_min":-3,"x_max":464,"o":"m -3 0 l 156 749 l 281 749 l 121 0 l -3 0 m 36 843 q 66 941 49 900 q 110 1004 83 982 q 176 1026 138 1026 q 227 1014 206 1026 q 265 986 249 1001 q 298 959 282 971 q 331 947 314 947 q 364 965 351 947 q 388 1028 376 982 l 464 1028 q 432 920 453 960 q 385 863 411 881 q 329 844 358 844 q 280 857 301 844 q 241 885 258 869 q 208 913 224 901 q 174 925 192 925 q 137 905 151 925 q 113 843 122 885 l 36 843 z "},"Ī":{"ha":385,"x_min":-68,"x_max":522,"o":"m -68 0 l -51 71 l 60 99 l 228 893 l 128 921 l 142 992 l 485 992 l 469 921 l 357 893 l 189 99 l 289 71 l 275 0 l -68 0 m 161 1104 l 179 1200 l 522 1200 l 501 1104 l 161 1104 z "},"ī":{"ha":279,"x_min":-3,"x_max":422,"o":"m -3 0 l 156 749 l 281 749 l 121 0 l -3 0 m 61 846 l 79 942 l 422 942 l 401 846 l 61 846 z "},"Ĭ":{"ha":385,"x_min":-68,"x_max":528,"o":"m -68 0 l -51 71 l 60 99 l 228 893 l 128 921 l 142 992 l 485 992 l 469 921 l 357 893 l 189 99 l 289 71 l 275 0 l -68 0 m 339 1100 q 255 1117 288 1100 q 208 1167 222 1135 q 193 1240 193 1199 q 194 1269 193 1256 q 197 1294 196 1283 l 276 1294 q 283 1239 276 1261 q 306 1206 290 1217 q 344 1196 321 1196 q 408 1218 385 1196 q 446 1294 432 1240 l 528 1294 q 463 1151 511 1201 q 339 1100 415 1100 z "},"ĭ":{"ha":279,"x_min":-3,"x_max":432,"o":"m -3 0 l 156 749 l 281 749 l 121 0 l -3 0 m 243 842 q 159 859 192 842 q 112 908 126 876 q 97 982 97 940 q 99 1011 97 997 q 101 1036 100 1025 l 181 1036 q 188 981 181 1003 q 210 948 194 958 q 249 938 225 938 q 313 960 289 938 q 350 1036 336 982 l 432 1036 q 367 892 415 943 q 243 842 319 842 z "},"Į":{"ha":385,"x_min":-68,"x_max":485,"o":"m -68 0 l -51 71 l 60 99 l 228 893 l 128 921 l 142 992 l 485 992 l 469 921 l 357 893 l 189 99 l 289 71 l 275 0 l -68 0 m 72 -314 q -9 -285 18 -314 q -36 -212 -36 -256 q -20 -137 -36 -172 q 27 -67 -4 -101 q 104 0 58 -33 l 185 0 q 122 -67 146 -36 q 86 -125 97 -97 q 75 -181 75 -153 q 85 -212 75 -201 q 115 -224 96 -224 q 140 -221 126 -224 q 169 -215 154 -218 l 150 -301 q 113 -312 132 -310 q 72 -314 93 -314 z "},"į":{"ha":279,"x_min":-111,"x_max":335,"o":"m -3 0 l 156 749 l 281 749 l 121 0 l -3 0 m 247 865 q 202 881 217 865 q 188 925 188 896 q 197 975 188 950 q 226 1016 207 1000 q 275 1032 246 1032 q 319 1018 304 1032 q 335 975 335 1004 q 311 897 335 929 q 247 865 288 865 m -4 -314 q -85 -285 -58 -314 q -112 -212 -112 -256 q -97 -137 -112 -172 q -49 -67 -81 -101 q 28 0 -18 -33 l 108 0 q 45 -67 69 -36 q 10 -125 21 -97 q -1 -181 -1 -153 q 9 -212 -1 -201 q 39 -224 19 -224 q 64 -221 50 -224 q 93 -215 78 -218 l 74 -301 q 36 -312 56 -310 q -4 -314 17 -314 z "},"İ":{"ha":385,"x_min":-68,"x_max":485,"o":"m -68 0 l -51 71 l 60 99 l 228 893 l 128 921 l 142 992 l 485 992 l 469 921 l 357 893 l 189 99 l 289 71 l 275 0 l -68 0 m 347 1124 q 301 1141 317 1124 q 285 1186 285 1158 q 307 1258 285 1226 q 372 1290 329 1290 q 407 1283 393 1290 q 427 1263 421 1276 q 433 1228 433 1250 q 410 1155 433 1186 q 347 1124 388 1124 z "},"Ĳ":{"ha":689,"x_min":-68,"x_max":733,"o":"m -68 0 l -51 71 l 60 99 l 228 893 l 128 921 l 142 992 l 485 992 l 469 921 l 357 893 l 189 99 l 289 71 l 275 0 l -68 0 m 285 -274 q 229 -269 253 -274 q 186 -257 206 -265 l 214 -142 q 247 -153 231 -149 q 281 -158 264 -158 q 335 -137 314 -158 q 371 -77 357 -115 q 396 10 385 -39 l 603 992 l 733 992 l 521 -11 q 469 -162 501 -104 q 391 -247 436 -219 q 285 -274 346 -274 z "},"ĳ":{"ha":560,"x_min":-3,"x_max":615,"o":"m -3 0 l 156 749 l 281 749 l 121 0 l -3 0 m 247 865 q 202 881 217 865 q 188 925 188 896 q 197 975 188 950 q 226 1016 207 1000 q 275 1032 246 1032 q 319 1018 304 1032 q 335 975 335 1004 q 311 897 335 929 q 247 865 288 865 m 176 -333 q 138 -331 157 -333 q 101 -322 118 -329 l 101 -211 q 130 -219 113 -217 q 161 -221 147 -221 q 210 -206 192 -221 q 240 -156 228 -192 q 265 -58 253 -119 l 436 749 l 560 749 l 386 -68 q 348 -207 371 -147 q 285 -300 325 -267 q 176 -333 244 -333 m 528 865 q 483 881 497 865 q 468 925 468 896 q 478 975 468 950 q 507 1016 488 1000 q 556 1032 526 1032 q 600 1018 585 1032 q 615 975 615 1004 q 592 897 615 929 q 528 865 568 865 z "},"Ĵ":{"ha":296,"x_min":-207,"x_max":458,"o":"m -108 -274 q -164 -269 -140 -274 q -207 -257 -187 -265 l -179 -142 q -146 -153 -162 -149 q -112 -158 -129 -158 q -58 -137 -79 -158 q -22 -77 -36 -115 q 3 10 -8 -39 l 210 992 l 340 992 l 128 -11 q 76 -162 108 -104 q -2 -247 43 -219 q -108 -274 -47 -274 m 107 1085 q 167 1154 138 1119 q 223 1224 197 1189 q 271 1293 249 1260 l 383 1293 q 402 1228 389 1268 q 431 1150 415 1189 q 458 1086 447 1111 l 456 1071 l 383 1071 q 358 1107 371 1088 q 333 1149 346 1126 q 307 1194 319 1171 q 240 1125 272 1157 q 179 1071 207 1093 l 104 1071 l 107 1085 z "},"ĵ":{"ha":279,"x_min":-178,"x_max":404,"o":"m -103 -333 q -142 -331 -122 -333 q -178 -322 -161 -329 l -178 -211 q -149 -219 -167 -217 q -118 -221 -132 -221 q -69 -206 -87 -221 q -39 -156 -51 -192 q -14 -58 -26 -119 l 157 749 l 281 749 l 107 -68 q 69 -207 92 -147 q 6 -300 46 -267 q -103 -333 -35 -333 m 53 856 q 113 925 83 890 q 169 995 143 960 q 217 1064 194 1031 l 329 1064 q 348 999 335 1039 q 377 921 361 960 q 404 857 393 882 l 401 842 l 329 842 q 304 878 317 858 q 278 919 292 897 q 253 965 265 942 q 185 896 218 928 q 125 842 153 864 l 50 842 l 53 856 z "},"Ķ":{"ha":586,"x_min":-1,"x_max":703,"o":"m -1 0 l 208 992 l 339 992 l 238 513 l 310 628 l 561 992 l 703 992 l 390 536 l 501 0 l 361 0 l 278 439 l 207 369 l 129 0 l -1 0 m 76 -287 q 110 -228 92 -264 q 144 -153 128 -192 q 169 -85 161 -114 l 290 -85 l 290 -99 q 256 -167 281 -128 q 205 -244 232 -207 q 154 -307 178 -282 l 76 -307 l 76 -287 z "},"ķ":{"ha":528,"x_min":-3,"x_max":592,"o":"m -3 0 l 222 1056 l 347 1056 l 240 561 q 225 494 235 532 q 203 411 215 457 l 206 411 l 456 749 l 592 749 l 363 442 l 446 0 l 313 0 l 254 339 l 174 254 l 122 0 l -3 0 m 47 -287 q 81 -228 63 -264 q 115 -153 99 -192 q 140 -85 132 -114 l 261 -85 l 261 -99 q 227 -167 251 -128 q 176 -244 203 -207 q 125 -307 149 -282 l 47 -307 l 47 -287 z "},"ĸ":{"ha":529,"x_min":-3,"x_max":592,"o":"m -3 0 l 157 749 l 282 749 l 240 561 q 224 494 233 531 q 203 411 215 457 l 206 411 l 456 749 l 592 749 l 363 442 l 446 0 l 313 0 l 254 339 l 174 254 l 122 0 l -3 0 z "},"Ĺ":{"ha":482,"x_min":-1,"x_max":582,"o":"m -1 0 l 208 992 l 339 992 l 153 115 l 394 115 l 372 0 l -1 0 m 285 1101 q 342 1175 315 1139 q 393 1245 369 1211 q 435 1311 417 1279 l 582 1311 l 581 1300 q 539 1251 567 1281 q 478 1190 511 1221 q 417 1132 446 1160 q 368 1089 388 1104 l 282 1089 l 285 1101 z "},"ĺ":{"ha":276,"x_min":-3,"x_max":514,"o":"m -3 0 l 222 1056 l 347 1056 l 122 0 l -3 0 m 217 1158 q 274 1232 247 1196 q 325 1302 301 1268 q 367 1368 349 1336 l 514 1368 l 513 1357 q 471 1308 499 1338 q 410 1247 443 1278 q 349 1189 378 1217 q 300 1146 319 1161 l 214 1146 l 217 1158 z "},"Ļ":{"ha":482,"x_min":-1,"x_max":394,"o":"m -1 0 l 208 992 l 339 992 l 153 115 l 394 115 l 372 0 l -1 0 m 19 -287 q 53 -228 35 -264 q 88 -153 71 -192 q 113 -85 104 -114 l 233 -85 l 233 -99 q 199 -167 224 -128 q 148 -244 175 -207 q 97 -307 121 -282 l 19 -307 l 19 -287 z "},"ļ":{"ha":276,"x_min":-89,"x_max":347,"o":"m -3 0 l 222 1056 l 347 1056 l 122 0 l -3 0 m -89 -287 q -56 -228 -74 -264 q -21 -153 -37 -192 q 4 -85 -4 -114 l 125 -85 l 125 -99 q 91 -167 115 -128 q 40 -244 67 -207 q -11 -307 13 -282 l -89 -307 l -89 -287 z "},"Ľ":{"ha":482,"x_min":-1,"x_max":574,"o":"m 376 782 q 408 856 394 819 q 433 926 421 892 q 451 992 444 961 l 574 992 l 574 978 q 541 909 561 947 q 498 833 521 871 q 454 769 475 796 l 376 769 l 376 782 m -1 0 l 208 992 l 339 992 l 153 115 l 394 115 l 372 0 l -1 0 z "},"ľ":{"ha":400,"x_min":-3,"x_max":564,"o":"m 367 846 q 397 921 383 885 q 422 991 411 957 q 440 1056 433 1025 l 564 1056 l 564 1042 q 531 974 551 1013 q 487 898 510 935 q 443 833 464 861 l 367 833 l 367 846 m -3 0 l 222 1056 l 347 1056 l 122 0 l -3 0 z "},"Ŀ":{"ha":482,"x_min":-1,"x_max":474,"o":"m -1 0 l 208 992 l 339 992 l 153 115 l 394 115 l 372 0 l -1 0 m 388 428 q 341 445 357 428 q 325 490 325 463 q 347 563 325 531 q 413 594 369 594 q 447 588 433 594 q 467 567 461 581 q 474 532 474 554 q 451 459 474 490 q 388 428 428 428 z "},"ŀ":{"ha":424,"x_min":-3,"x_max":450,"o":"m -3 0 l 222 1056 l 347 1056 l 122 0 l -3 0 m 363 382 q 316 399 332 382 q 300 444 300 417 q 322 517 300 485 q 388 549 344 549 q 422 542 408 549 q 442 522 436 535 q 449 486 449 508 q 426 413 449 444 q 363 382 403 382 z "},"Ł":{"ha":492,"x_min":-33,"x_max":444,"o":"m 11 0 l 89 365 l 15 322 l -33 404 l 118 500 l 221 992 l 351 992 l 269 603 l 393 679 l 444 601 l 239 467 l 165 115 l 407 115 l 385 0 l 11 0 z "},"ł":{"ha":319,"x_min":-8,"x_max":397,"o":"m 13 0 l 106 438 l 29 396 l -8 482 l 129 554 l 236 1056 l 361 1056 l 267 617 l 358 667 l 397 582 l 243 500 l 136 0 l 13 0 z "},"Ń":{"ha":732,"x_min":-1,"x_max":768,"o":"m -1 0 l 208 992 l 360 992 l 485 236 l 489 236 q 506 330 497 283 q 522 416 514 376 q 535 482 531 456 l 643 992 l 768 992 l 557 0 l 410 0 l 282 769 l 278 769 q 265 691 272 732 q 251 611 258 650 q 237 541 243 572 q 226 490 231 510 l 122 0 l -1 0 m 433 1101 q 491 1175 464 1139 q 542 1245 518 1211 q 583 1311 565 1279 l 731 1311 l 729 1300 q 688 1251 715 1281 q 627 1190 660 1221 q 565 1132 594 1160 q 517 1089 536 1104 l 431 1089 l 433 1101 z "},"ń":{"ha":588,"x_min":-4,"x_max":608,"o":"m -4 0 l 156 749 l 257 749 l 244 650 l 249 650 q 294 711 269 686 q 349 749 319 736 q 413 763 379 763 q 483 747 451 763 q 533 700 514 732 q 551 615 551 668 q 545 551 551 588 q 532 479 539 515 l 431 0 l 306 0 l 403 457 q 415 525 410 490 q 421 585 421 560 q 408 631 421 615 q 365 647 394 647 q 297 618 326 647 q 246 534 268 589 q 207 400 224 479 l 122 0 l -4 0 m 310 856 q 367 929 340 893 q 418 999 394 965 q 460 1065 442 1033 l 607 1065 l 606 1054 q 564 1005 592 1035 q 503 944 536 975 q 442 886 471 914 q 393 843 413 858 l 307 843 l 310 856 z "},"Ņ":{"ha":732,"x_min":-1,"x_max":768,"o":"m -1 0 l 208 992 l 360 992 l 485 236 l 489 236 q 506 330 497 283 q 522 416 514 376 q 535 482 531 456 l 643 992 l 768 992 l 557 0 l 410 0 l 282 769 l 278 769 q 265 691 272 732 q 251 611 258 650 q 237 541 243 572 q 226 490 231 510 l 122 0 l -1 0 m 142 -287 q 175 -228 157 -264 q 210 -153 193 -192 q 235 -85 226 -114 l 356 -85 l 356 -99 q 322 -167 346 -128 q 270 -244 297 -207 q 219 -307 243 -282 l 142 -307 l 142 -287 z "},"ņ":{"ha":588,"x_min":-4,"x_max":551,"o":"m -4 0 l 156 749 l 257 749 l 244 650 l 249 650 q 294 711 269 686 q 349 749 319 736 q 413 763 379 763 q 483 747 451 763 q 533 700 514 732 q 551 615 551 668 q 545 551 551 588 q 532 479 539 515 l 431 0 l 306 0 l 403 457 q 415 525 410 490 q 421 585 421 560 q 408 631 421 615 q 365 647 394 647 q 297 618 326 647 q 246 534 268 589 q 207 400 224 479 l 122 0 l -4 0 m 68 -287 q 101 -228 83 -264 q 136 -153 119 -192 q 161 -85 153 -114 l 282 -85 l 282 -99 q 248 -167 272 -128 q 197 -244 224 -207 q 146 -307 169 -282 l 68 -307 l 68 -287 z "},"Ň":{"ha":732,"x_min":-1,"x_max":768,"o":"m -1 0 l 208 992 l 360 992 l 485 236 l 489 236 q 506 330 497 283 q 522 416 514 376 q 535 482 531 456 l 643 992 l 768 992 l 557 0 l 410 0 l 282 769 l 278 769 q 265 691 272 732 q 251 611 258 650 q 237 541 243 572 q 226 490 231 510 l 122 0 l -1 0 m 432 1071 q 413 1135 426 1096 q 384 1215 399 1175 q 356 1278 369 1254 l 360 1293 l 432 1293 q 453 1262 442 1281 q 479 1220 465 1243 q 507 1169 493 1197 q 576 1240 543 1208 q 636 1293 608 1271 l 711 1293 l 708 1279 q 654 1217 688 1257 q 590 1138 621 1178 q 544 1071 560 1097 l 432 1071 z "},"ň":{"ha":588,"x_min":-4,"x_max":600,"o":"m -4 0 l 156 749 l 257 749 l 244 650 l 249 650 q 294 711 269 686 q 349 749 319 736 q 413 763 379 763 q 483 747 451 763 q 533 700 514 732 q 551 615 551 668 q 545 551 551 588 q 532 479 539 515 l 431 0 l 306 0 l 403 457 q 415 525 410 490 q 421 585 421 560 q 408 631 421 615 q 365 647 394 647 q 297 618 326 647 q 246 534 268 589 q 207 400 224 479 l 122 0 l -4 0 m 321 842 q 301 906 315 867 q 273 985 288 946 q 244 1049 258 1025 l 249 1064 l 321 1064 q 342 1033 331 1051 q 368 991 354 1014 q 396 940 382 968 q 465 1010 432 979 q 525 1064 497 1042 l 600 1064 l 597 1050 q 543 988 576 1028 q 479 908 510 949 q 433 842 449 868 l 321 842 z "},"ŉ":{"ha":672,"x_min":13,"x_max":636,"o":"m 81 0 l 240 749 l 342 749 l 329 650 l 333 650 q 379 711 354 686 q 434 749 404 736 q 497 763 464 763 q 567 747 536 763 q 617 700 599 732 q 636 615 636 668 q 630 551 636 588 q 617 479 624 515 l 515 0 l 390 0 l 488 457 q 500 525 494 490 q 506 585 506 560 q 492 631 506 615 q 450 647 479 647 q 382 618 411 647 q 331 534 353 589 q 292 400 308 479 l 207 0 l 81 0 m 13 644 q 62 760 39 701 q 105 876 85 818 q 142 992 125 935 l 268 992 l 272 976 q 226 863 251 919 q 172 751 200 806 q 113 644 143 696 l 13 644 z "},"Ŋ":{"ha":732,"x_min":-1,"x_max":768,"o":"m 315 -272 q 268 -267 292 -272 q 226 -254 244 -262 l 251 -137 q 285 -150 267 -146 q 321 -154 303 -154 q 372 -138 351 -154 q 406 -89 392 -122 q 428 -7 419 -56 l 286 786 l 281 786 q 274 740 278 764 q 267 692 271 717 q 258 644 263 668 q 247 597 253 621 l 122 0 l -1 0 l 208 992 l 364 992 l 492 263 l 496 263 q 504 319 500 292 q 514 375 508 347 q 525 431 519 403 l 643 992 l 768 992 l 561 17 q 515 -136 542 -71 q 441 -237 488 -201 q 315 -272 394 -272 z "},"ŋ":{"ha":586,"x_min":-4,"x_max":551,"o":"m 204 -333 q 162 -331 181 -333 q 129 -322 143 -328 l 129 -211 q 159 -219 142 -217 q 190 -221 176 -221 q 238 -207 219 -221 q 269 -157 256 -193 q 294 -58 282 -121 l 403 457 q 415 525 410 490 q 421 585 421 560 q 408 631 421 615 q 365 647 394 647 q 297 619 326 647 q 247 538 268 592 q 210 413 225 485 l 122 0 l -4 0 l 156 749 l 257 749 l 244 650 l 249 650 q 294 711 269 686 q 349 749 319 736 q 413 763 379 763 q 483 747 451 763 q 533 700 514 732 q 551 615 551 668 q 545 551 551 588 q 532 479 539 515 l 415 -68 q 369 -224 394 -167 q 305 -308 343 -282 q 204 -333 267 -333 z "},"Ō":{"ha":706,"x_min":49,"x_max":688,"o":"m 276 -14 q 149 18 200 -14 q 74 117 99 50 q 49 285 49 183 q 60 442 49 360 q 94 606 72 525 q 152 758 117 686 q 233 886 188 831 q 337 974 279 942 q 463 1006 394 1006 q 633 934 578 1006 q 688 717 688 863 q 678 573 688 651 q 647 412 668 494 q 592 253 625 329 q 514 117 560 178 q 409 22 468 57 q 276 -14 350 -14 m 286 104 q 368 134 331 104 q 435 215 406 164 q 488 331 465 267 q 525 465 510 396 q 547 600 540 535 q 554 719 554 665 q 529 849 554 807 q 453 890 504 890 q 366 858 404 890 q 297 772 328 826 q 246 652 267 718 q 211 518 225 586 q 190 389 197 450 q 183 283 183 328 q 195 178 183 218 q 230 122 207 139 q 286 104 253 104 m 310 1075 l 328 1171 l 671 1171 l 650 1075 l 310 1075 z "},"ō":{"ha":581,"x_min":33,"x_max":564,"o":"m 221 -14 q 120 13 163 -14 q 56 91 78 39 q 33 217 33 143 q 44 347 33 275 q 78 491 54 418 q 141 625 103 564 q 234 724 179 686 q 361 763 289 763 q 461 735 419 763 q 525 655 503 707 q 547 529 547 603 q 535 386 547 461 q 497 240 522 311 q 433 112 472 169 q 342 20 394 54 q 221 -14 289 -14 m 235 94 q 299 124 269 94 q 350 201 328 153 q 388 308 372 250 q 413 424 404 365 q 421 531 421 482 q 413 598 421 569 q 388 640 404 626 q 346 654 371 654 q 277 623 307 654 q 225 541 247 592 q 188 431 203 490 q 167 315 174 372 q 160 215 160 258 q 178 126 160 157 q 235 94 197 94 m 203 846 l 221 942 l 564 942 l 543 846 l 203 846 z "},"Ŏ":{"ha":706,"x_min":49,"x_max":688,"o":"m 276 -14 q 149 18 200 -14 q 74 117 99 50 q 49 285 49 183 q 60 442 49 360 q 94 606 72 525 q 152 758 117 686 q 233 886 188 831 q 337 974 279 942 q 463 1006 394 1006 q 633 934 578 1006 q 688 717 688 863 q 678 573 688 651 q 647 412 668 494 q 592 253 625 329 q 514 117 560 178 q 409 22 468 57 q 276 -14 350 -14 m 286 104 q 368 134 331 104 q 435 215 406 164 q 488 331 465 267 q 525 465 510 396 q 547 600 540 535 q 554 719 554 665 q 529 849 554 807 q 453 890 504 890 q 366 858 404 890 q 297 772 328 826 q 246 652 267 718 q 211 518 225 586 q 190 389 197 450 q 183 283 183 328 q 195 178 183 218 q 230 122 207 139 q 286 104 253 104 m 492 1071 q 408 1088 440 1071 q 360 1138 375 1106 q 346 1211 346 1169 q 347 1240 346 1226 q 350 1265 349 1254 l 429 1265 q 436 1210 429 1232 q 458 1177 443 1188 q 497 1167 474 1167 q 561 1189 538 1167 q 599 1265 585 1211 l 681 1265 q 616 1122 664 1172 q 492 1071 568 1071 z "},"ŏ":{"ha":581,"x_min":33,"x_max":581,"o":"m 221 -14 q 120 13 163 -14 q 56 91 78 39 q 33 217 33 143 q 44 347 33 275 q 78 491 54 418 q 141 625 103 564 q 234 724 179 686 q 361 763 289 763 q 461 735 419 763 q 525 655 503 707 q 547 529 547 603 q 535 386 547 461 q 497 240 522 311 q 433 112 472 169 q 342 20 394 54 q 221 -14 289 -14 m 235 94 q 299 124 269 94 q 350 201 328 153 q 388 308 372 250 q 413 424 404 365 q 421 531 421 482 q 413 598 421 569 q 388 640 404 626 q 346 654 371 654 q 277 623 307 654 q 225 541 247 592 q 188 431 203 490 q 167 315 174 372 q 160 215 160 258 q 178 126 160 157 q 235 94 197 94 m 393 842 q 309 859 342 842 q 262 908 276 876 q 247 982 247 940 q 249 1011 247 997 q 251 1036 250 1025 l 331 1036 q 338 981 331 1003 q 360 948 344 958 q 399 938 375 938 q 463 960 439 938 q 500 1036 486 982 l 582 1036 q 517 892 565 943 q 393 842 469 842 z "},"Ő":{"ha":706,"x_min":49,"x_max":801,"o":"m 276 -14 q 149 18 200 -14 q 74 117 99 50 q 49 285 49 183 q 60 442 49 360 q 94 606 72 525 q 152 758 117 686 q 233 886 188 831 q 337 974 279 942 q 463 1006 394 1006 q 633 934 578 1006 q 688 717 688 863 q 678 573 688 651 q 647 412 668 494 q 592 253 625 329 q 514 117 560 178 q 409 22 468 57 q 276 -14 350 -14 m 286 104 q 368 134 331 104 q 435 215 406 164 q 488 331 465 267 q 525 465 510 396 q 547 600 540 535 q 554 719 554 665 q 529 849 554 807 q 453 890 504 890 q 366 858 404 890 q 297 772 328 826 q 246 652 267 718 q 211 518 225 586 q 190 389 197 450 q 183 283 183 328 q 195 178 183 218 q 230 122 207 139 q 286 104 253 104 m 526 1085 q 589 1166 561 1128 q 638 1237 617 1204 q 672 1293 660 1269 l 801 1293 l 800 1282 q 761 1233 786 1261 q 706 1175 736 1206 q 647 1117 676 1144 q 592 1071 617 1090 l 524 1071 l 526 1085 m 315 1085 q 376 1167 349 1128 q 426 1238 404 1206 q 460 1293 447 1269 l 589 1293 l 588 1282 q 549 1233 574 1260 q 494 1176 525 1206 q 433 1119 464 1146 q 375 1071 401 1092 l 313 1071 l 315 1085 z "},"ő":{"ha":581,"x_min":33,"x_max":710,"o":"m 221 -14 q 120 13 163 -14 q 56 91 78 39 q 33 217 33 143 q 44 347 33 275 q 78 491 54 418 q 141 625 103 564 q 234 724 179 686 q 361 763 289 763 q 461 735 419 763 q 525 655 503 707 q 547 529 547 603 q 535 386 547 461 q 497 240 522 311 q 433 112 472 169 q 342 20 394 54 q 221 -14 289 -14 m 235 94 q 299 124 269 94 q 350 201 328 153 q 388 308 372 250 q 413 424 404 365 q 421 531 421 482 q 413 598 421 569 q 388 640 404 626 q 346 654 371 654 q 277 623 307 654 q 225 541 247 592 q 188 431 203 490 q 167 315 174 372 q 160 215 160 258 q 178 126 160 157 q 235 94 197 94 m 435 856 q 497 937 469 899 q 547 1008 525 975 q 581 1064 568 1040 l 710 1064 l 708 1053 q 669 1004 694 1032 q 615 946 644 976 q 555 888 585 915 q 500 842 525 861 l 432 842 l 435 856 m 224 856 q 285 938 257 899 q 334 1008 313 976 q 368 1064 356 1040 l 497 1064 l 496 1053 q 458 1003 482 1031 q 403 947 433 976 q 341 890 372 917 q 283 842 310 863 l 221 842 l 224 856 z "},"Œ":{"ha":832,"x_min":49,"x_max":897,"o":"m 271 -8 q 147 27 196 -8 q 73 126 97 63 q 49 275 49 190 q 62 456 49 358 q 105 650 75 554 q 183 825 135 746 q 298 952 231 904 q 454 1000 365 1000 q 517 998 486 1000 q 567 992 549 996 l 897 992 l 872 876 l 629 876 l 565 575 l 792 575 l 768 460 l 540 460 l 467 115 l 711 115 l 688 0 l 360 0 q 322 -5 346 -1 q 271 -8 299 -8 m 297 110 q 323 111 313 110 q 340 114 333 113 l 500 875 q 481 882 492 879 q 453 885 469 885 q 356 844 399 885 q 280 737 313 803 q 226 591 247 671 q 194 432 206 511 q 183 288 183 353 q 195 188 183 228 q 232 129 207 149 q 297 110 257 110 z "},"œ":{"ha":894,"x_min":33,"x_max":876,"o":"m 211 -14 q 81 47 129 -14 q 33 219 33 107 q 43 340 33 271 q 76 483 53 410 q 136 620 99 557 q 228 723 174 683 q 356 763 282 763 q 458 726 422 763 q 504 618 493 689 q 600 724 544 686 q 715 761 656 761 q 833 720 789 761 q 876 601 876 679 q 853 488 876 538 q 783 403 829 438 q 673 350 738 368 q 526 332 608 332 l 515 332 q 509 282 511 307 q 507 232 507 257 q 534 124 507 158 q 617 90 561 90 q 693 102 656 90 q 767 135 731 114 l 767 36 q 680 -1 725 11 q 586 -14 635 -14 q 505 2 539 -14 q 449 50 471 18 q 417 129 428 82 q 329 24 381 61 q 211 -14 278 -14 m 235 93 q 299 123 269 93 q 350 201 328 153 q 388 308 372 250 q 413 426 404 367 q 421 535 421 485 q 402 624 421 594 q 346 653 383 653 q 280 624 310 653 q 228 544 250 594 q 190 436 206 494 q 167 319 175 378 q 160 214 160 261 q 178 124 160 154 q 235 93 197 93 m 540 426 q 668 447 619 426 q 738 506 717 468 q 760 593 760 544 q 745 642 760 624 q 699 660 731 660 q 626 624 660 660 q 568 533 592 588 q 535 426 544 479 l 540 426 z "},"Ŕ":{"ha":599,"x_min":-1,"x_max":651,"o":"m -1 0 l 208 992 l 369 992 q 548 935 488 992 q 608 774 608 878 q 583 621 608 692 q 513 501 558 550 q 407 435 468 453 l 499 0 l 357 0 l 283 408 l 215 408 l 129 0 l -1 0 m 293 517 q 374 538 340 517 q 428 592 407 558 q 461 669 450 625 q 472 757 472 713 q 442 848 472 818 q 353 878 411 878 l 314 878 l 239 517 l 293 517 m 354 1101 q 412 1175 385 1139 q 463 1245 439 1211 q 504 1311 486 1279 l 651 1311 l 650 1300 q 608 1251 636 1281 q 548 1190 581 1221 q 486 1132 515 1160 q 438 1089 457 1104 l 351 1089 l 354 1101 z "},"ŕ":{"ha":400,"x_min":-3,"x_max":518,"o":"m -3 0 l 156 749 l 253 749 l 239 628 l 243 628 q 290 703 265 674 q 344 748 314 733 q 411 763 374 763 q 438 760 425 763 q 464 753 450 758 l 428 619 q 403 627 415 625 q 374 629 390 629 q 311 608 339 629 q 263 552 283 588 q 227 474 242 517 q 204 389 213 431 l 122 0 l -3 0 m 219 853 q 277 926 250 890 q 328 997 304 963 q 369 1063 351 1031 l 517 1063 l 515 1051 q 474 1002 501 1032 q 413 942 446 972 q 351 883 381 911 q 303 840 322 856 l 217 840 l 219 853 z "},"Ŗ":{"ha":599,"x_min":-1,"x_max":608,"o":"m -1 0 l 208 992 l 369 992 q 548 935 488 992 q 608 774 608 878 q 583 621 608 692 q 513 501 558 550 q 407 435 468 453 l 499 0 l 357 0 l 283 408 l 215 408 l 129 0 l -1 0 m 293 517 q 374 538 340 517 q 428 592 407 558 q 461 669 450 625 q 472 757 472 713 q 442 848 472 818 q 353 878 411 878 l 314 878 l 239 517 l 293 517 m 83 -287 q 117 -228 99 -264 q 151 -153 135 -192 q 176 -85 168 -114 l 297 -85 l 297 -99 q 263 -167 288 -128 q 212 -244 239 -207 q 161 -307 185 -282 l 83 -307 l 83 -287 z "},"ŗ":{"ha":400,"x_min":-46,"x_max":464,"o":"m -3 0 l 156 749 l 253 749 l 239 628 l 243 628 q 290 703 265 674 q 344 748 314 733 q 411 763 374 763 q 438 760 425 763 q 464 753 450 758 l 428 619 q 403 627 415 625 q 374 629 390 629 q 311 608 339 629 q 263 552 283 588 q 227 474 242 517 q 204 389 213 431 l 122 0 l -3 0 m -46 -287 q -12 -228 -31 -264 q 22 -153 6 -192 q 47 -85 39 -114 l 168 -85 l 168 -99 q 134 -167 158 -128 q 83 -244 110 -207 q 32 -307 56 -282 l -46 -307 l -46 -287 z "},"Ř":{"ha":599,"x_min":-1,"x_max":631,"o":"m -1 0 l 208 992 l 369 992 q 548 935 488 992 q 608 774 608 878 q 583 621 608 692 q 513 501 558 550 q 407 435 468 453 l 499 0 l 357 0 l 283 408 l 215 408 l 129 0 l -1 0 m 293 517 q 374 538 340 517 q 428 592 407 558 q 461 669 450 625 q 472 757 472 713 q 442 848 472 818 q 353 878 411 878 l 314 878 l 239 517 l 293 517 m 351 1071 q 332 1135 346 1096 q 303 1215 318 1175 q 275 1278 289 1254 l 279 1293 l 351 1293 q 373 1262 361 1281 q 399 1220 385 1243 q 426 1169 413 1197 q 495 1240 463 1208 q 556 1293 528 1271 l 631 1293 l 628 1279 q 574 1217 607 1257 q 510 1138 540 1178 q 464 1071 479 1097 l 351 1071 z "},"ř":{"ha":400,"x_min":-3,"x_max":539,"o":"m -3 0 l 156 749 l 253 749 l 239 628 l 243 628 q 290 703 265 674 q 344 748 314 733 q 411 763 374 763 q 438 760 425 763 q 464 753 450 758 l 428 619 q 403 627 415 625 q 374 629 390 629 q 311 608 339 629 q 263 552 283 588 q 227 474 242 517 q 204 389 213 431 l 122 0 l -3 0 m 260 842 q 240 906 254 867 q 212 985 226 946 q 183 1049 197 1025 l 188 1064 l 260 1064 q 281 1033 269 1051 q 307 991 293 1014 q 335 940 321 968 q 403 1010 371 979 q 464 1064 436 1042 l 539 1064 l 536 1050 q 482 988 515 1028 q 418 908 449 949 q 372 842 388 868 l 260 842 z "},"Ś":{"ha":535,"x_min":-31,"x_max":626,"o":"m 167 -14 q 53 -1 104 -14 q -31 35 3 11 l -10 169 q 74 126 26 144 q 169 108 121 108 q 231 119 203 108 q 282 151 260 131 q 315 204 304 172 q 326 276 326 236 q 319 340 326 313 q 290 397 311 367 q 226 467 268 426 q 162 540 189 504 q 121 618 135 575 q 107 717 107 661 q 127 835 107 782 q 185 926 147 888 q 276 985 222 964 q 397 1006 331 1006 q 501 990 447 1006 q 589 950 554 975 l 528 833 q 459 871 494 857 q 389 885 424 885 q 332 874 358 885 q 285 844 306 864 q 253 796 264 825 q 242 731 242 767 q 254 665 242 693 q 292 606 267 636 q 356 538 317 576 q 417 466 393 503 q 451 387 440 429 q 463 289 463 344 q 444 169 463 225 q 388 72 425 114 q 294 8 350 31 q 167 -14 239 -14 m 329 1101 q 387 1175 360 1139 q 438 1245 414 1211 q 479 1311 461 1279 l 626 1311 l 625 1300 q 583 1251 611 1281 q 523 1190 556 1221 q 461 1132 490 1160 q 413 1089 432 1104 l 326 1089 l 329 1101 z "},"ś":{"ha":454,"x_min":-14,"x_max":540,"o":"m 149 -14 q 54 -3 96 -14 q -14 22 13 7 l -14 147 q 56 112 14 126 q 135 97 97 97 q 194 110 169 97 q 233 147 219 122 q 246 208 246 172 q 240 253 246 232 q 218 297 235 274 q 169 351 201 321 q 117 412 138 382 q 86 474 96 442 q 76 544 76 507 q 102 654 76 606 q 177 733 128 703 q 294 763 226 763 q 394 748 349 763 q 474 711 440 733 l 419 613 q 360 646 392 635 q 299 657 329 657 q 230 631 256 657 q 204 563 204 606 q 210 519 204 539 q 231 479 215 500 q 274 432 246 458 q 333 366 310 396 q 367 303 356 336 q 378 221 378 269 q 351 99 378 151 q 274 16 325 46 q 149 -14 222 -14 m 243 853 q 301 926 274 890 q 351 997 328 963 q 393 1063 375 1031 l 540 1063 l 539 1051 q 497 1002 525 1032 q 437 942 469 972 q 375 883 404 911 q 326 840 346 856 l 240 840 l 243 853 z "},"Ŝ":{"ha":535,"x_min":-31,"x_max":589,"o":"m 167 -14 q 53 -1 104 -14 q -31 35 3 11 l -10 169 q 74 126 26 144 q 169 108 121 108 q 231 119 203 108 q 282 151 260 131 q 315 204 304 172 q 326 276 326 236 q 319 340 326 313 q 290 397 311 367 q 226 467 268 426 q 162 540 189 504 q 121 618 135 575 q 107 717 107 661 q 127 835 107 782 q 185 926 147 888 q 276 985 222 964 q 397 1006 331 1006 q 501 990 447 1006 q 589 950 554 975 l 528 833 q 459 871 494 857 q 389 885 424 885 q 332 874 358 885 q 285 844 306 864 q 253 796 264 825 q 242 731 242 767 q 254 665 242 693 q 292 606 267 636 q 356 538 317 576 q 417 466 393 503 q 451 387 440 429 q 463 289 463 344 q 444 169 463 225 q 388 72 425 114 q 294 8 350 31 q 167 -14 239 -14 m 225 1085 q 285 1154 256 1119 q 341 1224 315 1189 q 389 1293 367 1260 l 501 1293 q 520 1228 507 1268 q 549 1150 533 1189 q 576 1086 565 1111 l 574 1071 l 501 1071 q 476 1107 489 1088 q 451 1149 464 1126 q 425 1194 438 1171 q 358 1125 390 1157 q 297 1071 325 1093 l 222 1071 l 225 1085 z "},"ŝ":{"ha":454,"x_min":-14,"x_max":488,"o":"m 149 -14 q 54 -3 96 -14 q -14 22 13 7 l -14 147 q 56 112 14 126 q 135 97 97 97 q 194 110 169 97 q 233 147 219 122 q 246 208 246 172 q 240 253 246 232 q 218 297 235 274 q 169 351 201 321 q 117 412 138 382 q 86 474 96 442 q 76 544 76 507 q 102 654 76 606 q 177 733 128 703 q 294 763 226 763 q 394 748 349 763 q 474 711 440 733 l 419 613 q 360 646 392 635 q 299 657 329 657 q 230 631 256 657 q 204 563 204 606 q 210 519 204 539 q 231 479 215 500 q 274 432 246 458 q 333 366 310 396 q 367 303 356 336 q 378 221 378 269 q 351 99 378 151 q 274 16 325 46 q 149 -14 222 -14 m 136 856 q 197 925 167 890 q 252 995 226 960 q 300 1064 278 1031 l 413 1064 q 431 999 418 1039 q 460 921 444 960 q 488 857 476 882 l 485 842 l 413 842 q 388 878 400 858 q 362 919 375 897 q 336 965 349 942 q 269 896 301 928 q 208 842 236 864 l 133 842 l 136 856 z "},"Ş":{"ha":535,"x_min":-31,"x_max":589,"o":"m 167 -14 q 53 -1 104 -14 q -31 35 3 11 l -10 169 q 74 126 26 144 q 169 108 121 108 q 231 119 203 108 q 282 151 260 131 q 315 204 304 172 q 326 276 326 236 q 319 340 326 313 q 290 397 311 367 q 226 467 268 426 q 162 540 189 504 q 121 618 135 575 q 107 717 107 661 q 127 835 107 782 q 185 926 147 888 q 276 985 222 964 q 397 1006 331 1006 q 501 990 447 1006 q 589 950 554 975 l 528 833 q 459 871 494 857 q 389 885 424 885 q 332 874 358 885 q 285 844 306 864 q 253 796 264 825 q 242 731 242 767 q 254 665 242 693 q 292 606 267 636 q 356 538 317 576 q 417 466 393 503 q 451 387 440 429 q 463 289 463 344 q 444 169 463 225 q 388 72 425 114 q 294 8 350 31 q 167 -14 239 -14 m 92 -333 q 44 -331 68 -333 q 0 -322 21 -329 l 0 -244 q 32 -251 13 -249 q 76 -254 51 -254 q 124 -245 104 -254 q 156 -219 144 -236 q 167 -179 167 -201 q 144 -133 167 -150 q 75 -111 121 -117 l 144 0 l 218 0 l 172 -67 q 242 -103 217 -76 q 268 -174 268 -131 q 245 -262 268 -226 q 182 -315 222 -297 q 92 -333 142 -333 z "},"ş":{"ha":454,"x_min":-37,"x_max":474,"o":"m 149 -14 q 54 -3 96 -14 q -14 22 13 7 l -14 147 q 56 112 14 126 q 135 97 97 97 q 194 110 169 97 q 233 147 219 122 q 246 208 246 172 q 240 253 246 232 q 218 297 235 274 q 169 351 201 321 q 117 412 138 382 q 86 474 96 442 q 76 544 76 507 q 102 654 76 606 q 177 733 128 703 q 294 763 226 763 q 394 748 349 763 q 474 711 440 733 l 419 613 q 360 646 392 635 q 299 657 329 657 q 230 631 256 657 q 204 563 204 606 q 210 519 204 539 q 231 479 215 500 q 274 432 246 458 q 333 366 310 396 q 367 303 356 336 q 378 221 378 269 q 351 99 378 151 q 274 16 325 46 q 149 -14 222 -14 m 54 -333 q 7 -331 31 -333 q -37 -322 -17 -329 l -37 -244 q -6 -251 -25 -249 q 39 -254 14 -254 q 87 -245 67 -254 q 118 -219 107 -236 q 129 -179 129 -201 q 106 -133 129 -150 q 38 -111 83 -117 l 107 0 l 181 0 l 135 -67 q 205 -103 179 -76 q 231 -174 231 -131 q 208 -262 231 -226 q 144 -315 185 -297 q 54 -333 104 -333 z "},"Š":{"ha":535,"x_min":-31,"x_max":632,"o":"m 167 -14 q 53 -1 104 -14 q -31 35 3 11 l -10 169 q 74 126 26 144 q 169 108 121 108 q 231 119 203 108 q 282 151 260 131 q 315 204 304 172 q 326 276 326 236 q 319 340 326 313 q 290 397 311 367 q 226 467 268 426 q 162 540 189 504 q 121 618 135 575 q 107 717 107 661 q 127 835 107 782 q 185 926 147 888 q 276 985 222 964 q 397 1006 331 1006 q 501 990 447 1006 q 589 950 554 975 l 528 833 q 459 871 494 857 q 389 885 424 885 q 332 874 358 885 q 285 844 306 864 q 253 796 264 825 q 242 731 242 767 q 254 665 242 693 q 292 606 267 636 q 356 538 317 576 q 417 466 393 503 q 451 387 440 429 q 463 289 463 344 q 444 169 463 225 q 388 72 425 114 q 294 8 350 31 q 167 -14 239 -14 m 353 1071 q 333 1135 347 1096 q 305 1215 319 1175 q 276 1278 290 1254 l 281 1293 l 353 1293 q 374 1262 363 1281 q 400 1220 386 1243 q 428 1169 414 1197 q 497 1240 464 1208 q 557 1293 529 1271 l 632 1293 l 629 1279 q 575 1217 608 1257 q 511 1138 542 1178 q 465 1071 481 1097 l 353 1071 z "},"š":{"ha":454,"x_min":-14,"x_max":539,"o":"m 149 -14 q 54 -3 96 -14 q -14 22 13 7 l -14 147 q 56 112 14 126 q 135 97 97 97 q 194 110 169 97 q 233 147 219 122 q 246 208 246 172 q 240 253 246 232 q 218 297 235 274 q 169 351 201 321 q 117 412 138 382 q 86 474 96 442 q 76 544 76 507 q 102 654 76 606 q 177 733 128 703 q 294 763 226 763 q 394 748 349 763 q 474 711 440 733 l 419 613 q 360 646 392 635 q 299 657 329 657 q 230 631 256 657 q 204 563 204 606 q 210 519 204 539 q 231 479 215 500 q 274 432 246 458 q 333 366 310 396 q 367 303 356 336 q 378 221 378 269 q 351 99 378 151 q 274 16 325 46 q 149 -14 222 -14 m 260 842 q 240 906 254 867 q 212 985 226 946 q 183 1049 197 1025 l 188 1064 l 260 1064 q 281 1033 269 1051 q 307 991 293 1014 q 335 940 321 968 q 403 1010 371 979 q 464 1064 436 1042 l 539 1064 l 536 1050 q 482 988 515 1028 q 418 908 449 949 q 372 842 388 868 l 260 842 z "},"Ț":{"ha":496,"x_min":18,"x_max":603,"o":"m 93 0 l 279 875 l 110 875 l 135 992 l 603 992 l 578 875 l 408 875 l 222 0 l 93 0 m 18 -287 q 51 -228 33 -264 q 86 -153 69 -192 q 111 -85 103 -114 l 232 -85 l 232 -99 q 198 -167 222 -128 q 147 -244 174 -207 q 96 -307 119 -282 l 18 -307 l 18 -287 z "},"ț":{"ha":353,"x_min":-36,"x_max":396,"o":"m 153 -14 q 64 22 92 -14 q 36 119 36 58 q 40 166 36 140 q 50 222 43 192 l 139 642 l 72 642 l 86 711 l 169 746 l 232 915 l 322 915 l 286 749 l 396 749 l 372 642 l 264 642 l 172 211 q 165 174 168 192 q 161 143 161 156 q 171 108 161 119 q 203 97 181 97 q 233 101 215 97 q 268 111 251 104 l 268 10 q 211 -8 243 -1 q 153 -14 179 -14 m -36 -287 q -3 -228 -21 -264 q 32 -153 15 -192 q 57 -85 49 -114 l 178 -85 l 178 -99 q 144 -167 168 -128 q 92 -244 119 -207 q 42 -307 65 -282 l -36 -307 l -36 -287 z "},"Ť":{"ha":496,"x_min":93,"x_max":603,"o":"m 93 0 l 279 875 l 110 875 l 135 992 l 603 992 l 578 875 l 408 875 l 222 0 l 93 0 m 319 1071 q 300 1135 314 1096 q 272 1215 286 1175 q 243 1278 257 1254 l 247 1293 l 319 1293 q 341 1262 329 1281 q 367 1220 353 1243 q 394 1169 381 1197 q 463 1240 431 1208 q 524 1293 496 1271 l 599 1293 l 596 1279 q 542 1217 575 1257 q 478 1138 508 1178 q 432 1071 447 1097 l 319 1071 z "},"ť":{"ha":378,"x_min":36,"x_max":554,"o":"m 357 838 q 389 911 375 875 q 414 981 403 947 q 432 1046 425 1015 l 554 1046 l 554 1032 q 522 964 543 1003 q 478 888 501 925 q 435 824 456 851 l 357 824 l 357 838 m 153 -14 q 64 22 92 -14 q 36 119 36 58 q 40 166 36 140 q 50 222 43 192 l 139 642 l 72 642 l 86 711 l 169 746 l 232 915 l 322 915 l 286 749 l 396 749 l 372 642 l 264 642 l 172 211 q 165 174 168 192 q 161 143 161 156 q 171 108 161 119 q 203 97 181 97 q 233 101 215 97 q 268 111 251 104 l 268 10 q 211 -8 243 -1 q 153 -14 179 -14 z "},"Ŧ":{"ha":494,"x_min":71,"x_max":603,"o":"m 93 0 l 189 453 l 71 453 l 92 553 l 210 553 l 279 875 l 111 875 l 135 992 l 603 992 l 578 875 l 408 875 l 340 553 l 465 553 l 444 453 l 319 453 l 224 0 l 93 0 z "},"ŧ":{"ha":350,"x_min":11,"x_max":396,"o":"m 153 -14 q 64 22 92 -14 q 36 118 36 58 q 40 162 36 138 q 49 217 43 186 l 82 375 l 11 375 l 31 471 l 103 471 l 139 642 l 72 642 l 86 711 l 169 746 l 232 915 l 321 915 l 285 749 l 396 749 l 372 642 l 263 642 l 225 471 l 338 471 l 317 375 l 207 375 l 171 211 q 164 176 167 192 q 161 146 161 160 q 172 109 161 121 q 206 97 183 97 q 233 101 217 97 q 268 111 250 104 l 268 10 q 210 -8 243 -1 q 153 -14 178 -14 z "},"Ũ":{"ha":671,"x_min":46,"x_max":711,"o":"m 254 -14 q 142 11 189 -14 q 71 84 96 36 q 46 200 46 132 q 50 256 46 225 q 60 317 54 286 l 204 992 l 333 992 l 189 311 q 181 262 183 286 q 178 217 178 238 q 201 132 178 160 q 271 104 225 104 q 347 126 315 104 q 399 198 378 149 q 438 324 421 247 l 581 992 l 711 992 l 564 310 q 506 137 543 210 q 408 25 468 64 q 254 -14 347 -14 m 274 1072 q 303 1170 286 1129 q 348 1233 321 1211 q 414 1256 375 1256 q 465 1243 443 1256 q 503 1215 486 1231 q 535 1188 519 1200 q 568 1176 551 1176 q 601 1194 589 1176 q 625 1257 614 1211 l 701 1257 q 669 1149 690 1189 q 622 1092 649 1110 q 567 1074 596 1074 q 517 1086 539 1074 q 478 1115 496 1099 q 445 1142 461 1131 q 411 1154 429 1154 q 374 1134 389 1154 q 350 1072 360 1114 l 274 1072 z "},"ũ":{"ha":590,"x_min":33,"x_max":624,"o":"m 172 -14 q 96 3 126 -14 q 49 55 65 21 q 33 136 33 89 q 38 194 33 161 q 49 256 43 226 l 154 749 l 278 749 l 179 279 q 168 219 172 249 q 164 165 164 190 q 177 117 164 135 q 218 99 190 99 q 287 128 257 99 q 340 215 317 158 q 378 349 363 271 l 463 749 l 588 749 l 429 0 l 329 0 l 338 93 l 333 93 q 287 35 313 60 q 232 -1 261 11 q 172 -14 203 -14 m 196 843 q 226 941 208 900 q 270 1004 243 982 q 336 1026 297 1026 q 387 1014 365 1026 q 425 986 408 1001 q 458 959 442 971 q 490 947 474 947 q 524 965 511 947 q 547 1028 536 982 l 624 1028 q 592 920 613 960 q 544 863 571 881 q 489 844 518 844 q 440 857 461 844 q 401 885 418 869 q 367 913 383 901 q 333 925 351 925 q 297 905 311 925 q 272 843 282 885 l 196 843 z "},"Ū":{"ha":671,"x_min":46,"x_max":711,"o":"m 254 -14 q 142 11 189 -14 q 71 84 96 36 q 46 200 46 132 q 50 256 46 225 q 60 317 54 286 l 204 992 l 333 992 l 189 311 q 181 262 183 286 q 178 217 178 238 q 201 132 178 160 q 271 104 225 104 q 347 126 315 104 q 399 198 378 149 q 438 324 421 247 l 581 992 l 711 992 l 564 310 q 506 137 543 210 q 408 25 468 64 q 254 -14 347 -14 m 294 1075 l 313 1171 l 656 1171 l 635 1075 l 294 1075 z "},"ū":{"ha":590,"x_min":33,"x_max":588,"o":"m 172 -14 q 96 3 126 -14 q 49 55 65 21 q 33 136 33 89 q 38 194 33 161 q 49 256 43 226 l 154 749 l 278 749 l 179 279 q 168 219 172 249 q 164 165 164 190 q 177 117 164 135 q 218 99 190 99 q 287 128 257 99 q 340 215 317 158 q 378 349 363 271 l 463 749 l 588 749 l 429 0 l 329 0 l 338 93 l 333 93 q 287 35 313 60 q 232 -1 261 11 q 172 -14 203 -14 m 213 846 l 231 942 l 574 942 l 553 846 l 213 846 z "},"Ŭ":{"ha":671,"x_min":46,"x_max":711,"o":"m 254 -14 q 142 11 189 -14 q 71 84 96 36 q 46 200 46 132 q 50 256 46 225 q 60 317 54 286 l 204 992 l 333 992 l 189 311 q 181 262 183 286 q 178 217 178 238 q 201 132 178 160 q 271 104 225 104 q 347 126 315 104 q 399 198 378 149 q 438 324 421 247 l 581 992 l 711 992 l 564 310 q 506 137 543 210 q 408 25 468 64 q 254 -14 347 -14 m 472 1071 q 388 1088 421 1071 q 341 1138 356 1106 q 326 1211 326 1169 q 328 1240 326 1226 q 331 1265 329 1254 l 410 1265 q 417 1210 410 1232 q 439 1177 424 1188 q 478 1167 454 1167 q 542 1189 518 1167 q 579 1265 565 1211 l 661 1265 q 597 1122 644 1172 q 472 1071 549 1071 z "},"ŭ":{"ha":590,"x_min":33,"x_max":588,"o":"m 172 -14 q 96 3 126 -14 q 49 55 65 21 q 33 136 33 89 q 38 194 33 161 q 49 256 43 226 l 154 749 l 278 749 l 179 279 q 168 219 172 249 q 164 165 164 190 q 177 117 164 135 q 218 99 190 99 q 287 128 257 99 q 340 215 317 158 q 378 349 363 271 l 463 749 l 588 749 l 429 0 l 329 0 l 338 93 l 333 93 q 287 35 313 60 q 232 -1 261 11 q 172 -14 203 -14 m 394 842 q 310 859 343 842 q 263 908 278 876 q 249 982 249 940 q 250 1011 249 997 q 253 1036 251 1025 l 332 1036 q 339 981 332 1003 q 361 948 346 958 q 400 938 376 938 q 464 960 440 938 q 501 1036 488 982 l 583 1036 q 519 892 567 943 q 394 842 471 842 z "},"Ů":{"ha":671,"x_min":46,"x_max":711,"o":"m 254 -14 q 142 11 189 -14 q 71 84 96 36 q 46 200 46 132 q 50 256 46 225 q 60 317 54 286 l 204 992 l 333 992 l 189 311 q 181 262 183 286 q 178 217 178 238 q 201 132 178 160 q 271 104 225 104 q 347 126 315 104 q 399 198 378 149 q 438 324 421 247 l 581 992 l 711 992 l 564 310 q 506 137 543 210 q 408 25 468 64 q 254 -14 347 -14 m 482 1074 q 374 1113 413 1074 q 336 1218 336 1151 q 376 1321 336 1282 q 482 1360 415 1360 q 587 1321 547 1360 q 626 1221 626 1282 q 588 1115 626 1156 q 482 1074 550 1074 m 483 1143 q 536 1164 517 1143 q 556 1218 556 1185 q 537 1271 556 1250 q 483 1292 518 1292 q 428 1271 449 1292 q 408 1218 408 1250 q 427 1164 408 1185 q 483 1143 446 1143 z "},"ů":{"ha":590,"x_min":33,"x_max":588,"o":"m 172 -14 q 96 3 126 -14 q 49 55 65 21 q 33 136 33 89 q 38 194 33 161 q 49 256 43 226 l 154 749 l 278 749 l 179 279 q 168 219 172 249 q 164 165 164 190 q 177 117 164 135 q 218 99 190 99 q 287 128 257 99 q 340 215 317 158 q 378 349 363 271 l 463 749 l 588 749 l 429 0 l 329 0 l 338 93 l 333 93 q 287 35 313 60 q 232 -1 261 11 q 172 -14 203 -14 m 407 844 q 299 883 338 844 q 261 989 261 922 q 301 1092 261 1053 q 407 1131 340 1131 q 512 1092 472 1131 q 551 992 551 1053 q 513 885 551 926 q 407 844 475 844 m 408 914 q 461 935 442 914 q 481 989 481 956 q 462 1042 481 1021 q 408 1063 443 1063 q 353 1042 374 1063 q 333 989 333 1021 q 352 935 333 956 q 408 914 371 914 z "},"Ű":{"ha":671,"x_min":46,"x_max":796,"o":"m 254 -14 q 142 11 189 -14 q 71 84 96 36 q 46 200 46 132 q 50 256 46 225 q 60 317 54 286 l 204 992 l 333 992 l 189 311 q 181 262 183 286 q 178 217 178 238 q 201 132 178 160 q 271 104 225 104 q 347 126 315 104 q 399 198 378 149 q 438 324 421 247 l 581 992 l 711 992 l 564 310 q 506 137 543 210 q 408 25 468 64 q 254 -14 347 -14 m 521 1085 q 583 1166 556 1128 q 633 1237 611 1204 q 667 1293 654 1269 l 796 1293 l 794 1282 q 756 1233 781 1261 q 701 1175 731 1206 q 641 1117 671 1144 q 586 1071 611 1090 l 518 1071 l 521 1085 m 310 1085 q 371 1167 343 1128 q 420 1238 399 1206 q 454 1293 442 1269 l 583 1293 l 582 1282 q 544 1233 568 1260 q 489 1176 519 1206 q 427 1119 458 1146 q 369 1071 396 1092 l 307 1071 l 310 1085 z "},"ű":{"ha":590,"x_min":33,"x_max":707,"o":"m 172 -14 q 96 3 126 -14 q 49 55 65 21 q 33 136 33 89 q 38 194 33 161 q 49 256 43 226 l 154 749 l 278 749 l 179 279 q 168 219 172 249 q 164 165 164 190 q 177 117 164 135 q 218 99 190 99 q 287 128 257 99 q 340 215 317 158 q 378 349 363 271 l 463 749 l 588 749 l 429 0 l 329 0 l 338 93 l 333 93 q 287 35 313 60 q 232 -1 261 11 q 172 -14 203 -14 m 432 856 q 494 937 467 899 q 544 1008 522 975 q 578 1064 565 1040 l 707 1064 l 706 1053 q 667 1004 692 1032 q 612 946 642 976 q 552 888 582 915 q 497 842 522 861 l 429 842 l 432 856 m 221 856 q 282 938 254 899 q 331 1008 310 976 q 365 1064 353 1040 l 494 1064 l 493 1053 q 455 1003 479 1031 q 400 947 431 976 q 338 890 369 917 q 281 842 307 863 l 218 842 l 221 856 z "},"Ų":{"ha":671,"x_min":46,"x_max":711,"o":"m 254 -14 q 142 11 189 -14 q 71 84 96 36 q 46 200 46 132 q 50 256 46 225 q 60 317 54 286 l 204 992 l 333 992 l 189 311 q 181 262 183 286 q 178 217 178 238 q 201 132 178 160 q 271 104 225 104 q 347 126 315 104 q 399 198 378 149 q 438 324 421 247 l 581 992 l 711 992 l 564 310 q 506 137 543 210 q 408 25 468 64 q 254 -14 347 -14 m 225 -314 q 144 -285 171 -314 q 117 -212 117 -256 q 133 -137 117 -172 q 180 -67 149 -101 q 257 0 211 -33 l 338 0 q 274 -67 299 -36 q 239 -125 250 -97 q 228 -181 228 -153 q 238 -212 228 -201 q 268 -224 249 -224 q 293 -221 279 -224 q 322 -215 307 -218 l 303 -301 q 265 -312 285 -310 q 225 -314 246 -314 z "},"ų":{"ha":590,"x_min":33,"x_max":588,"o":"m 172 -14 q 96 3 126 -14 q 49 55 65 21 q 33 136 33 89 q 38 194 33 161 q 49 256 43 226 l 154 749 l 278 749 l 179 279 q 168 219 172 249 q 164 165 164 190 q 177 117 164 135 q 218 99 190 99 q 287 128 257 99 q 340 215 317 158 q 378 349 363 271 l 463 749 l 588 749 l 429 0 l 329 0 l 338 93 l 333 93 q 287 35 313 60 q 232 -1 261 11 q 172 -14 203 -14 m 315 -314 q 234 -285 261 -314 q 207 -212 207 -256 q 223 -137 207 -172 q 270 -67 239 -101 q 347 0 301 -33 l 428 0 q 365 -67 389 -36 q 329 -125 340 -97 q 318 -181 318 -153 q 328 -212 318 -201 q 358 -224 339 -224 q 383 -221 369 -224 q 413 -215 397 -218 l 393 -301 q 356 -312 375 -310 q 315 -314 336 -314 z "},"Ŵ":{"ha":926,"x_min":96,"x_max":1039,"o":"m 96 0 l 122 992 l 249 992 l 229 401 q 224 294 228 342 q 218 211 221 246 l 221 211 q 255 306 236 258 q 292 401 274 353 l 524 992 l 638 992 l 618 417 q 615 340 617 375 q 610 273 613 304 q 606 211 608 242 l 608 211 q 633 281 621 247 q 657 346 644 314 q 681 410 669 378 l 907 992 l 1039 992 l 649 0 l 496 0 l 517 586 q 519 631 518 607 q 523 678 521 654 q 526 728 525 703 l 524 728 q 501 662 513 696 q 478 596 490 628 l 247 0 l 96 0 m 410 1085 q 470 1154 440 1119 q 526 1224 500 1189 q 574 1293 551 1260 l 686 1293 q 705 1228 692 1268 q 734 1150 718 1189 q 761 1086 750 1111 l 758 1071 l 686 1071 q 661 1107 674 1088 q 635 1149 649 1126 q 610 1194 622 1171 q 542 1125 575 1157 q 482 1071 510 1093 l 407 1071 l 410 1085 z "},"ŵ":{"ha":783,"x_min":74,"x_max":851,"o":"m 74 0 l 88 749 l 210 749 l 197 351 q 192 271 194 310 q 186 196 189 232 l 189 196 q 204 243 196 218 q 222 292 213 268 q 238 336 231 315 l 399 749 l 539 749 l 525 351 q 520 272 524 314 q 514 189 517 229 l 517 189 q 538 249 528 218 q 558 308 547 279 q 581 368 569 338 l 725 749 l 851 749 l 551 0 l 406 0 l 425 443 q 427 488 426 465 q 430 533 428 511 q 433 578 432 556 l 431 578 q 419 542 425 560 q 406 506 413 524 q 393 469 400 488 l 214 0 l 74 0 m 307 856 q 367 925 338 890 q 423 995 397 960 q 471 1064 449 1031 l 583 1064 q 602 999 589 1039 q 631 921 615 960 q 658 857 647 882 l 656 842 l 583 842 q 558 878 571 858 q 533 919 546 897 q 507 965 519 942 q 440 896 472 928 q 379 842 407 864 l 304 842 l 307 856 z "},"Ŷ":{"ha":522,"x_min":108,"x_max":644,"o":"m 108 0 l 188 381 l 119 992 l 254 992 l 288 554 l 506 992 l 644 992 l 319 385 l 238 0 l 108 0 m 211 1085 q 272 1154 242 1119 q 327 1224 301 1189 q 375 1293 353 1260 l 488 1293 q 506 1228 493 1268 q 535 1150 519 1189 q 563 1086 551 1111 l 560 1071 l 488 1071 q 463 1107 475 1088 q 437 1149 450 1126 q 411 1194 424 1171 q 344 1125 376 1157 q 283 1071 311 1093 l 208 1071 l 211 1085 z "},"ŷ":{"ha":497,"x_min":-124,"x_max":571,"o":"m -44 -335 q -87 -331 -68 -335 q -124 -321 -107 -326 l -106 -208 q -76 -217 -90 -214 q -47 -221 -62 -221 q 14 -192 -10 -221 q 60 -111 38 -162 l 111 4 l 89 749 l 214 749 l 215 351 q 215 298 215 325 q 213 244 214 271 q 210 189 213 217 l 214 189 q 233 244 224 217 q 251 295 242 271 q 268 338 261 319 l 440 749 l 571 749 l 179 -135 q 122 -240 151 -194 q 53 -310 92 -285 q -44 -335 14 -335 m 154 856 q 215 925 185 890 q 270 995 244 960 q 318 1064 296 1031 l 431 1064 q 449 999 436 1039 q 478 921 463 960 q 506 857 494 882 l 503 842 l 431 842 q 406 878 418 858 q 380 919 393 897 q 354 965 367 942 q 287 896 319 928 q 226 842 254 864 l 151 842 l 154 856 z "},"Ÿ":{"ha":522,"x_min":108,"x_max":644,"o":"m 108 0 l 188 381 l 119 992 l 254 992 l 288 554 l 506 992 l 644 992 l 319 385 l 238 0 l 108 0 m 494 1101 q 454 1115 468 1101 q 440 1157 440 1129 q 462 1225 440 1196 q 522 1254 483 1254 q 560 1241 547 1254 q 574 1201 574 1228 q 551 1130 574 1158 q 494 1101 528 1101 m 278 1101 q 239 1115 253 1101 q 225 1157 225 1129 q 247 1225 225 1196 q 307 1254 268 1254 q 333 1248 322 1254 q 351 1231 344 1242 q 357 1201 357 1219 q 335 1130 357 1158 q 278 1101 313 1101 z "},"Ź":{"ha":488,"x_min":-57,"x_max":601,"o":"m -57 0 l -36 97 l 406 876 l 136 876 l 160 992 l 575 992 l 556 893 l 111 115 l 397 115 l 374 0 l -57 0 m 303 1101 q 360 1175 333 1139 q 411 1245 388 1211 q 453 1311 435 1279 l 600 1311 l 599 1300 q 557 1251 585 1281 q 497 1190 529 1221 q 435 1132 464 1160 q 386 1089 406 1104 l 300 1089 l 303 1101 z "},"ź":{"ha":417,"x_min":-51,"x_max":519,"o":"m -51 0 l -33 81 l 296 642 l 99 642 l 121 749 l 458 749 l 440 661 l 115 107 l 332 107 l 308 0 l -51 0 m 221 853 q 278 926 251 890 q 329 997 306 963 q 371 1063 353 1031 l 518 1063 l 517 1051 q 475 1002 503 1032 q 415 942 447 972 q 353 883 382 911 q 304 840 324 856 l 218 840 l 221 853 z "},"Ż":{"ha":488,"x_min":-57,"x_max":575,"o":"m -57 0 l -36 97 l 406 876 l 136 876 l 160 992 l 575 992 l 556 893 l 111 115 l 397 115 l 374 0 l -57 0 m 383 1094 q 337 1112 353 1094 q 321 1157 321 1129 q 343 1229 321 1197 q 408 1261 365 1261 q 443 1254 429 1261 q 463 1234 457 1247 q 469 1199 469 1221 q 447 1126 469 1157 q 383 1094 424 1094 z "},"ż":{"ha":417,"x_min":-51,"x_max":458,"o":"m -51 0 l -33 81 l 296 642 l 99 642 l 121 749 l 458 749 l 440 661 l 115 107 l 332 107 l 308 0 l -51 0 m 310 865 q 263 883 279 865 q 247 928 247 900 q 269 1000 247 968 q 335 1032 292 1032 q 369 1025 356 1032 q 390 1005 383 1018 q 396 969 396 992 q 373 897 396 928 q 310 865 350 865 z "},"Ž":{"ha":488,"x_min":-57,"x_max":596,"o":"m -57 0 l -36 97 l 406 876 l 136 876 l 160 992 l 575 992 l 556 893 l 111 115 l 397 115 l 374 0 l -57 0 m 317 1071 q 297 1135 311 1096 q 269 1215 283 1175 q 240 1278 254 1254 l 244 1293 l 317 1293 q 338 1262 326 1281 q 364 1220 350 1243 q 392 1169 378 1197 q 460 1240 428 1208 q 521 1293 493 1271 l 596 1293 l 593 1279 q 539 1217 572 1257 q 475 1138 506 1178 q 429 1071 444 1097 l 317 1071 z "},"ž":{"ha":417,"x_min":-51,"x_max":514,"o":"m -51 0 l -33 81 l 296 642 l 99 642 l 121 749 l 458 749 l 440 661 l 115 107 l 332 107 l 308 0 l -51 0 m 235 842 q 215 906 229 867 q 187 985 201 946 q 158 1049 172 1025 l 163 1064 l 235 1064 q 256 1033 244 1051 q 282 991 268 1014 q 310 940 296 968 q 378 1010 346 979 q 439 1064 411 1042 l 514 1064 l 511 1050 q 457 988 490 1028 q 393 908 424 949 q 347 842 363 868 l 235 842 z "},"ſ":{"ha":301,"x_min":-176,"x_max":489,"o":"m -101 -333 q -140 -331 -121 -333 q -176 -322 -158 -329 l -176 -211 q -148 -219 -165 -217 q -115 -221 -131 -221 q -50 -182 -68 -221 q -17 -72 -32 -143 l 174 822 q 210 943 188 889 q 272 1030 232 997 q 376 1063 311 1063 q 435 1056 407 1063 q 489 1038 463 1050 l 443 938 q 415 949 429 946 q 386 953 400 953 q 340 931 357 953 q 313 875 322 910 q 293 797 303 840 l 106 -82 q 67 -211 89 -154 q 6 -301 44 -268 q -101 -333 -33 -333 z "},"ƒ":{"ha":497,"x_min":-110,"x_max":658,"o":"m 64 -336 q -35 -312 4 -336 q -92 -248 -74 -287 q -110 -162 -110 -208 q -106 -120 -110 -140 q -94 -82 -101 -100 l 10 -108 q 3 -134 6 -121 q 1 -157 1 -147 q 8 -194 1 -178 q 27 -218 14 -210 q 63 -226 40 -226 q 115 -196 99 -226 q 143 -117 132 -165 l 306 642 l 226 642 l 240 711 l 328 749 l 344 822 q 372 919 357 875 q 409 996 388 964 q 464 1045 431 1028 q 546 1063 497 1063 q 604 1056 576 1063 q 658 1038 632 1050 l 613 939 q 584 950 599 946 q 557 954 569 954 q 501 919 519 954 q 468 821 482 885 l 453 749 l 557 749 l 535 642 l 431 642 l 265 -126 q 198 -279 246 -222 q 64 -336 150 -336 z "},"Ǻ":{"ha":588,"x_min":-86,"x_max":644,"o":"m 292 879 q 261 916 272 893 q 250 969 250 939 q 290 1074 250 1035 q 397 1113 329 1113 q 502 1072 463 1113 q 542 972 542 1032 q 525 903 542 932 q 479 863 508 875 l 501 0 l 367 0 l 361 288 l 174 288 l 54 0 l -86 0 l 292 879 m 219 406 l 368 406 l 368 700 q 369 752 368 725 q 371 806 369 779 l 367 806 q 353 754 361 781 q 335 701 344 728 l 219 406 m 397 896 q 449 916 429 896 q 469 968 469 936 q 451 1022 469 1001 q 397 1043 432 1043 q 344 1022 363 1043 q 325 968 325 1001 q 342 916 325 936 q 397 896 360 896 m 360 1160 q 406 1212 382 1185 q 451 1267 429 1239 q 490 1325 474 1296 l 644 1325 l 644 1315 q 588 1261 622 1293 q 517 1199 554 1229 q 453 1150 481 1169 l 360 1150 l 360 1160 z "},"ǻ":{"ha":601,"x_min":32,"x_max":669,"o":"m 181 -14 q 99 10 132 -14 q 49 80 65 33 q 32 193 32 126 q 43 330 32 254 q 78 481 54 406 q 137 621 101 557 q 222 724 172 685 q 333 763 271 763 q 388 751 364 763 q 430 718 411 740 q 458 658 449 696 l 463 658 l 493 749 l 600 749 l 442 0 l 340 0 l 347 100 l 343 100 q 292 39 318 65 q 240 -1 267 13 q 181 -14 213 -14 m 222 94 q 299 131 268 94 q 353 224 331 168 q 392 339 376 281 q 415 455 407 406 q 422 547 422 504 q 403 624 422 597 q 350 651 383 651 q 284 621 314 651 q 231 540 254 590 q 193 431 208 490 q 169 311 178 371 q 161 201 161 251 q 175 122 161 149 q 222 94 189 94 m 403 811 q 298 849 338 811 q 258 953 258 888 q 298 1058 258 1018 q 403 1097 338 1097 q 508 1059 468 1097 q 550 957 549 1021 q 510 851 550 892 q 403 811 471 811 m 404 881 q 457 900 436 881 q 478 953 478 919 q 458 1008 478 988 q 404 1029 439 1029 q 350 1008 369 1029 q 331 953 331 988 q 349 899 331 917 q 404 881 367 881 m 383 1154 q 426 1206 404 1179 q 471 1263 449 1233 q 513 1324 493 1292 l 669 1324 l 669 1314 q 615 1260 649 1292 q 543 1198 581 1229 q 474 1144 506 1167 l 382 1144 l 383 1154 z "},"Ǽ":{"ha":799,"x_min":-92,"x_max":863,"o":"m -92 0 l 382 992 l 863 992 l 838 876 l 593 876 l 531 575 l 758 575 l 733 460 l 506 460 l 432 115 l 676 115 l 653 0 l 279 0 l 343 297 l 185 297 l 46 0 l -92 0 m 238 415 l 368 415 l 465 875 l 449 875 l 238 415 m 475 1101 q 533 1175 506 1139 q 583 1245 560 1211 q 625 1311 607 1279 l 772 1311 l 771 1300 q 729 1251 757 1281 q 669 1190 701 1221 q 607 1132 636 1160 q 558 1089 578 1104 l 472 1089 l 475 1101 z "},"ǽ":{"ha":875,"x_min":32,"x_max":860,"o":"m 171 -14 q 97 11 128 -14 q 49 83 65 36 q 32 197 32 129 q 45 355 32 275 q 85 508 58 435 q 148 638 111 581 q 231 729 185 696 q 332 763 278 763 q 383 752 360 763 q 424 720 407 742 q 451 665 442 699 l 454 665 l 478 749 l 568 749 l 551 671 q 618 734 579 707 q 708 761 657 761 q 819 719 779 761 q 860 601 860 676 q 835 486 860 536 q 766 401 811 436 q 656 349 721 367 q 510 332 592 332 l 500 332 q 492 283 494 307 q 490 232 490 258 q 515 128 490 167 q 600 90 540 90 q 678 103 639 90 q 761 140 717 115 l 743 32 q 663 -3 701 8 q 576 -14 625 -14 q 484 12 519 -14 q 436 82 449 38 l 419 0 l 329 0 l 344 99 l 342 99 q 293 38 319 64 q 237 -1 267 13 q 171 -14 207 -14 m 224 93 q 279 113 254 93 q 324 167 304 133 q 358 244 343 201 q 383 335 372 288 q 406 453 399 401 q 413 550 413 506 q 396 626 413 600 q 350 651 379 651 q 290 624 318 651 q 238 551 261 597 q 197 446 214 504 q 170 326 179 388 q 161 207 161 264 q 176 122 161 150 q 224 93 192 93 m 522 426 q 650 447 601 426 q 721 506 699 468 q 743 593 743 544 q 728 642 743 624 q 681 660 713 660 q 613 628 644 660 q 558 544 582 597 q 518 426 535 492 l 522 426 m 444 853 q 502 926 475 890 q 553 997 529 963 q 594 1063 576 1031 l 742 1063 l 740 1051 q 699 1002 726 1032 q 638 942 671 972 q 576 883 606 911 q 528 840 547 856 l 442 840 l 444 853 z "},"Ǿ":{"ha":706,"x_min":-8,"x_max":747,"o":"m 57 -68 l -8 -31 l 79 110 q 56 186 64 142 q 49 285 49 231 q 60 442 49 360 q 94 606 72 525 q 152 758 117 686 q 233 886 188 831 q 337 974 279 942 q 464 1006 394 1006 q 550 991 513 1006 q 614 946 588 976 l 681 1051 l 747 1011 l 663 878 q 681 806 675 846 q 688 717 688 765 q 678 573 688 651 q 647 412 668 494 q 592 253 625 329 q 514 117 560 178 q 409 22 468 57 q 276 -14 350 -14 q 192 1 229 -14 q 129 43 154 15 l 57 -68 m 286 104 q 363 131 328 104 q 427 202 399 157 q 477 306 456 247 q 514 427 499 364 q 538 552 529 490 q 549 667 547 614 q 551 692 551 681 q 550 714 551 704 l 201 161 q 235 118 214 132 q 286 104 257 104 m 540 826 q 506 875 526 860 q 451 890 485 890 q 370 862 407 890 q 305 785 333 833 q 256 678 276 738 q 220 556 235 618 q 197 435 206 493 q 188 333 189 378 q 185 300 186 315 q 186 269 185 285 l 540 826 m 414 1101 q 472 1175 444 1139 q 522 1245 499 1211 q 564 1311 546 1279 l 711 1311 l 710 1300 q 668 1251 696 1281 q 608 1190 640 1221 q 546 1132 575 1160 q 497 1089 517 1104 l 411 1089 l 414 1101 z "},"ǿ":{"ha":581,"x_min":-17,"x_max":599,"o":"m 46 -85 l -17 -44 l 63 79 q 41 140 49 106 q 33 217 33 175 q 44 342 33 271 q 79 487 56 414 q 140 623 103 560 q 233 724 178 686 q 363 763 288 763 q 424 752 396 763 q 472 719 451 742 l 532 815 l 597 775 l 521 658 q 540 599 533 632 q 547 529 547 567 q 536 399 547 471 q 501 254 525 326 q 439 121 478 182 q 346 23 400 60 q 221 -14 292 -14 q 162 -5 189 -14 q 114 21 135 4 l 46 -85 m 233 90 q 296 115 268 90 q 345 180 324 139 q 383 272 367 221 q 410 377 400 324 q 422 479 419 431 q 424 500 424 490 q 422 519 424 510 l 174 125 q 200 99 185 108 q 233 90 215 90 m 411 617 q 385 648 401 638 q 347 658 369 658 q 285 633 314 658 q 235 563 257 607 q 196 467 213 519 q 170 359 179 414 q 158 256 161 304 q 157 234 157 244 q 158 215 157 224 l 411 617 m 301 853 q 359 926 332 890 q 410 997 386 963 q 451 1063 433 1031 l 599 1063 l 597 1051 q 556 1002 583 1032 q 495 942 528 972 q 433 883 463 911 q 385 840 404 856 l 299 840 l 301 853 z "},"Ș":{"ha":535,"x_min":-31,"x_max":589,"o":"m 167 -14 q 53 -1 104 -14 q -31 35 3 11 l -10 169 q 74 126 26 144 q 169 108 121 108 q 231 119 203 108 q 282 151 260 131 q 315 204 304 172 q 326 276 326 236 q 319 340 326 313 q 290 397 311 367 q 226 467 268 426 q 162 540 189 504 q 121 618 135 575 q 107 717 107 661 q 127 835 107 782 q 185 926 147 888 q 276 985 222 964 q 397 1006 331 1006 q 501 990 447 1006 q 589 950 554 975 l 528 833 q 459 871 494 857 q 389 885 424 885 q 332 874 358 885 q 285 844 306 864 q 253 796 264 825 q 242 731 242 767 q 254 665 242 693 q 292 606 267 636 q 356 538 317 576 q 417 466 393 503 q 451 387 440 429 q 463 289 463 344 q 444 169 463 225 q 388 72 425 114 q 294 8 350 31 q 167 -14 239 -14 m 35 -287 q 68 -228 50 -264 q 103 -153 86 -192 q 128 -85 119 -114 l 249 -85 l 249 -99 q 215 -167 239 -128 q 163 -244 190 -207 q 113 -307 136 -282 l 35 -307 l 35 -287 z "},"ș":{"ha":454,"x_min":-14,"x_max":474,"o":"m 149 -14 q 54 -3 96 -14 q -14 22 13 7 l -14 147 q 56 112 14 126 q 135 97 97 97 q 194 110 169 97 q 233 147 219 122 q 246 208 246 172 q 240 253 246 232 q 218 297 235 274 q 169 351 201 321 q 117 412 138 382 q 86 474 96 442 q 76 544 76 507 q 102 654 76 606 q 177 733 128 703 q 294 763 226 763 q 394 748 349 763 q 474 711 440 733 l 419 613 q 360 646 392 635 q 299 657 329 657 q 230 631 256 657 q 204 563 204 606 q 210 519 204 539 q 231 479 215 500 q 274 432 246 458 q 333 366 310 396 q 367 303 356 336 q 378 221 378 269 q 351 99 378 151 q 274 16 325 46 q 149 -14 222 -14 m -1 -287 q 32 -228 14 -264 q 67 -153 50 -192 q 92 -85 83 -114 l 213 -85 l 213 -99 q 178 -167 203 -128 q 127 -244 154 -207 q 76 -307 100 -282 l -1 -307 l -1 -287 z "},"ˆ":{"ha":463,"x_min":156,"x_max":510,"o":"m 158 856 q 219 925 189 890 q 274 995 249 960 q 322 1064 300 1031 l 435 1064 q 453 999 440 1039 q 483 921 467 960 q 510 857 499 882 l 507 842 l 435 842 q 410 878 422 858 q 384 919 397 897 q 358 965 371 942 q 291 896 324 928 q 231 842 258 864 l 156 842 l 158 856 z "},"ˇ":{"ha":464,"x_min":199,"x_max":554,"o":"m 275 842 q 256 906 269 867 q 227 985 242 946 q 199 1049 213 1025 l 203 1064 l 275 1064 q 297 1033 285 1051 q 322 991 308 1014 q 350 940 336 968 q 419 1010 386 979 q 479 1064 451 1042 l 554 1064 l 551 1050 q 497 988 531 1028 q 433 908 464 949 q 388 842 403 868 l 275 842 z "},"ˉ":{"ha":453,"x_min":157,"x_max":518,"o":"m 157 846 l 175 942 l 518 942 l 497 846 l 157 846 z "},"˘":{"ha":442,"x_min":192,"x_max":526,"o":"m 338 842 q 253 859 286 842 q 206 908 221 876 q 192 982 192 940 q 193 1011 192 997 q 196 1036 194 1025 l 275 1036 q 282 981 275 1003 q 304 948 289 958 q 343 938 319 938 q 407 960 383 938 q 444 1036 431 982 l 526 1036 q 462 892 510 943 q 338 842 414 842 z "},"˙":{"ha":257,"x_min":176,"x_max":325,"o":"m 239 865 q 192 883 208 865 q 176 928 176 900 q 199 1000 176 968 q 264 1032 221 1032 q 299 1025 285 1032 q 319 1005 313 1018 q 325 969 325 992 q 302 897 325 928 q 239 865 279 865 z "},"˚":{"ha":410,"x_min":190,"x_max":481,"o":"m 336 844 q 228 883 267 844 q 190 989 190 922 q 230 1092 190 1053 q 336 1131 269 1131 q 441 1092 401 1131 q 481 992 481 1053 q 442 885 481 926 q 336 844 404 844 m 338 914 q 390 935 371 914 q 410 989 410 956 q 391 1042 410 1021 q 338 1063 372 1063 q 283 1042 303 1063 q 263 989 263 1021 q 281 935 263 956 q 338 914 300 914 z "},"˛":{"ha":321,"x_min":-65,"x_max":156,"o":"m 43 -314 q -38 -285 -11 -314 q -65 -212 -65 -256 q -49 -137 -65 -172 q -2 -67 -33 -101 q 75 0 29 -33 l 156 0 q 92 -67 117 -36 q 57 -125 68 -97 q 46 -181 46 -153 q 56 -212 46 -201 q 86 -224 67 -224 q 111 -221 97 -224 q 140 -215 125 -218 l 121 -301 q 83 -312 103 -310 q 43 -314 64 -314 z "},"˜":{"ha":500,"x_min":156,"x_max":583,"o":"m 156 843 q 185 941 168 900 q 230 1004 203 982 q 296 1026 257 1026 q 347 1014 325 1026 q 385 986 368 1001 q 417 959 401 971 q 450 947 433 947 q 483 965 471 947 q 507 1028 496 982 l 583 1028 q 551 920 572 960 q 504 863 531 881 q 449 844 478 844 q 399 857 421 844 q 360 885 378 869 q 327 913 343 901 q 293 925 311 925 q 256 905 271 925 q 232 843 242 885 l 156 843 z "},"˝":{"ha":554,"x_min":156,"x_max":644,"o":"m 369 856 q 432 937 404 899 q 481 1008 460 975 q 515 1064 503 1040 l 644 1064 l 643 1053 q 604 1004 629 1032 q 549 946 579 976 q 490 888 519 915 q 435 842 460 861 l 367 842 l 369 856 m 158 856 q 219 938 192 899 q 269 1008 247 976 q 303 1064 290 1040 l 432 1064 l 431 1053 q 392 1003 417 1031 q 338 947 368 976 q 276 890 307 917 q 218 842 244 863 l 156 842 l 158 856 z "},"΄":{"ha":335,"x_min":156,"x_max":428,"o":"m 156 842 l 158 858 l 272 1078 l 428 1078 l 425 1065 l 244 842 l 156 842 z "},"΅":{"ha":803,"x_min":222,"x_max":742,"o":"m 378 842 l 381 858 l 481 1078 l 638 1078 l 635 1065 l 467 842 l 378 842 m 281 856 q 237 875 251 856 q 229 933 222 894 q 261 991 238 972 q 313 1010 285 1010 q 356 990 342 1010 q 363 933 371 971 q 331 875 354 894 q 281 856 308 856 m 650 856 q 606 875 619 856 q 599 933 592 894 q 631 991 607 972 q 683 1010 654 1010 q 727 990 713 1010 q 733 933 742 971 q 702 875 726 894 q 650 856 678 856 z "},"Ά":{"ha":692,"x_min":14,"x_max":601,"o":"m 14 0 l 431 996 l 596 996 l 601 0 l 467 0 l 468 297 l 275 297 l 156 0 l 14 0 m 319 414 l 474 414 l 481 749 q 482 812 481 782 q 486 869 483 842 l 482 869 q 467 814 476 843 q 446 749 458 785 l 319 414 m 44 756 l 47 772 l 161 992 l 317 992 l 314 979 l 133 756 l 44 756 z "},"·":{"ha":296,"x_min":122,"x_max":285,"o":"m 188 568 q 140 585 157 568 q 122 633 122 601 q 148 717 122 681 q 222 753 174 753 q 268 735 251 753 q 285 688 285 717 q 256 602 285 636 q 188 568 228 568 z "},"Έ":{"ha":756,"x_min":96,"x_max":818,"o":"m 233 0 l 443 992 l 817 992 l 793 876 l 549 876 l 486 575 l 713 575 l 688 460 l 461 460 l 388 115 l 632 115 l 607 0 l 233 0 m 96 756 l 99 772 l 213 992 l 368 992 l 365 979 l 185 756 l 96 756 z "},"Ή":{"ha":924,"x_min":96,"x_max":958,"o":"m 233 0 l 443 992 l 574 992 l 486 576 l 739 576 l 828 992 l 957 992 l 746 0 l 617 0 l 714 460 l 461 460 l 364 0 l 233 0 m 96 756 l 99 772 l 213 992 l 368 992 l 365 979 l 185 756 l 96 756 z "},"Ί":{"ha":647,"x_min":96,"x_max":747,"o":"m 194 0 l 211 71 l 322 99 l 490 893 l 390 921 l 404 992 l 747 992 l 732 921 l 619 893 l 451 99 l 551 71 l 538 0 l 194 0 m 96 756 l 99 772 l 213 992 l 368 992 l 365 979 l 185 756 l 96 756 z "},"Ό":{"ha":889,"x_min":96,"x_max":872,"o":"m 460 -14 q 333 18 383 -14 q 257 117 282 50 q 232 285 232 183 q 244 442 232 360 q 278 606 256 525 q 335 758 300 686 q 417 886 371 831 q 520 974 463 942 q 646 1006 578 1006 q 816 934 761 1006 q 871 717 871 863 q 861 573 871 651 q 830 412 851 494 q 776 253 808 329 q 697 117 743 178 q 592 22 651 57 q 460 -14 533 -14 m 469 104 q 551 134 514 104 q 619 215 589 164 q 671 331 649 267 q 708 465 693 396 q 731 600 724 535 q 738 719 738 665 q 713 849 738 807 q 636 890 688 890 q 549 858 588 890 q 481 772 511 826 q 429 652 450 718 q 394 518 408 586 q 374 389 381 450 q 367 283 367 328 q 378 178 367 218 q 413 122 390 139 q 469 104 436 104 m 96 756 l 99 772 l 213 992 l 368 992 l 365 979 l 185 756 l 96 756 z "},"Ύ":{"ha":818,"x_min":96,"x_max":939,"o":"m 403 0 l 482 381 l 414 992 l 549 992 l 582 554 l 800 992 l 939 992 l 614 385 l 532 0 l 403 0 m 96 756 l 99 772 l 213 992 l 368 992 l 365 979 l 185 756 l 96 756 z "},"Ώ":{"ha":957,"x_min":96,"x_max":956,"o":"m 244 0 l 269 124 l 419 124 q 356 231 376 167 q 333 376 335 296 q 344 547 332 457 q 413 797 365 694 q 535 953 461 900 q 708 1006 610 1006 q 864 951 807 1006 q 938 794 921 897 q 936 547 956 692 q 895 375 924 456 q 824 231 867 294 q 722 124 781 167 l 872 124 l 847 0 l 586 0 l 611 118 q 699 228 661 168 q 762 366 736 289 q 801 542 788 443 q 811 727 817 649 q 776 848 806 806 q 692 890 747 890 q 596 849 638 890 q 526 731 554 808 q 481 540 497 653 q 465 366 467 444 q 477 227 463 288 q 531 118 492 167 l 506 0 l 244 0 m 96 756 l 99 772 l 213 992 l 368 992 l 365 979 l 185 756 l 96 756 z "},"ΐ":{"ha":371,"x_min":28,"x_max":579,"o":"m 158 -14 q 86 2 115 -12 q 42 47 57 17 q 28 124 28 78 q 31 166 28 143 q 39 215 33 189 l 153 749 l 285 749 l 172 217 q 166 185 168 200 q 164 158 164 171 q 175 117 164 131 q 208 104 186 104 q 233 107 219 104 q 261 115 247 110 l 238 0 q 199 -10 219 -7 q 158 -14 179 -14 m 215 840 l 218 857 l 318 1076 l 475 1076 l 472 1064 l 304 840 l 215 840 m 118 854 q 74 874 89 854 q 67 932 60 893 q 99 990 75 971 q 150 1008 122 1008 q 194 989 179 1008 q 200 932 208 969 q 169 874 192 893 q 118 854 146 854 m 488 854 q 443 874 457 854 q 436 932 429 893 q 468 990 444 971 q 521 1008 492 1008 q 565 989 550 1008 q 571 932 579 969 q 540 874 564 893 q 488 854 515 854 z "},"Α":{"ha":588,"x_min":-89,"x_max":499,"o":"m -89 0 l 328 996 l 493 996 l 499 0 l 364 0 l 365 297 l 172 297 l 53 0 l -89 0 m 217 414 l 371 414 l 378 749 q 379 812 378 782 q 383 869 381 842 l 379 869 q 365 814 374 843 q 343 749 356 785 l 217 414 z "},"Β":{"ha":615,"x_min":-1,"x_max":626,"o":"m -1 0 l 208 992 l 406 992 q 517 970 467 992 q 597 906 567 949 q 626 796 626 863 q 607 678 626 735 q 547 580 588 621 q 440 521 506 539 l 440 517 q 519 450 492 500 q 547 335 547 400 q 511 168 547 244 q 405 46 475 92 q 232 0 335 0 l -1 0 m 232 114 q 335 144 294 114 q 394 226 375 175 q 414 339 414 278 q 385 431 414 400 q 304 463 356 463 l 226 463 l 153 114 l 232 114 m 322 571 q 413 599 375 571 q 469 675 450 628 q 489 775 489 722 q 463 854 489 828 q 379 881 436 881 l 315 881 l 250 571 l 322 571 z "},"Γ":{"ha":481,"x_min":-1,"x_max":571,"o":"m -1 0 l 208 992 l 571 992 l 547 875 l 314 875 l 129 0 l -1 0 z "},"Ε":{"ha":519,"x_min":-1,"x_max":582,"o":"m -1 0 l 208 992 l 582 992 l 558 876 l 314 876 l 251 575 l 478 575 l 453 460 l 226 460 l 153 115 l 397 115 l 372 0 l -1 0 z "},"Ζ":{"ha":488,"x_min":-57,"x_max":575,"o":"m -57 0 l -36 97 l 406 876 l 136 876 l 160 992 l 575 992 l 556 893 l 111 115 l 397 115 l 374 0 l -57 0 z "},"Η":{"ha":688,"x_min":-1,"x_max":722,"o":"m -1 0 l 208 992 l 339 992 l 251 576 l 504 576 l 593 992 l 722 992 l 511 0 l 382 0 l 479 460 l 226 460 l 129 0 l -1 0 z "},"Θ":{"ha":706,"x_min":49,"x_max":688,"o":"m 256 446 l 282 563 l 482 563 l 456 446 l 256 446 m 276 -14 q 149 18 200 -14 q 74 117 99 50 q 49 285 49 183 q 60 442 49 360 q 94 606 72 525 q 152 758 117 686 q 233 886 188 831 q 337 974 279 942 q 463 1006 394 1006 q 633 934 578 1006 q 688 717 688 863 q 678 573 688 651 q 647 412 668 494 q 592 253 625 329 q 514 117 560 178 q 409 22 468 57 q 276 -14 350 -14 m 286 104 q 368 134 331 104 q 435 215 406 164 q 488 331 465 267 q 525 465 510 396 q 547 600 540 535 q 554 719 554 665 q 529 849 554 807 q 453 890 504 890 q 366 858 404 890 q 297 772 328 826 q 246 652 267 718 q 211 518 225 586 q 190 389 197 450 q 183 283 183 328 q 195 178 183 218 q 230 122 207 139 q 286 104 253 104 z "},"Ι":{"ha":385,"x_min":-68,"x_max":485,"o":"m -68 0 l -51 71 l 60 99 l 228 893 l 128 921 l 142 992 l 485 992 l 469 921 l 357 893 l 189 99 l 289 71 l 275 0 l -68 0 z "},"Κ":{"ha":586,"x_min":-1,"x_max":703,"o":"m -1 0 l 208 992 l 339 992 l 238 513 l 310 628 l 561 992 l 703 992 l 390 536 l 501 0 l 361 0 l 278 439 l 207 369 l 129 0 l -1 0 z "},"Λ":{"ha":585,"x_min":-89,"x_max":496,"o":"m -89 0 l 336 994 l 488 994 l 496 0 l 360 0 l 365 631 q 367 717 365 671 q 371 806 369 763 l 368 806 q 332 699 351 754 q 288 583 313 644 l 47 0 l -89 0 z "},"Μ":{"ha":918,"x_min":-1,"x_max":953,"o":"m -1 0 l 208 992 l 386 992 l 414 217 l 417 217 l 764 992 l 953 992 l 742 0 l 615 0 l 750 639 q 760 678 756 658 q 770 719 765 699 q 781 763 775 740 l 778 763 l 432 0 l 310 0 l 282 760 l 279 760 q 269 706 274 732 q 261 656 265 681 q 251 610 257 632 l 122 0 l -1 0 z "},"Ν":{"ha":732,"x_min":-1,"x_max":768,"o":"m -1 0 l 208 992 l 360 992 l 485 236 l 489 236 q 506 330 497 283 q 522 416 514 376 q 535 482 531 456 l 643 992 l 768 992 l 557 0 l 410 0 l 282 769 l 278 769 q 265 691 272 732 q 251 611 258 650 q 237 541 243 572 q 226 490 231 510 l 122 0 l -1 0 z "},"Ξ":{"ha":551,"x_min":-12,"x_max":603,"o":"m -12 0 l 13 115 l 429 115 l 404 0 l -12 0 m 126 463 l 150 578 l 488 578 l 461 463 l 126 463 m 188 876 l 211 992 l 603 992 l 578 876 l 188 876 z "},"Ο":{"ha":706,"x_min":49,"x_max":688,"o":"m 276 -14 q 149 18 200 -14 q 74 117 99 50 q 49 285 49 183 q 60 442 49 360 q 94 606 72 525 q 152 758 117 686 q 233 886 188 831 q 337 974 279 942 q 463 1006 394 1006 q 633 934 578 1006 q 688 717 688 863 q 678 573 688 651 q 647 412 668 494 q 592 253 625 329 q 514 117 560 178 q 409 22 468 57 q 276 -14 350 -14 m 286 104 q 368 134 331 104 q 435 215 406 164 q 488 331 465 267 q 525 465 510 396 q 547 600 540 535 q 554 719 554 665 q 529 849 554 807 q 453 890 504 890 q 366 858 404 890 q 297 772 328 826 q 246 652 267 718 q 211 518 225 586 q 190 389 197 450 q 183 283 183 328 q 195 178 183 218 q 230 122 207 139 q 286 104 253 104 z "},"Π":{"ha":681,"x_min":-1,"x_max":714,"o":"m -1 0 l 208 992 l 714 992 l 504 0 l 375 0 l 560 875 l 313 875 l 129 0 l -1 0 z "},"Ρ":{"ha":578,"x_min":-1,"x_max":606,"o":"m -1 0 l 208 992 l 372 992 q 503 965 451 992 q 580 888 554 938 q 606 772 606 839 q 583 619 606 690 q 519 494 561 549 q 414 410 476 440 q 269 379 351 379 l 208 379 l 129 0 l -1 0 m 269 494 q 380 527 335 494 q 448 619 425 560 q 471 756 471 679 q 441 847 471 817 q 351 876 411 876 l 314 876 l 233 494 l 269 494 z "},"Σ":{"ha":481,"x_min":-57,"x_max":568,"o":"m -57 0 l -33 107 l 221 513 l 150 888 l 171 992 l 568 992 l 544 876 l 388 876 q 347 877 365 876 q 312 878 328 878 q 282 881 296 879 l 349 521 l 342 494 l 94 110 q 154 114 128 113 q 204 115 181 115 l 390 115 l 367 0 l -57 0 z "},"Τ":{"ha":496,"x_min":93,"x_max":603,"o":"m 93 0 l 279 875 l 110 875 l 135 992 l 603 992 l 578 875 l 408 875 l 222 0 l 93 0 z "},"Υ":{"ha":522,"x_min":108,"x_max":644,"o":"m 108 0 l 188 381 l 119 992 l 254 992 l 288 554 l 506 992 l 644 992 l 319 385 l 238 0 l 108 0 z "},"Φ":{"ha":928,"x_min":53,"x_max":911,"o":"m 304 -4 l 333 138 q 199 181 256 149 q 109 264 143 213 q 64 383 75 315 q 64 531 53 451 q 106 678 75 613 q 191 790 138 743 q 319 861 244 836 q 492 888 394 886 l 515 996 l 650 996 l 626 885 q 763 842 706 875 q 853 758 819 810 q 899 640 888 707 q 899 492 911 572 q 856 344 888 410 q 772 233 825 279 q 642 162 718 188 q 468 135 567 136 l 439 -4 l 304 -4 m 358 256 l 467 769 q 326 738 382 768 q 241 655 271 708 q 201 529 211 601 q 199 419 193 468 q 224 336 204 371 q 278 281 244 301 q 358 256 313 261 m 493 253 q 636 284 581 254 q 722 368 692 314 q 763 493 751 422 q 765 604 771 556 q 738 688 758 653 q 683 742 717 722 q 601 767 650 763 l 493 253 z "},"Χ":{"ha":543,"x_min":-82,"x_max":642,"o":"m -82 0 l 219 518 l 147 992 l 282 992 l 322 644 l 504 992 l 642 992 l 368 507 l 444 0 l 306 0 l 267 378 l 56 0 l -82 0 z "},"Ψ":{"ha":847,"x_min":97,"x_max":888,"o":"m 269 0 l 322 249 q 210 276 257 254 q 136 338 163 299 q 103 435 110 378 q 114 568 97 493 l 204 992 l 332 992 l 243 569 q 233 463 229 508 q 263 391 236 417 q 349 365 290 365 l 481 992 l 610 992 l 476 363 q 568 385 532 364 q 628 454 604 407 q 668 575 653 501 l 757 992 l 888 992 l 796 567 q 751 426 779 486 q 681 328 722 367 q 583 269 639 289 q 453 249 526 249 l 400 0 l 269 0 z "},"Ϊ":{"ha":385,"x_min":-68,"x_max":525,"o":"m -68 0 l -51 71 l 60 99 l 228 893 l 128 921 l 142 992 l 485 992 l 469 921 l 357 893 l 189 99 l 289 71 l 275 0 l -68 0 m 446 1131 q 406 1144 419 1131 q 392 1186 392 1158 q 413 1254 392 1225 q 474 1283 435 1283 q 512 1270 499 1283 q 525 1231 525 1257 q 502 1159 525 1188 q 446 1131 479 1131 m 229 1131 q 190 1144 204 1131 q 176 1186 176 1158 q 198 1254 176 1225 q 258 1283 219 1283 q 285 1277 274 1283 q 302 1260 296 1271 q 308 1231 308 1249 q 286 1159 308 1188 q 229 1131 264 1131 z "},"Ϋ":{"ha":522,"x_min":108,"x_max":644,"o":"m 108 0 l 188 381 l 119 992 l 254 992 l 288 554 l 506 992 l 644 992 l 319 385 l 238 0 l 108 0 m 494 1101 q 454 1115 468 1101 q 440 1157 440 1129 q 462 1225 440 1196 q 522 1254 483 1254 q 560 1241 547 1254 q 574 1201 574 1228 q 551 1130 574 1158 q 494 1101 528 1101 m 278 1101 q 239 1115 253 1101 q 225 1157 225 1129 q 247 1225 225 1196 q 307 1254 268 1254 q 333 1248 322 1254 q 351 1231 344 1242 q 357 1201 357 1219 q 335 1130 357 1158 q 278 1101 313 1101 z "},"ά":{"ha":617,"x_min":29,"x_max":599,"o":"m 174 -14 q 66 40 103 -14 q 29 192 29 94 q 42 340 29 261 q 79 493 54 418 q 141 629 104 568 q 225 726 178 690 q 329 763 272 763 q 390 751 365 763 q 432 715 415 739 q 458 654 449 692 l 463 654 l 490 749 l 599 749 l 485 208 q 478 175 481 190 q 475 146 475 160 q 484 112 475 124 q 511 100 493 100 q 531 102 519 100 q 553 107 542 104 l 531 0 q 508 -8 522 -4 q 481 -12 494 -11 q 457 -14 468 -14 q 383 1 408 -14 q 351 41 358 17 q 342 93 343 65 l 338 93 q 287 33 311 57 q 235 -3 263 8 q 174 -14 207 -14 m 221 96 q 297 133 264 96 q 353 227 331 171 q 389 338 376 283 q 413 454 406 403 q 419 546 419 506 q 401 625 419 599 q 344 651 382 651 q 278 619 308 651 q 226 535 249 588 q 188 424 203 483 q 166 308 174 364 q 158 213 158 253 q 174 124 158 153 q 221 96 189 96 m 322 840 l 325 857 l 439 1076 l 594 1076 l 592 1064 l 411 840 l 322 840 z "},"έ":{"ha":426,"x_min":8,"x_max":558,"o":"m 199 -14 q 82 17 125 -14 q 24 101 39 49 q 18 221 8 154 q 70 343 31 299 q 167 400 110 388 l 168 406 q 102 472 119 429 q 93 579 85 515 q 128 674 100 632 q 201 739 156 715 q 310 763 247 763 q 392 752 354 763 q 461 714 429 742 l 413 610 q 365 640 390 631 q 314 650 340 650 q 262 640 283 650 q 228 611 240 631 q 211 561 217 592 q 222 483 204 514 q 289 453 239 453 l 347 453 l 326 350 l 272 350 q 210 337 236 350 q 168 297 183 324 q 146 231 153 271 q 157 131 136 167 q 232 96 178 96 q 287 105 260 96 q 350 139 314 114 l 350 31 q 278 -5 318 4 q 199 -14 238 -14 m 286 840 l 289 857 l 403 1076 l 558 1076 l 556 1064 l 375 840 l 286 840 z "},"ή":{"ha":588,"x_min":-4,"x_max":571,"o":"m 403 457 q 415 525 410 490 q 421 585 421 560 q 408 631 421 615 q 365 647 394 647 q 313 631 336 647 q 269 583 289 615 q 235 505 250 551 q 207 400 219 458 l 122 0 l -4 0 l 156 749 l 257 749 l 244 650 l 249 650 q 282 697 264 676 q 321 733 300 718 q 365 755 342 747 q 413 763 388 763 q 483 747 451 763 q 533 700 514 732 q 551 615 551 668 q 546 551 551 588 q 532 479 540 515 l 360 -333 l 235 -333 l 403 457 m 297 840 l 300 857 l 414 1076 l 569 1076 l 567 1064 l 386 840 l 297 840 z "},"ί":{"ha":310,"x_min":28,"x_max":469,"o":"m 158 -14 q 86 2 115 -12 q 42 47 57 17 q 28 124 28 78 q 31 166 28 143 q 39 215 33 189 l 153 749 l 285 749 l 172 217 q 166 185 168 200 q 164 158 164 171 q 175 117 164 131 q 208 104 186 104 q 233 107 219 104 q 261 115 247 110 l 238 0 q 199 -10 219 -7 q 158 -14 179 -14 m 197 840 l 200 857 l 314 1076 l 469 1076 l 467 1064 l 286 840 l 197 840 z "},"ΰ":{"ha":571,"x_min":25,"x_max":685,"o":"m 203 -12 q 97 16 139 -11 q 40 96 54 43 q 42 226 25 149 l 153 749 l 278 749 l 163 217 q 163 137 153 168 q 218 106 174 106 q 324 169 282 106 q 390 351 365 232 q 406 448 400 394 q 417 556 413 501 q 422 661 421 611 q 422 749 424 711 l 542 749 q 547 631 547 699 q 539 488 546 563 q 518 344 532 414 q 451 152 496 232 q 344 30 407 72 q 203 -12 282 -12 m 322 840 l 325 857 l 425 1076 l 582 1076 l 579 1064 l 411 840 l 322 840 m 225 854 q 181 874 196 854 q 174 932 167 893 q 206 990 182 971 q 257 1008 229 1008 q 301 989 286 1008 q 307 932 315 969 q 276 874 299 893 q 225 854 253 854 m 594 854 q 550 874 564 854 q 543 932 536 893 q 575 990 551 971 q 628 1008 599 1008 q 672 989 657 1008 q 678 932 686 969 q 647 874 671 893 q 594 854 622 854 z "},"α":{"ha":617,"x_min":29,"x_max":599,"o":"m 174 -14 q 66 40 103 -14 q 29 192 29 94 q 42 340 29 261 q 79 493 54 418 q 141 629 104 568 q 225 726 178 690 q 329 763 272 763 q 390 751 365 763 q 432 715 415 739 q 458 654 449 692 l 463 654 l 490 749 l 599 749 l 485 208 q 478 175 481 190 q 475 146 475 160 q 484 112 475 124 q 511 100 493 100 q 531 102 519 100 q 553 107 542 104 l 531 0 q 508 -8 522 -4 q 481 -12 494 -11 q 457 -14 468 -14 q 383 1 408 -14 q 351 41 358 17 q 342 93 343 65 l 338 93 q 287 33 311 57 q 235 -3 263 8 q 174 -14 207 -14 m 221 96 q 297 133 264 96 q 353 227 331 171 q 389 338 376 283 q 413 454 406 403 q 419 546 419 506 q 401 625 419 599 q 344 651 382 651 q 278 619 308 651 q 226 535 249 588 q 188 424 203 483 q 166 308 174 364 q 158 213 158 253 q 174 124 158 153 q 221 96 189 96 z "},"β":{"ha":615,"x_min":-71,"x_max":638,"o":"m -71 -325 l 165 790 q 216 938 183 878 q 302 1031 249 999 q 435 1063 356 1063 q 543 1038 499 1063 q 613 970 588 1014 q 638 868 638 926 q 610 726 638 792 q 535 617 583 661 q 418 557 486 572 q 525 496 481 546 q 569 357 569 446 q 551 228 569 293 q 494 108 532 163 q 399 19 456 53 q 268 -14 343 -14 q 192 -2 233 -14 q 128 29 151 10 l 50 -325 l -71 -325 m 264 99 q 345 124 311 99 q 400 188 379 149 q 431 273 421 228 q 442 356 442 318 q 429 437 442 406 q 392 483 417 468 q 329 499 367 499 l 292 499 l 314 604 l 346 604 q 416 627 386 604 q 466 686 446 650 q 497 765 486 722 q 507 847 507 807 q 485 928 507 901 q 425 954 464 954 q 363 937 389 954 q 319 885 336 919 q 289 796 301 850 l 151 143 q 202 110 169 122 q 264 99 235 99 z "},"γ":{"ha":510,"x_min":31,"x_max":535,"o":"m 31 -292 l 97 21 l 82 749 l 206 749 l 201 296 q 201 238 201 265 q 199 186 200 210 q 196 143 199 163 l 201 143 q 302 324 260 229 q 371 525 344 419 q 408 749 397 631 l 535 749 q 480 478 518 604 q 377 237 442 351 q 217 10 313 122 l 154 -292 l 31 -292 z "},"δ":{"ha":581,"x_min":29,"x_max":650,"o":"m 236 -14 q 122 17 168 -14 q 52 103 75 49 q 29 226 29 157 q 60 405 29 321 q 149 552 90 489 q 293 646 208 615 q 239 737 257 696 q 221 836 221 778 q 251 953 221 903 q 335 1031 282 1003 q 458 1060 389 1060 q 573 1042 524 1060 q 650 1000 622 1024 l 589 901 q 524 939 557 926 q 454 951 492 951 q 376 923 404 951 q 347 844 347 894 q 358 783 347 813 q 389 724 369 753 q 429 664 408 696 q 484 572 461 619 q 520 474 507 525 q 533 364 533 424 q 515 224 533 292 q 460 102 496 156 q 368 17 424 49 q 236 -14 313 -14 m 247 93 q 320 121 290 93 q 369 192 350 149 q 396 279 388 235 q 404 357 404 324 q 397 442 404 403 q 376 515 390 481 q 340 579 361 550 q 242 503 283 557 q 179 377 201 449 q 157 231 157 306 q 167 163 157 194 q 197 113 176 132 q 247 93 218 93 z "},"ε":{"ha":426,"x_min":8,"x_max":461,"o":"m 199 -14 q 82 17 125 -14 q 24 101 39 49 q 18 221 8 154 q 70 343 31 299 q 167 400 110 388 l 168 406 q 102 472 119 429 q 93 579 85 515 q 128 674 100 632 q 201 739 156 715 q 310 763 247 763 q 392 752 354 763 q 461 714 429 742 l 413 610 q 365 640 390 631 q 314 650 340 650 q 262 640 283 650 q 228 611 240 631 q 211 561 217 592 q 222 483 204 514 q 289 453 239 453 l 347 453 l 326 350 l 272 350 q 210 337 236 350 q 168 297 183 324 q 146 231 153 271 q 157 131 136 167 q 232 96 178 96 q 287 105 260 96 q 350 139 314 114 l 350 31 q 278 -5 318 4 q 199 -14 238 -14 z "},"ζ":{"ha":438,"x_min":14,"x_max":561,"o":"m 175 -281 q 233 -185 217 -224 q 254 -118 250 -147 q 254 -74 258 -93 q 233 -39 250 -54 q 182 -10 217 -24 q 82 56 121 13 q 28 163 43 100 q 25 306 14 225 q 51 417 32 364 q 100 522 69 469 q 172 635 131 575 q 267 768 214 694 l 403 954 q 367 949 386 951 q 327 945 349 946 q 279 944 306 944 l 143 944 l 167 1056 l 561 1056 l 542 968 l 368 726 q 252 547 294 622 q 190 417 210 472 q 163 313 169 361 q 160 233 157 275 q 190 154 164 190 q 281 92 217 118 q 350 51 324 75 q 386 -8 376 26 q 389 -96 396 -43 q 373 -160 385 -129 q 344 -219 361 -190 q 304 -281 326 -249 l 175 -281 z "},"η":{"ha":588,"x_min":-4,"x_max":551,"o":"m 403 457 q 415 525 410 490 q 421 585 421 560 q 408 631 421 615 q 365 647 394 647 q 313 631 336 647 q 269 583 289 615 q 235 505 250 551 q 207 400 219 458 l 122 0 l -4 0 l 156 749 l 257 749 l 244 650 l 249 650 q 282 697 264 676 q 321 733 300 718 q 365 755 342 747 q 413 763 388 763 q 483 747 451 763 q 533 700 514 732 q 551 615 551 668 q 546 551 551 588 q 532 479 540 515 l 360 -333 l 235 -333 l 403 457 z "},"θ":{"ha":582,"x_min":36,"x_max":600,"o":"m 36 250 q 41 349 36 296 q 56 460 46 401 q 78 581 65 519 q 129 757 99 669 q 201 915 160 844 q 297 1028 242 986 q 421 1071 351 1071 q 517 1044 476 1071 q 578 960 557 1018 q 600 808 600 903 q 588 644 600 736 q 553 459 575 553 q 500 289 531 365 q 444 165 474 221 q 379 69 414 110 q 304 8 344 29 q 217 -14 264 -14 q 117 15 157 -14 q 56 102 76 43 q 36 250 36 161 m 154 233 q 173 125 154 160 q 225 90 192 90 q 288 121 258 90 q 342 206 317 151 q 389 331 367 260 q 431 486 411 403 l 186 486 q 163 340 171 404 q 154 233 154 276 m 210 590 l 451 590 q 471 722 464 663 q 478 826 478 782 q 460 932 478 899 q 408 965 443 965 q 349 938 376 965 q 297 861 321 911 q 251 742 272 811 q 210 590 229 674 z "},"ι":{"ha":310,"x_min":28,"x_max":285,"o":"m 158 -14 q 86 2 115 -12 q 42 47 57 17 q 28 124 28 78 q 31 166 28 143 q 39 215 33 189 l 153 749 l 285 749 l 172 217 q 166 185 168 200 q 164 158 164 171 q 175 117 164 131 q 208 104 186 104 q 233 107 219 104 q 261 115 247 110 l 238 0 q 199 -10 219 -7 q 158 -14 179 -14 z "},"κ":{"ha":528,"x_min":-3,"x_max":592,"o":"m -3 0 l 157 749 l 282 749 l 240 561 q 224 494 233 531 q 203 411 215 457 l 206 411 l 456 749 l 592 749 l 363 442 l 446 0 l 313 0 l 254 339 l 174 254 l 122 0 l -3 0 z "}}}
